<svg width="127" height="30" viewBox="0 0 127 30" fill="none" xmlns="http://www.w3.org/2000/svg">
<g clip-path="url(#clip0_9_1409)">
<path d="M62.8669 5.17595C63.5601 5.65505 63.6875 5.79266 63.9653 6.626H64.4749C64.5327 6.47309 64.5913 6.31934 64.6508 6.16473C65.1452 5.34159 65.818 4.97717 66.7277 4.69939C68.4734 4.34771 70.1452 4.39613 71.6997 5.30082C72.8389 6.12905 73.2976 7.07707 73.6493 8.40989C73.7155 9.22284 73.7079 10.0307 73.7002 10.8436C73.7002 11.073 73.7002 11.3023 73.7002 11.5394C73.6977 12.2682 73.69 12.9996 73.6849 13.7284C73.6824 14.2254 73.6798 14.7223 73.6773 15.2167C73.6722 16.4298 73.662 17.6428 73.6518 18.8559H68.0453C68.03 18.2188 68.0147 17.5791 67.9994 16.9216C67.9841 16.3049 67.9688 15.6882 67.951 15.0715C67.9408 14.6433 67.9306 14.2126 67.9204 13.7845C67.9051 13.1678 67.8898 12.5511 67.872 11.9369C67.8669 11.7432 67.8643 11.5521 67.8592 11.3533C67.8524 10.689 67.7446 10.0468 67.5356 9.42671C66.9546 9.38424 66.3599 9.38424 65.7517 9.42671C65.1299 10.3594 65.1528 11.0806 65.1375 12.1612C65.1324 12.3523 65.1273 12.5434 65.1222 12.7397C65.1069 13.3487 65.0942 13.9603 65.084 14.5694C65.0738 14.9823 65.0636 15.3977 65.0534 15.8105C65.028 16.8248 65.0076 17.839 64.9872 18.8533H59.1258C59.1105 18.1933 59.0952 17.5358 59.0799 16.8554C59.0646 16.2182 59.0494 15.5837 59.0315 14.9466C59.0213 14.5032 59.0086 14.0597 59.0009 13.6163C58.9856 12.9818 58.9704 12.3447 58.9525 11.7101C58.9474 11.5113 58.9449 11.3125 58.9398 11.1061C58.9789 10.4945 58.871 9.93385 58.6161 9.42416C58.0283 9.3681 57.4337 9.3681 56.8322 9.42416C56.2104 10.3569 56.2334 11.0781 56.2181 12.1586C56.213 12.3497 56.2079 12.5409 56.2028 12.7371C56.1875 13.3462 56.1747 13.9578 56.1645 14.5669C56.1544 14.9797 56.1442 15.3951 56.134 15.808C56.1085 16.8222 56.0881 17.8365 56.0677 18.8508H50.4612V4.8421H55.558C55.6421 5.26259 55.7262 5.68308 55.8129 6.11631C55.9913 5.95831 56.1696 5.80031 56.3531 5.63721C58.188 4.28145 60.8664 3.97819 62.8669 5.17595Z" fill="#464646"/>
<path d="M103.466 4.8418H112.13C111.486 12.5227 109.274 19.3703 105.347 25.9937C105.257 26.144 105.168 26.2918 105.079 26.4473C104.901 26.7404 104.717 27.0309 104.526 27.3189C104.32 27.6298 104.127 27.9696 103.945 28.3382C103.578 28.9677 103.282 29.3729 102.701 29.8163C101.514 30.0661 100.372 30.01 99.1641 29.9437C98.843 29.9335 98.5219 29.9259 98.1906 29.9157C97.4006 29.8928 96.6106 29.8571 95.8206 29.8163C95.9429 29.5742 96.0678 29.3347 96.1952 29.0849C100.219 21.1746 102.446 13.6542 103.466 4.8418Z" fill="#464646"/>
<path d="M0 0H5.35168C5.43578 1.93425 5.51988 3.8685 5.60652 5.86137L7.13558 4.842C8.7054 4.31957 10.4842 4.39602 12.0082 5.05352C13.4225 5.93017 14.4164 7.31142 14.9108 8.88889C15.5046 11.4246 15.3823 13.8124 14.1284 16.134C13.2824 17.4032 12.4134 18.3308 10.9582 18.8583C9.33486 19.0775 7.67074 19.2788 6.25382 18.3384C6.03976 18.1728 5.82569 18.0097 5.60652 17.8389C5.52243 18.0912 5.43833 18.3435 5.35168 18.6035H0V0ZM6.14679 9.09531C5.25739 10.0637 5.27778 10.8996 5.29307 12.2069C5.38736 13.0938 5.69827 13.7411 6.11621 14.526C6.89348 14.9134 7.55352 14.842 8.40979 14.7808C9.07747 14.3145 9.16667 14.0392 9.42915 13.2518C9.46483 12.7548 9.48522 12.2528 9.49286 11.7533C9.50051 11.4908 9.50561 11.2283 9.51325 10.9582C9.41641 10.079 9.20489 9.61264 8.66463 8.91692C7.59684 8.58053 7.12283 8.51937 6.14679 9.09276V9.09531Z" fill="#464646"/>
<path d="M33.1294 4.84201H38.7359C39.1793 6.02448 39.6024 7.16107 39.9643 8.36138C40.0424 8.61962 40.1214 8.88041 40.2013 9.14374C40.2811 9.40708 40.361 9.67212 40.4408 9.93885C40.5224 10.209 40.6039 10.4791 40.688 10.7569C40.8868 11.4169 41.0856 12.0795 41.2843 12.7421C41.9393 11.0678 42.4719 9.36801 42.9892 7.64527C43.0708 7.37514 43.1523 7.10501 43.2364 6.82723C43.4352 6.16719 43.634 5.5046 43.8328 4.84201H49.4393C48.865 6.75503 48.4318 8.09549 48.1396 8.86342C48.041 9.12166 47.9425 9.38245 47.844 9.64578C47.7395 9.91592 47.6375 10.186 47.5305 10.4638C47.4209 10.7492 47.3114 11.0347 47.1992 11.3303C46.9699 11.9317 46.7405 12.5306 46.5086 13.1295C46.1569 14.0444 45.8103 14.9592 45.4637 15.8741C45.2395 16.4603 45.0152 17.0464 44.791 17.63C44.689 17.9001 44.5871 18.1728 44.4801 18.4531C43.7053 20.4562 42.9128 22.5051 41.0295 23.6978C39.7578 24.2278 38.6544 24.2788 37.3037 24.2559C37.1126 24.2559 36.9214 24.2559 36.7252 24.2559C35.8103 24.2482 35.0433 24.1769 34.1513 23.9526C33.9831 22.607 33.8149 21.2615 33.6416 19.8751C34.396 19.9592 35.1503 20.0408 35.9072 20.1249C36.7405 20.13 37.2349 19.9924 37.9739 19.6203L38.2288 19.3655C38.1396 17.6096 37.7165 16.2284 37.0183 14.6254C36.9231 14.4011 36.828 14.1743 36.7329 13.945C36.4321 13.234 36.1289 12.5255 35.8231 11.817C35.5198 11.106 35.2191 10.395 34.9184 9.68146C34.7324 9.24058 34.5438 8.79971 34.3552 8.35883C34.2685 8.15751 34.1844 7.95618 34.0952 7.74721C34.0213 7.57137 33.9449 7.39808 33.8684 7.21714C33.5754 6.43987 33.3639 5.63457 33.1345 4.83691L33.1294 4.84201Z" fill="#464646"/>
<path d="M29.6688 5.57535C31.3584 6.7986 32.1739 8.44233 32.6632 10.4326C32.7422 11.3577 32.7269 12.2904 32.7269 13.2206H22.2784C22.676 14.2264 23.1857 14.906 23.8075 15.2593C24.7147 15.3749 25.5557 15.2475 26.3304 14.8771C27.0261 14.3801 27.4517 14.4107 28.2978 14.4311C28.5654 14.4388 28.833 14.4439 29.1082 14.4515C30.2346 14.5127 31.3482 14.6171 32.4721 14.7497C32.1357 15.4224 31.7993 16.0952 31.4527 16.7884C31.2845 16.7884 31.626 16.7884 31.4527 16.7884C31.2183 17.0738 31.1826 17.0356 30.9634 17.2012C30.4538 17.5835 30.39 17.609 29.9441 17.8384C29.5414 18.0473 29.0903 18.2563 28.6801 18.4678C26.3635 19.5178 23.1857 19.426 20.8054 18.5825C18.8992 17.6854 17.6658 16.4393 16.8656 14.477C16.2871 12.0483 16.5266 9.9357 17.755 7.76445C20.2805 4.0412 25.8819 3.399 29.6714 5.57281L29.6688 5.57535ZM22.5333 9.39798C22.4492 9.73438 22.3651 10.0708 22.2784 10.4174H27.1204C26.9488 9.46594 26.5241 8.70142 25.8462 8.12377C24.2382 7.89442 23.5501 8.03968 22.5333 9.39798Z" fill="#464646"/>
<path d="M89.6816 5.98115C91.7024 8.00714 91.3253 11.3303 91.3762 13.9832C91.3864 14.5184 91.3992 15.0561 91.4119 15.5912C91.4247 16.0729 91.4323 16.5545 91.4425 17.0387C91.4782 17.6937 91.5495 18.2365 91.7407 18.8583C90.864 18.8965 89.9899 18.9169 89.1132 18.9373C88.8635 18.9475 88.6163 18.9577 88.3589 18.9704C87.6785 18.9832 87.0592 18.9832 86.389 18.8583C86.0203 18.4302 85.7655 18.0054 85.6245 17.5841C85.4894 17.6733 85.3543 17.7625 85.2142 17.8542C85.0341 17.9698 84.8523 18.087 84.6688 18.2059C84.4904 18.3206 84.3146 18.4353 84.1311 18.5551C82.6683 19.3705 80.7748 19.3451 79.1719 18.9781C77.969 18.5576 76.8579 17.9893 76.1673 16.8731C75.6194 15.5173 75.7493 13.9781 76.2896 12.6478C77.9945 10.9429 80.2983 10.4332 82.5969 9.98727C82.8654 9.9329 83.1364 9.87768 83.4099 9.82162C84.0623 9.6891 84.7147 9.55913 85.3696 9.43171C85.3237 9.09532 85.2388 8.75553 85.1148 8.41234C82.9945 7.70643 80.5582 8.2314 78.4889 8.92203V5.35424C81.4986 3.84812 86.9649 3.89399 89.679 5.9837L89.6816 5.98115ZM83.4609 12.9485C83.1635 13.0335 82.8637 13.1201 82.5613 13.2085C82.0125 13.3699 81.5903 13.7241 81.2947 14.2712C81.3864 15.0255 81.5113 15.2523 82.0592 15.8002C83.3283 15.92 84.1005 15.8206 85.1173 15.0357C85.7366 14.1081 85.6678 13.5805 85.627 12.4873C84.8599 12.4873 84.1948 12.7319 83.4609 12.9485Z" fill="#464646"/>
<path d="M120.54 4.8418H126.656C126.656 6.81682 126.649 8.49368 126.274 10.3846C126.23 10.6089 126.186 10.8357 126.142 11.065C125.27 15.2215 123.874 19.2659 121.802 22.9764C121.549 23.4682 121.358 23.96 121.167 24.4774C120.754 25.5018 120.357 26.2562 119.521 27.013C117.793 27.51 115.945 27.3953 114.169 27.2679C114.23 27.1354 114.292 27.0054 114.355 26.8678C117.673 19.7195 119.554 12.6425 120.54 4.8418Z" fill="#464646"/>
</g>
<defs>
<clipPath id="clip0_9_1409">
<rect width="126.656" height="30" fill="white"/>
</clipPath>
</defs>
</svg>
