<svg width="77" height="81" viewBox="0 0 77 81" fill="none" xmlns="http://www.w3.org/2000/svg">
<g clip-path="url(#clip0_45_309)">
<path d="M71.6343 22.5538C71.6343 29.6709 71.6331 36.7867 71.6407 43.9038C71.6407 44.1868 71.5934 44.2803 71.2835 44.2739C70.2949 44.2495 69.3051 44.2521 68.3153 44.2726C68.0246 44.279 67.9759 44.1906 67.9759 43.9204C67.9836 32.6891 67.9823 21.4577 67.9823 10.2263C67.9823 8.46178 67.9798 6.69595 67.9849 4.93141C67.9849 4.74957 67.981 4.63817 67.7377 4.67146C64.7721 5.06842 61.8666 5.73301 59.0111 6.61528C53.5932 8.28891 48.5109 10.663 43.8472 13.9065C41.0608 15.8452 38.5113 18.0554 36.2205 20.5613C36.0707 20.7252 35.9977 20.7368 35.8415 20.5652C31.4467 15.7492 26.1992 12.1176 20.3063 9.38503C16.3418 7.54621 12.2122 6.19783 7.94039 5.28483C6.74823 5.03001 5.54327 4.83537 4.33318 4.67402C4.16416 4.65097 4.07452 4.67402 4.10269 4.86994C4.11294 4.94677 4.10397 5.02744 4.10397 5.10556C4.10397 18.0234 4.10269 30.9412 4.11294 43.859C4.11294 44.197 4.03739 44.2854 3.69805 44.2751C2.78761 44.2483 1.87716 44.2547 0.966718 44.2726C0.691408 44.2777 0.612016 44.2137 0.613296 43.9268C0.624821 41.2403 0.62098 38.5525 0.62098 35.866V1.29347C0.62098 0.832487 0.620979 0.835048 1.08709 0.864499C7.72142 1.28067 14.0932 2.82881 20.2384 5.33221C24.8355 7.2056 29.1034 9.65522 32.9923 12.7528C33.9681 13.53 34.9169 14.3393 35.8107 15.2101C35.9644 15.3599 36.054 15.3983 36.2346 15.228C41.8509 9.95998 48.4327 6.34765 55.6997 3.91468C58.883 2.84929 62.1355 2.0541 65.4456 1.50219C67.4266 1.17182 69.4191 0.937489 71.4269 0.835048C71.5959 0.826084 71.6523 0.872183 71.6343 1.03481C71.6267 1.11292 71.6331 1.19231 71.6331 1.27042V22.5525L71.6343 22.5538Z" fill="#464646"/>
<path d="M10.5065 32.0468C10.5065 28.09 10.5104 24.1319 10.4976 20.1751C10.4976 19.8717 10.5885 19.8025 10.8651 19.7936C12.353 19.7449 13.8282 19.8704 15.2918 20.1162C18.2523 20.6144 21.0426 21.5952 23.6087 23.1715C27.6026 25.6237 30.407 29.0952 32.297 33.3452C33.2663 35.5272 33.9527 37.7988 34.3958 40.1435C34.4534 40.4457 34.5545 40.5596 34.8862 40.5468C35.6942 40.5148 36.5048 40.5314 37.314 40.5404C37.5151 40.543 37.5996 40.5007 37.6431 40.2779C38.3974 36.4505 39.6638 32.8202 41.8535 29.5587C45.0138 24.8529 49.4021 21.9 54.8699 20.5158C56.9328 19.9933 59.0328 19.7449 61.1661 19.7884C61.5208 19.7948 61.5913 19.9126 61.5913 20.2481C61.581 28.1297 61.581 36.01 61.5913 43.8915C61.5913 44.1963 61.5183 44.2795 61.2122 44.2718C60.257 44.2501 59.3004 44.2513 58.3452 44.2718C58.0647 44.2782 57.9994 44.2065 57.9994 43.9261C58.0084 37.293 58.0058 30.66 58.0097 24.0269C58.0097 23.7555 58.0122 23.6223 57.6447 23.6658C54.2232 24.0705 51.1999 25.3856 48.5851 27.6162C45.4901 30.2579 43.7038 33.6884 42.6922 37.5709C42.1454 39.6735 41.8842 41.8171 41.7702 43.9799C41.7574 44.2142 41.6947 44.2705 41.4642 44.2693C37.9671 44.2616 34.4713 44.2616 30.9742 44.2693C30.7489 44.2693 30.6759 44.2244 30.6631 43.985C30.5286 41.4163 30.179 38.8821 29.4043 36.4197C28.3261 32.9931 26.5744 29.9941 23.8136 27.6405C21.6431 25.7902 19.15 24.5839 16.3738 23.9539C15.7515 23.8131 15.1228 23.7094 14.4851 23.6543C14.2968 23.6377 14.2367 23.6863 14.2533 23.863C14.261 23.9411 14.2533 24.0205 14.2533 24.0986V43.8288C14.2533 44.1182 14.1035 44.2629 13.8038 44.2629C12.8038 44.2629 11.8024 44.2513 10.8023 44.2705C10.5373 44.2757 10.4976 44.1912 10.4976 43.9517C10.5052 39.9834 10.5027 36.0151 10.5027 32.0455L10.5065 32.0468Z" fill="#464646"/>
<path d="M7.44726 53.5076C5.28959 53.5076 3.13193 53.4999 0.975547 53.5165C0.664383 53.5191 0.610602 53.4269 0.614443 53.1414C0.63109 51.9057 0.628529 50.67 0.617004 49.433C0.614443 49.1999 0.670786 49.127 0.912802 49.127C5.27295 49.1334 9.63181 49.1334 13.992 49.127C14.1943 49.127 14.2647 49.1743 14.2634 49.3869C14.2545 50.6789 14.2481 51.971 14.2647 53.263C14.2685 53.5396 14.1251 53.5076 13.9535 53.5076C11.7844 53.5076 9.61644 53.5076 7.44726 53.5076Z" fill="#464646"/>
<path d="M64.8207 53.5076C62.6515 53.5076 60.4823 53.5025 58.3118 53.514C58.0634 53.514 57.9956 53.4615 57.9981 53.2054C58.0135 51.9466 58.0109 50.6879 57.9994 49.4292C57.9968 49.1999 58.0519 49.127 58.2939 49.127C62.6451 49.1346 66.995 49.1346 71.3449 49.127C71.5856 49.127 71.642 49.1974 71.6394 49.4279C71.6292 50.6981 71.6292 51.9684 71.6394 53.2387C71.642 53.4615 71.5792 53.514 71.3615 53.5127C69.1808 53.5037 67.0001 53.5076 64.8194 53.5076H64.8207Z" fill="#464646"/>
<path d="M36.2216 53.5069C34.4814 53.5069 32.7399 53.5005 30.9984 53.5133C30.7269 53.5159 30.6718 53.4352 30.6744 53.1804C30.6872 51.9229 30.6872 50.6642 30.6744 49.4067C30.6718 49.1813 30.7371 49.1263 30.9561 49.1263C34.4609 49.1327 37.9644 49.134 41.4691 49.125C41.7201 49.125 41.7585 49.2108 41.7572 49.4323C41.7483 50.7013 41.747 51.9716 41.7585 53.2406C41.7611 53.4698 41.6868 53.512 41.4768 53.512C39.7251 53.5044 37.972 53.5082 36.2203 53.5082L36.2216 53.5069Z" fill="#464646"/>
<path d="M4.44327 68.6404C4.60077 67.9566 4.75828 67.2741 4.91578 66.5903C5.13987 65.6223 5.36908 64.6542 5.58165 63.6836C5.61622 63.5286 5.67 63.4812 5.8211 63.4825C6.57404 63.4876 7.32698 63.4889 8.08121 63.4825C8.24895 63.4812 8.28609 63.544 8.28481 63.6989C8.28097 65.9693 8.27969 68.2409 8.28609 70.5113C8.28609 70.7008 8.2131 70.7366 8.04919 70.7328C7.67913 70.7251 7.3065 70.7149 6.93643 70.7353C6.70978 70.7469 6.6624 70.6688 6.66368 70.4549C6.67264 68.7121 6.6688 66.9694 6.6688 65.2279V65.0601C6.65215 65.0563 6.63423 65.0524 6.61758 65.0473C6.47801 65.5723 6.33715 66.0961 6.20141 66.6211C5.8672 67.9067 5.52658 69.191 5.20774 70.4805C5.15908 70.6764 5.08609 70.7405 4.89785 70.7341C4.59437 70.7238 4.28961 70.72 3.98741 70.7341C3.77484 70.7443 3.68009 70.6828 3.62374 70.4562C3.18965 68.7352 2.73635 67.0206 2.29201 65.3021C2.27024 65.2151 2.25616 65.1305 2.1614 65.0217V66.073C2.1614 67.5238 2.15372 68.9734 2.1678 70.4229C2.17036 70.6816 2.09865 70.7494 1.85151 70.7341C1.52755 70.7123 1.19845 70.711 0.874484 70.7341C0.613259 70.7533 0.560758 70.656 0.562039 70.4114C0.572283 68.433 0.5646 66.4546 0.571002 64.4762C0.571002 64.1548 0.427585 63.7271 0.635028 63.5427C0.8143 63.3839 1.23303 63.4902 1.54547 63.4864C2.00646 63.4825 2.46872 63.503 2.92715 63.4774C3.15764 63.4646 3.23191 63.5491 3.27801 63.754C3.61734 65.2688 3.96564 66.7811 4.31138 68.2947C4.33571 68.4035 4.36516 68.5111 4.39205 68.6199C4.4087 68.6263 4.42662 68.6327 4.44327 68.6404Z" fill="#464646"/>
<path d="M33.1241 65.0001V67.3485C33.1241 68.3832 33.1177 69.4178 33.1293 70.4512C33.1318 70.6651 33.0806 70.747 32.8552 70.7355C32.5185 70.7176 32.1804 70.7137 31.8436 70.7355C31.5939 70.7509 31.5158 70.6779 31.5197 70.4205C31.535 69.3858 31.5261 68.3525 31.5261 67.3178C31.5261 66.1487 31.5338 64.9796 31.5197 63.8105C31.5171 63.5441 31.5952 63.4711 31.8577 63.4814C32.4301 63.5019 33.0051 63.5044 33.5774 63.4814C33.8246 63.4711 33.927 63.5736 34.0269 63.7733C34.7261 65.1717 35.4342 66.5649 36.141 67.9593C36.1859 68.0464 36.2345 68.1309 36.3434 68.2103V67.9337C36.3434 66.5508 36.3485 65.1678 36.337 63.7862C36.3357 63.5569 36.3818 63.4699 36.6276 63.4852C36.9862 63.507 37.3473 63.498 37.7058 63.4865C37.8774 63.4814 37.9427 63.5288 37.9427 63.7093C37.9376 65.9797 37.9376 68.2513 37.9427 70.5216C37.9427 70.6817 37.8864 70.738 37.7276 70.7355C37.2781 70.7291 36.8287 70.7252 36.3792 70.7368C36.1794 70.7419 36.1449 70.5972 36.0796 70.4717C35.1704 68.7392 34.2638 67.0054 33.3546 65.2728C33.3034 65.1755 33.2471 65.0807 33.1933 64.9847C33.1702 64.9911 33.1472 64.9975 33.1241 65.0039V65.0001Z" fill="#464646"/>
<path d="M54.5022 66.2398C54.5022 66.9582 54.5022 67.6778 54.5022 68.3962C54.4996 69.6447 53.9131 70.4079 52.6966 70.7165C51.8502 70.9316 51.0076 70.9098 50.1958 70.5679C49.2982 70.1902 48.8423 69.4936 48.8359 68.5255C48.8256 66.9415 48.8385 65.3575 48.8269 63.7736C48.8256 63.5379 48.882 63.4649 49.1214 63.479C49.4685 63.5008 49.818 63.5021 50.1651 63.479C50.4135 63.4624 50.4557 63.5559 50.4545 63.7825C50.4455 65.2538 50.4506 66.7251 50.4519 68.1977C50.4519 68.2874 50.4493 68.3783 50.457 68.4666C50.5595 69.6985 51.5416 69.7984 52.2997 69.4962C52.7683 69.3092 52.8721 68.8546 52.8772 68.4052C52.8938 66.889 52.9002 65.3729 52.8849 63.8568C52.881 63.5354 52.9796 63.4573 53.2767 63.4803C53.6007 63.5059 53.9285 63.5021 54.2537 63.4803C54.474 63.4662 54.5098 63.5482 54.5073 63.7454C54.497 64.5764 54.5022 65.4075 54.5022 66.2385V66.2398Z" fill="#464646"/>
<path d="M57.6036 76.0025C57.6036 77.3803 57.5959 78.6608 57.61 79.9414C57.6126 80.2 57.5549 80.3025 57.2822 80.2743C57.0376 80.2487 56.7879 80.2576 56.5408 80.273C56.3564 80.2845 56.3154 80.2128 56.3167 80.0425C56.3218 78.2101 56.3231 76.379 56.3167 74.5466C56.3167 74.3634 56.3756 74.3212 56.5459 74.3263C56.9838 74.3378 57.4666 74.2188 57.8482 74.3673C58.2349 74.5171 58.3668 75.0357 58.6101 75.393C59.1159 76.1331 59.5986 76.8886 60.0916 77.6364C60.139 77.7081 60.1672 77.7965 60.2978 77.8541V77.0128C60.2978 76.2035 60.3055 75.3943 60.2927 74.585C60.2901 74.3763 60.3439 74.3122 60.5526 74.3263C60.8318 74.3455 61.1148 74.3378 61.3952 74.3276C61.5412 74.3225 61.5873 74.3686 61.586 74.5158C61.5809 76.37 61.5821 78.2255 61.586 80.0797C61.586 80.2218 61.5476 80.2807 61.3965 80.2743C61.1276 80.264 60.8561 80.2589 60.5872 80.2743C60.3964 80.2845 60.3439 80.1488 60.2645 80.0297C59.4514 78.7953 58.6382 77.5596 57.8238 76.3252C57.7701 76.2432 57.7137 76.1638 57.6036 76.0038V76.0025Z" fill="#464646"/>
<path d="M29.4273 76.1071C29.4273 77.3633 29.4158 78.6195 29.435 79.8744C29.4401 80.1984 29.3556 80.3187 29.0278 80.2713C28.7435 80.2304 28.3722 80.393 28.1891 80.2022C28.0226 80.028 28.1417 79.6669 28.1404 79.3878C28.1366 77.8025 28.1455 76.2185 28.1314 74.6332C28.1289 74.372 28.2057 74.308 28.4529 74.3221C28.878 74.3464 29.3723 74.2094 29.7103 74.3848C30.033 74.5513 30.1969 75.0302 30.4248 75.3747C30.9678 76.1942 31.5069 77.015 32.0588 77.8524C32.1369 77.7462 32.1049 77.6437 32.1049 77.5528C32.1074 76.5643 32.1126 75.5744 32.101 74.5859C32.0985 74.3746 32.1599 74.3106 32.3648 74.3246C32.6337 74.3413 32.9052 74.34 33.1741 74.3246C33.3585 74.3144 33.3956 74.3861 33.3944 74.5551C33.3892 76.376 33.3867 78.1969 33.3956 80.0178C33.3956 80.2355 33.3226 80.2739 33.1242 80.2752C32.2521 80.2803 32.2534 80.2854 31.7771 79.5594C31.0523 78.4543 30.325 77.3492 29.5989 76.2454C29.5631 76.1916 29.5259 76.1391 29.4888 76.0853C29.467 76.093 29.4453 76.1007 29.4222 76.1084L29.4273 76.1071Z" fill="#464646"/>
<path d="M26.0379 67.7322C26.0379 68.6311 26.0302 69.5301 26.043 70.429C26.0456 70.6531 26.0071 70.7517 25.7549 70.735C25.4194 70.712 25.0801 70.712 24.7446 70.735C24.4833 70.7529 24.4283 70.6569 24.4296 70.4111C24.4398 68.6247 24.4296 66.8371 24.4411 65.0508C24.4424 64.7819 24.3847 64.6808 24.0941 64.6961C23.5895 64.723 23.0825 64.6961 22.5779 64.7077C22.3884 64.7128 22.3154 64.659 22.3321 64.4644C22.3577 64.1532 22.2066 63.7498 22.3884 63.5526C22.5741 63.3503 22.9826 63.4912 23.2912 63.4899C24.8086 63.4835 26.326 63.4924 27.8421 63.4809C28.0803 63.4796 28.1571 63.5398 28.1366 63.7767C28.1162 64.0111 28.1213 64.2492 28.1366 64.4836C28.1482 64.6641 28.0841 64.7115 27.91 64.7077C27.3824 64.6974 26.8536 64.7166 26.326 64.6974C26.0801 64.6884 26.0289 64.773 26.0328 65.0022C26.0456 65.9126 26.0379 66.8231 26.0379 67.7322Z" fill="#464646"/>
<path d="M28.7935 67.0911C28.7935 65.9899 28.8024 64.8874 28.7858 63.7861C28.7819 63.5236 28.8588 63.4635 29.1046 63.4801C29.4516 63.5019 29.8012 63.4942 30.1495 63.4827C30.3262 63.4763 30.4082 63.5083 30.4082 63.7157C30.4018 65.9745 30.4018 68.2346 30.4082 70.4935C30.4082 70.6996 30.3262 70.7368 30.1495 70.7316C29.7782 70.7227 29.4068 70.7124 29.0368 70.7342C28.8088 70.747 28.7871 70.6523 28.7883 70.4627C28.796 69.3384 28.7922 68.2142 28.7922 67.0911H28.7935Z" fill="#464646"/>
<path d="M62.6783 67.0915C62.6783 66.0017 62.6898 64.912 62.6706 63.8236C62.6655 63.5342 62.7551 63.4612 63.0279 63.4804C63.3634 63.5035 63.7014 63.4958 64.0382 63.4817C64.2213 63.474 64.2905 63.5163 64.2905 63.7173C64.2841 65.9749 64.2841 68.2324 64.2905 70.4899C64.2905 70.682 64.2367 70.7396 64.0459 70.7332C63.6758 70.7192 63.3045 70.7192 62.9344 70.7332C62.7206 70.7422 62.6732 70.6602 62.6745 70.4605C62.6834 69.3375 62.6783 68.2145 62.6783 67.0915Z" fill="#464646"/>
<path d="M10.5063 77.2848C10.5063 76.3858 10.5114 75.4869 10.5012 74.588C10.4986 74.3883 10.5383 74.305 10.7573 74.3229C11.0031 74.3434 11.2528 74.3486 11.4974 74.3229C11.7727 74.2922 11.7996 74.4177 11.7983 74.6482C11.7894 76.0644 11.7983 77.4794 11.7881 78.8957C11.7868 79.13 11.8227 79.2222 12.0916 79.2145C12.8996 79.1927 13.7089 79.2119 14.5181 79.203C14.6974 79.2017 14.7678 79.2337 14.7717 79.436C14.7883 80.2696 14.796 80.2696 13.9726 80.2696C12.9162 80.2696 11.8598 80.2632 10.8034 80.2748C10.5742 80.2773 10.496 80.2274 10.4999 79.9828C10.5153 79.0839 10.5063 78.185 10.5063 77.2861V77.2848Z" fill="#464646"/>
<path fill-rule="evenodd" clip-rule="evenodd" d="M21.4931 70.7276C21.634 70.7276 21.7736 70.7276 21.9157 70.7276C21.9259 70.6111 21.8811 70.5317 21.8389 70.4549C21.8273 70.4344 21.8158 70.4139 21.8056 70.3921C21.7134 70.2026 21.6225 70.0131 21.5303 69.8236C21.1896 69.118 20.849 68.4137 20.5007 67.712C20.4021 67.5135 20.388 67.4226 20.6301 67.2997C21.2383 66.9898 21.6596 66.5006 21.7159 65.7887C21.8043 64.6554 20.9873 63.695 19.8105 63.5503C19.0397 63.4569 18.2675 63.4684 17.4941 63.4812C17.0433 63.4889 16.5926 63.4953 16.1431 63.4812C15.9767 63.4761 15.978 63.5657 15.978 63.672C15.978 63.6797 15.978 63.6874 15.978 63.695C15.978 64.0421 15.978 64.3878 15.978 64.7348C15.978 66.6569 15.9805 68.5789 15.9741 70.501C15.9741 70.7084 16.0535 70.7353 16.2289 70.7302C16.599 70.7187 16.9704 70.7161 17.3404 70.7315C17.5453 70.7404 17.6055 70.6802 17.6017 70.4702C17.5952 70.0848 17.5965 69.6994 17.5965 69.3139C17.5965 68.8798 17.5978 68.4457 17.5888 68.0117C17.5837 67.7684 17.658 67.7043 17.8885 67.7235C18.1228 67.744 18.361 67.7415 18.5953 67.7235C18.7784 67.7107 18.8681 67.7735 18.9462 67.9412C19.2881 68.6724 19.6402 69.3984 19.9936 70.1245C20.0513 70.2423 20.1076 70.3588 20.164 70.4766C20.1729 70.4946 20.1806 70.5138 20.1896 70.533C20.2318 70.6329 20.2741 70.7315 20.4316 70.7289C20.785 70.7225 21.1371 70.7238 21.4931 70.7251V70.7276ZM17.594 65.3277C17.6042 65.4263 17.6157 65.5249 17.6157 65.6132C17.6093 65.6132 17.6029 65.6132 17.5978 65.6132C17.5978 65.6786 17.5978 65.7451 17.5978 65.8104C17.5978 65.9808 17.5978 66.1498 17.5991 66.3201C17.5991 66.3329 17.5991 66.3457 17.5991 66.3598C17.5952 66.4341 17.5914 66.5147 17.7156 66.5109C17.8706 66.507 18.0255 66.5096 18.1817 66.5109C18.6312 66.5173 19.0806 66.525 19.5199 66.3841C19.8963 66.2625 20.0871 66.0153 20.0961 65.6517C20.1063 65.2406 19.9271 64.9666 19.5416 64.8296C19.21 64.7118 18.8617 64.6887 18.5147 64.7028C18.4199 64.7066 18.3162 64.6951 18.2125 64.6836C17.9871 64.658 17.7643 64.6337 17.649 64.7668C17.5492 64.8821 17.5735 65.1036 17.5978 65.3264L17.594 65.3277Z" fill="#464646"/>
<path fill-rule="evenodd" clip-rule="evenodd" d="M55.5803 66.2229C55.5803 66.5148 55.5803 66.8055 55.5803 67.0975C55.5803 67.3894 55.5803 67.6762 55.5803 67.9669C55.5803 68.8005 55.5829 69.6329 55.5752 70.4665C55.5739 70.6701 55.6239 70.7392 55.8339 70.7354C56.2193 70.7277 56.6048 70.7251 56.9915 70.7239C57.5267 70.72 58.0607 70.7175 58.5947 70.7008C59.2208 70.6803 59.8009 70.478 60.317 70.1169C61.1877 69.5099 61.5847 68.6315 61.6833 67.6097C61.8689 65.694 61.1224 64.0076 58.8367 63.6068C58.1567 63.4877 57.4742 63.489 56.7917 63.4903C56.478 63.4903 56.163 63.4915 55.8492 63.48C55.6188 63.4723 55.5739 63.5504 55.5752 63.763C55.5829 64.5825 55.5816 65.4033 55.5803 66.2229ZM57.1976 66.502C57.1976 66.6966 57.1976 66.89 57.1976 67.0846C57.1976 67.2217 57.1976 67.3587 57.1964 67.497C57.1951 67.8197 57.1938 68.1423 57.2002 68.465C57.2028 68.5713 57.1887 68.6904 57.1759 68.8082C57.1451 69.0746 57.1157 69.3396 57.2642 69.4626C57.4396 69.6073 57.7521 69.565 58.0505 69.5227C58.1388 69.5112 58.2259 69.4984 58.3078 69.492C59.0454 69.4305 59.5615 69.063 59.8329 68.369C60.1018 67.6814 60.1249 66.963 59.9981 66.2536C59.8419 65.3803 59.2836 64.8847 58.4551 64.7631C58.2054 64.7259 57.9557 64.717 57.706 64.708C57.6202 64.7055 57.5357 64.7016 57.4499 64.6978C57.2335 64.6875 57.1912 64.7644 57.1938 64.9641C57.2028 65.4763 57.2002 65.9898 57.1989 66.502H57.1976Z" fill="#464646"/>
<path fill-rule="evenodd" clip-rule="evenodd" d="M70.588 70.1984C71.5599 69.4173 71.8902 68.3353 71.912 67.1341C71.9338 66.6335 71.8544 66.1481 71.6956 65.6782C71.2846 64.4592 70.4906 63.6294 69.1909 63.4335C67.9667 63.2478 66.8335 63.5141 66.0767 64.5718C65.0561 65.997 65.0036 67.5567 65.7361 69.1164C66.6888 71.1473 69.2703 71.2548 70.588 70.1984ZM67.2548 65.4221C67.0051 65.9586 66.9257 66.5323 66.909 67.1418C66.9334 67.6912 66.9987 68.2559 67.2471 68.7822C67.516 69.3545 67.9335 69.7028 68.5993 69.7041C69.2524 69.7041 69.689 69.3674 69.931 68.8039C70.4138 67.6809 70.4087 66.5387 69.9285 65.4157C69.6839 64.8446 69.2255 64.5129 68.5904 64.5155C67.9565 64.5181 67.5186 64.8574 67.2548 65.4234V65.4221Z" fill="#464646"/>
<path fill-rule="evenodd" clip-rule="evenodd" d="M46.5312 69.9784C46.6771 70.4778 47.0105 70.7279 47.5312 70.7287C47.5889 70.7287 47.6465 70.7287 47.7028 70.7287C47.8475 70.7287 47.9922 70.7275 48.1382 70.73H48.1433C48.297 70.7326 48.3866 70.7351 48.3149 70.5123C47.5825 68.2407 46.8602 65.9652 46.1457 63.6885C46.0945 63.5233 46.0228 63.4798 45.864 63.4823C45.3019 63.49 44.7397 63.4951 44.1776 63.4798C43.9727 63.4746 43.8933 63.54 43.8331 63.7346C43.3644 65.2533 42.8894 66.7707 42.4143 68.2881C42.2158 68.9207 42.0186 69.5532 41.8214 70.1871C41.6524 70.7287 41.6562 70.7364 42.2325 70.7275C42.3388 70.7262 42.4514 70.7377 42.5654 70.7505C42.8215 70.7787 43.0776 70.8056 43.2518 70.6737C43.4246 70.5418 43.4695 70.2857 43.5143 70.0309C43.5335 69.9233 43.5527 69.8145 43.5809 69.7159C43.6961 69.3202 43.7537 69.1217 43.8869 69.0205C44.0214 68.9181 44.2339 68.9181 44.6616 68.9181C44.7115 68.9181 44.7602 68.9181 44.8101 68.9181C44.9177 68.9168 45.0266 68.9155 45.1341 68.9207C45.2506 68.9258 45.3761 68.9117 45.5016 68.8989C45.7616 68.8707 46.019 68.8426 46.179 68.9834C46.3429 69.1281 46.3993 69.3983 46.4556 69.6659C46.4774 69.7709 46.4991 69.8746 46.5273 69.9707L46.5299 69.9809L46.5312 69.9784ZM45.2212 65.3583C45.1597 65.1432 45.0957 64.9229 45.0317 64.6975C45.0125 64.7488 44.9945 64.7897 44.9805 64.8256C44.9548 64.8883 44.9356 64.9331 44.9228 64.9792C44.6975 65.7719 44.4747 66.5645 44.2531 67.3572C44.1328 67.7887 44.134 67.79 44.6027 67.7887C44.6424 67.7887 44.6821 67.7887 44.7205 67.79C44.805 67.7912 44.8883 67.7925 44.9728 67.7874C45.0714 67.7797 45.1815 67.7925 45.2916 67.8053C45.5106 67.8297 45.7244 67.8553 45.8282 67.7183C45.9255 67.5915 45.8384 67.3789 45.7526 67.1676C45.7155 67.0767 45.6783 66.9858 45.6553 66.9026C45.5196 66.3929 45.3736 65.8859 45.2212 65.3557V65.3583Z" fill="#464646"/>
<path fill-rule="evenodd" clip-rule="evenodd" d="M12.536 63.4666C12.4195 63.4807 12.3068 63.4935 12.2108 63.4846C12.166 63.4846 12.1276 63.4846 12.0955 63.4846C12.0366 63.4846 11.9931 63.4846 11.9508 63.4846C11.8586 63.4858 11.7613 63.4794 11.664 63.4718C11.4399 63.4551 11.2158 63.4372 11.0609 63.5332C10.9047 63.6293 10.8624 63.8546 10.8189 64.0787C10.8009 64.1735 10.783 64.2682 10.7561 64.3528C10.4309 65.3861 10.1082 66.4182 9.78421 67.4516C9.47177 68.4504 9.15804 69.4505 8.84432 70.4493C8.78413 70.6388 8.76877 70.7502 9.03768 70.7348C9.33988 70.7169 9.64336 70.722 9.94684 70.7284C10.0262 70.7297 10.1043 70.731 10.1837 70.7323C10.3387 70.7335 10.4193 70.69 10.4629 70.5197C10.5192 70.2982 10.5858 70.0805 10.6524 69.8615C10.719 69.6426 10.7869 69.4236 10.8432 69.2008C10.8957 68.9933 10.9777 68.9075 11.2017 68.9127C11.8202 68.9267 12.4387 68.9306 13.0559 68.9114C13.2903 68.9037 13.362 69.0061 13.4145 69.2008C13.467 69.3967 13.5246 69.5913 13.5822 69.786C13.6552 70.0305 13.7269 70.2738 13.7897 70.521C13.8319 70.6874 13.9075 70.7335 14.065 70.731C14.4363 70.7233 14.8077 70.7182 15.1777 70.7336C15.4274 70.7438 15.4799 70.6874 15.398 70.4339C14.9165 68.946 14.4427 67.4554 13.9702 65.9649C13.8127 65.4681 13.6552 64.9712 13.4964 64.4731C13.4657 64.3758 13.4426 64.2682 13.4209 64.162C13.3696 63.9161 13.3171 63.6715 13.166 63.5448C13.0085 63.4129 12.7652 63.441 12.5348 63.4679L12.536 63.4666ZM11.5206 66.8075C11.4297 67.1302 11.3388 67.458 11.2453 67.7896C11.3989 67.7896 11.5488 67.7897 11.6973 67.7884C12.0507 67.7858 12.3901 67.7845 12.7294 67.7948C12.9612 67.8025 13.0111 67.7461 12.9432 67.5195C12.7627 66.9138 12.5911 66.3043 12.4195 65.6947C12.3491 65.445 12.2787 65.1953 12.2082 64.9456C12.2044 64.9303 12.2018 64.9123 12.2005 64.8944C12.1941 64.8368 12.1877 64.7779 12.0904 64.7753C11.9022 65.4463 11.7139 66.1173 11.5219 66.8062L11.5206 66.8075Z" fill="#464646"/>
<path fill-rule="evenodd" clip-rule="evenodd" d="M37.5712 76.59C37.5712 76.8256 37.5712 77.0599 37.5712 77.2955C37.5712 77.5414 37.5712 77.786 37.5712 78.0318C37.5725 78.6862 37.5738 79.3392 37.5648 79.9936C37.5623 80.2138 37.6212 80.2817 37.844 80.274C38.1398 80.265 38.4356 80.2663 38.7314 80.2676C38.9862 80.2676 39.241 80.2689 39.4958 80.2638C39.9786 80.2535 40.4588 80.2023 40.9236 80.0589C42.1042 79.6965 42.7035 78.8975 42.7893 77.4453C42.8815 75.887 42.0838 74.6948 40.4729 74.4054C39.9325 74.3081 39.3896 74.3196 38.8466 74.3299C38.5137 74.3363 38.182 74.3427 37.8504 74.3247C37.5956 74.3107 37.5623 74.4105 37.5648 74.6308C37.5738 75.2838 37.5725 75.9369 37.5712 76.59ZM38.8581 76.8166C38.8581 76.9767 38.8556 77.1367 38.8556 77.2968V78.375C38.8556 78.8129 38.8556 79.0332 38.9657 79.1369C39.0771 79.2419 39.3012 79.2265 39.7507 79.1971C40.7008 79.1343 41.2757 78.7131 41.4486 77.914C41.5447 77.4735 41.5267 77.0253 41.4294 76.5797C41.2796 75.8882 40.8263 75.5451 40.1591 75.4209C39.9171 75.376 39.6751 75.3696 39.4318 75.3632C39.3396 75.3607 39.2461 75.3581 39.1539 75.3543C38.9247 75.3427 38.8402 75.4017 38.8492 75.6475C38.862 76.0368 38.8594 76.4273 38.8569 76.8179L38.8581 76.8166Z" fill="#464646"/>
<path fill-rule="evenodd" clip-rule="evenodd" d="M50.7529 80.0814C51.8964 79.5205 52.2626 78.5051 52.2895 77.3129C52.2895 77.2963 52.2895 77.2796 52.2882 77.2617C52.2805 76.9736 52.2741 76.6893 52.205 76.4089C51.9438 75.3333 51.3278 74.5662 50.233 74.3012C49.1189 74.0323 48.1022 74.264 47.3531 75.1873C46.7077 75.9825 46.5886 76.9224 46.7308 77.9173C47.0637 80.2338 49.279 80.8036 50.7529 80.0801V80.0814ZM50.7849 78.4936C50.9514 78.1197 51.0103 77.7227 50.9923 77.286C51.0141 77.0223 50.9782 76.7329 50.9142 76.4473C50.7478 75.72 50.2727 75.2884 49.5825 75.2283C48.9909 75.177 48.4198 75.5087 48.1919 76.0849C47.8743 76.8865 47.8717 77.7061 48.1983 78.5051C48.4287 79.0698 48.8808 79.3387 49.4929 79.3374C50.1075 79.3361 50.5365 79.0493 50.7836 78.4936H50.7849Z" fill="#464646"/>
<path fill-rule="evenodd" clip-rule="evenodd" d="M19.6864 74.7078C18.8054 75.3403 18.5275 76.2585 18.5134 77.3302C18.5173 77.3827 18.5198 77.4378 18.5224 77.4929C18.5352 77.7234 18.548 77.9769 18.612 78.2228C18.9078 79.3496 19.5903 80.1115 20.7569 80.3138C21.853 80.5034 22.8403 80.2396 23.5318 79.2945C24.1208 78.4891 24.2284 77.5607 24.0709 76.6016C23.6611 74.1021 21.0796 73.7051 19.6864 74.7065V74.7078ZM19.9694 76.1996C19.8426 76.5517 19.8055 76.9179 19.808 77.2829C19.8055 77.7182 19.8464 78.1421 20.0347 78.5326C20.2908 79.0666 20.7198 79.3407 21.319 79.3381C21.9145 79.3355 22.3588 79.082 22.5957 78.5301C22.9274 77.7554 22.9235 76.9602 22.6508 76.1727C22.442 75.5695 21.9324 75.2264 21.3203 75.2264C20.698 75.2264 20.1909 75.59 19.9707 76.1996H19.9694Z" fill="#464646"/>
<path fill-rule="evenodd" clip-rule="evenodd" d="M74.7549 0.375329C73.9571 0.358682 73.3169 0.975889 73.3054 1.77493C73.2926 2.57781 73.9059 3.22959 74.6883 3.2424C75.4899 3.25648 76.1481 2.63671 76.1583 1.85944C76.1686 1.02455 75.5719 0.393256 74.7549 0.375329ZM74.7344 3.03879C75.4285 3.03751 75.9599 2.49842 75.9573 1.80182C75.9547 1.11675 75.3977 0.557162 74.7255 0.562284C74.0455 0.567406 73.4936 1.12827 73.4962 1.81206C73.4987 2.50098 74.0442 3.04007 74.7357 3.03879H74.7344Z" fill="#464646"/>
<path fill-rule="evenodd" clip-rule="evenodd" d="M75.1442 2.4164C75.1634 2.61232 75.239 2.67762 75.4426 2.60848C75.4375 2.59823 75.4336 2.58927 75.4311 2.58287C75.4259 2.57262 75.4221 2.56622 75.4221 2.55982C75.4195 2.43817 75.3875 2.32036 75.3555 2.20127C75.294 1.97078 75.2313 1.74029 75.3798 1.48291C75.5092 1.25882 75.2723 0.977104 74.979 0.952775C74.8471 0.942531 74.714 0.943811 74.5808 0.945092C74.4784 0.946372 74.3746 0.947653 74.2722 0.943811C74.1211 0.937408 74.0788 0.998873 74.0814 1.14101C74.084 1.2729 74.0814 1.4048 74.0814 1.53797C74.0788 1.75438 74.0763 1.97078 74.0916 2.18591C74.0942 2.22688 74.0852 2.27682 74.0763 2.32804C74.0519 2.46634 74.0251 2.61488 74.2184 2.61232C74.3734 2.60976 74.3477 2.44585 74.3247 2.305C74.3183 2.26274 74.3119 2.22304 74.3106 2.18975C74.3016 1.95542 74.3657 1.88115 74.6077 1.89011C74.6218 1.89011 74.6346 1.89011 74.6487 1.89139C75.0879 1.90676 75.0968 1.90676 75.1468 2.4164H75.1442ZM74.8151 1.14101C74.7729 1.14101 74.7319 1.14101 74.6935 1.13717C74.6563 1.13973 74.6179 1.13717 74.5808 1.13717C74.4297 1.12949 74.2863 1.12308 74.308 1.40736C74.326 1.63657 74.3465 1.76718 74.6154 1.71724C74.6692 1.707 74.7293 1.707 74.7895 1.70828C74.9739 1.70828 75.1583 1.70956 75.1583 1.40864C75.1583 1.13973 74.9854 1.13973 74.8151 1.14101Z" fill="#464646"/>
</g>
<defs>
<clipPath id="clip0_45_309">
<rect width="75.6373" height="80" fill="white" transform="translate(0.520996 0.375)"/>
</clipPath>
</defs>
</svg>
