<svg width="81" height="81" viewBox="0 0 81 81" fill="none" xmlns="http://www.w3.org/2000/svg">
<g clip-path="url(#clip0_45_305)">
<path d="M40.7026 0.1875C18.6126 0.1875 0.702637 18.0974 0.702637 40.1875C0.702637 62.2776 18.6126 80.1875 40.7026 80.1875C62.7927 80.1875 80.7026 62.2776 80.7026 40.1875C80.6992 18.0974 62.7927 0.1875 40.7026 0.1875ZM40.7026 77.7406C19.9618 77.7372 3.15293 60.9216 3.15633 40.1807C3.15973 19.4398 19.9754 2.631 40.7162 2.6344C61.4537 2.6378 78.2625 19.45 78.2625 40.1875C78.2625 60.925 61.4537 77.7372 40.7162 77.7406H40.7026Z" fill="#464646"/>
<path fill-rule="evenodd" clip-rule="evenodd" d="M10.4937 54.1861H17.4979V43.0153H20.4342C20.4342 43.0153 22.9219 42.8182 23.0136 45.9958C23.1054 49.1733 23.0136 51.158 23.0136 51.158C23.0136 51.158 23.0136 54.2371 24.2133 54.2371H31.068V53.7817C31.068 53.7817 30.0655 53.6831 30.0655 49.8088V46.1929C30.0655 46.1929 30.0417 43.2634 28.9236 41.435C28.475 40.6398 27.7783 40.0111 26.9423 39.644C26.9423 39.644 30.0655 37.9074 30.0655 34.9779V31.4469C30.0655 31.4469 30.0655 24.7961 22.2218 24.7961H10.4563L10.5039 54.1861H10.4937ZM17.4979 37.2549V30.4036H20.9304C20.9304 30.4036 23.6492 30.1045 23.6492 33.8802C23.6492 37.6559 19.9108 37.2549 19.9108 37.2549H17.4979ZM45.2261 34.5735H51.6288C51.6288 34.5735 52.2745 24.1504 41.9873 24.1504C31.7001 24.1504 31.5064 37.503 31.5064 40.1232C31.5064 42.7434 32.5532 54.6687 41.8956 54.6687C53.0119 54.6687 51.8701 43.1512 51.8701 43.1512H45.5693C45.5693 43.1512 45.8106 48.9592 42.2864 48.9592C38.7622 48.9592 38.4155 42.7536 38.4155 39.1308C38.4155 35.5081 38.9117 29.9924 42.2388 29.9924C45.5659 29.9924 45.2261 34.5599 45.2261 34.5599V34.5735ZM53.8174 54.2371V24.7961H70.8097V30.356H60.6823V36.7111H69.2498V42.5191H60.6687V54.2371H53.8174Z" fill="#464646"/>
</g>
<defs>
<clipPath id="clip0_45_305">
<rect width="80" height="80" fill="white" transform="translate(0.702637 0.1875)"/>
</clipPath>
</defs>
</svg>
