<svg width="161" height="35" viewBox="0 0 161 35" fill="none" xmlns="http://www.w3.org/2000/svg">
<g clip-path="url(#clip0_9_1218)">
<path d="M31.5244 3.42577C37.3471 2.94915 44.5241 5.24287 49.1374 8.81153C49.4273 9.06374 49.7113 9.31992 49.9933 9.58206C50.1303 9.70121 50.2673 9.82036 50.4083 9.94349C52.7954 12.1379 54.0187 15.1148 54.1637 18.32C54.3245 17.8692 54.4854 17.4184 54.6482 16.9676C54.6939 16.8405 54.7396 16.7114 54.7873 16.5804C55.6511 14.1635 55.7524 11.5501 54.688 9.15906C54.2431 8.37662 53.7208 7.69744 53.1251 7.02422C52.7934 6.62704 52.5591 6.29142 52.3764 5.80885C52.4419 5.67778 52.5074 5.54671 52.575 5.41167C53.4726 5.70359 54.118 6.20603 54.821 6.81371C54.9342 6.91102 55.0494 7.01032 55.1666 7.1116C57.9309 9.53042 60.0141 12.5748 60.3736 16.3004C60.5086 20.2821 58.5982 23.7951 55.951 26.6608C53.7367 28.9704 50.9267 30.5095 47.9776 31.6772C47.6479 31.8083 47.3223 31.9473 46.9946 32.0863C41.4102 34.3164 35.3056 34.4336 29.3896 34.4416C29.1791 34.4416 28.9672 34.4416 28.7541 34.4416C25.852 34.4416 23.7304 34.3628 22.3893 34.2052V33.6095C22.5501 33.6015 22.711 33.5956 22.8778 33.5896C30.4361 33.248 38.9914 32.6681 44.4824 26.7839C45.6938 25.358 47.213 23.251 47.213 21.2989C47.1316 21.3982 47.0502 21.4955 46.9648 21.5968C43.5947 25.5606 38.7789 27.2268 33.7089 27.8523C33.1747 27.8762 32.6544 27.8682 32.1202 27.8523V27.058C32.3128 27.0163 32.5055 26.9766 32.704 26.9329C36.0801 26.1723 39.2794 24.9271 41.6525 22.2918C41.7598 22.1833 41.8683 22.0734 41.9782 21.9622C43.8946 19.9385 45.0345 17.0689 45.1159 14.2867C45.0246 12.122 44.0932 10.2235 42.5501 8.69833C39.3092 5.94985 35.5657 4.8159 31.5244 3.82295V3.42577Z" fill="#464646"/>
<path d="M30.8413 0.000129487C31.0478 0.000129487 31.2524 0.000129487 31.4649 0.000129487C33.8738 0.00608719 36.2688 0.0597065 38.6717 0.248367V0.844137C38.4791 0.852081 38.2884 0.86201 38.0898 0.87194C30.7632 1.18306 23.9906 3.11137 17.7721 6.65687C17.3233 6.91305 16.4316 7.89408 16.0682 8.29126C16.0146 8.40843 16.8606 7.35193 16.8606 7.35193C16.8606 7.35193 16.376 8.13239 16.0682 8.51368C15.0375 9.87005 14.3841 11.29 14.0446 12.9561C14.1677 12.7933 14.2908 12.6285 14.4179 12.4597C17.4007 8.91881 22.4747 7.12157 26.9529 6.60126C27.3461 6.58935 27.7393 6.58339 28.1325 6.58935C28.3232 6.58935 28.5118 6.59332 28.7084 6.5953C28.8494 6.59729 28.9924 6.59928 29.1374 6.60325V7.39761C28.964 7.42938 28.7892 7.46116 28.6131 7.49293C24.4407 8.31112 20.4848 10.307 18.0481 13.8935C16.4654 16.4454 15.7365 19.1522 16.3601 22.1211C17.3153 25.0761 19.758 26.8852 22.4072 28.2615C24.7009 29.3994 27.2011 30.2474 29.7332 30.6326V31.2284C23.3088 31.1112 15.7147 29.1432 10.8612 24.6888C8.56148 22.2799 7.60626 19.7003 6.89531 16.5327C5.59256 19.2653 5.28872 21.7477 6.29954 24.6749C6.81389 25.8665 7.50895 26.7641 8.4324 27.6697C8.59921 27.9239 8.6621 28.2324 8.62106 28.5951C8.57538 28.7441 8.52971 28.893 8.48204 29.0459C7.51293 28.5276 6.70069 27.9656 5.90037 27.2089C5.79711 27.1116 5.69384 27.0143 5.5866 26.915C3.06649 24.5141 1.00116 21.5372 0.836329 17.9527C0.770794 14.2231 2.33767 10.8908 4.88558 8.2158C5.15566 7.93976 5.4317 7.66769 5.70576 7.39562C5.85271 7.24867 5.99967 7.10171 6.15258 6.95078C10.1383 3.19544 15.7326 1.5392 20.9992 0.645547C21.166 0.615759 21.3348 0.58597 21.5076 0.554196C24.6076 0.0120449 27.7016 -0.00185641 30.8413 0.000129487Z" fill="#464646"/>
<path d="M116.72 7.99316H132.011V11.965H121.883V16.3339H131.614V20.3057H121.883V25.2705H132.21V29.2423H116.72V7.99316Z" fill="#464646"/>
<path d="M90.9029 7.9932H96.662C97.222 9.16885 97.78 10.3425 98.3381 11.5182C98.4195 11.6909 98.5009 11.8637 98.5863 12.0405C99.5971 14.1713 100.602 16.3042 101.553 18.4648C101.727 18.9123 101.95 19.3274 102.224 19.71C102.324 19.4816 102.425 19.2532 102.528 19.0189C102.908 18.155 103.287 17.2912 103.666 16.4273C103.829 16.056 103.992 15.6866 104.155 15.3152C105.227 12.8706 106.306 10.4299 107.39 7.99121H113.149C112.404 9.77852 111.86 11.0468 111.519 11.7962C111.463 11.9193 111.405 12.0424 111.348 12.1695C111.167 12.5687 110.984 12.9679 110.802 13.3651C110.671 13.651 110.541 13.937 110.41 14.223C109.727 15.7203 109.042 17.2157 108.357 18.7131C108.154 19.1559 107.952 19.5968 107.749 20.0397C107.616 20.3316 107.483 20.6235 107.348 20.9135C106.319 23.1575 105.309 25.4095 104.316 27.6695C104.226 27.874 104.135 28.0806 104.042 28.2911C103.963 28.4698 103.884 28.6512 103.803 28.8352C103.676 29.1053 103.546 29.3065 103.414 29.4389C102.62 29.4667 101.825 29.4469 101.031 29.4389C99.9784 27.3438 98.9378 25.2427 97.9151 23.1337C97.8476 22.9927 97.78 22.8537 97.7085 22.7087C96.662 20.552 95.6412 18.3854 94.6403 16.2089C94.0724 14.9796 93.4964 13.7543 92.9047 12.5369C92.8391 12.4039 92.7756 12.2708 92.708 12.1318C92.3923 11.4844 92.0765 10.835 91.7588 10.1896C91.6463 9.95924 91.5331 9.72689 91.4192 9.49255C91.3199 9.288 91.2186 9.08544 91.1154 8.87494C90.9724 8.5519 90.9009 8.25798 90.9009 7.9932H90.9029Z" fill="#464646"/>
<path fill-rule="evenodd" clip-rule="evenodd" d="M160.807 17.1287C160.35 14.2491 158.648 11.8224 156.406 10.0351C152.853 7.51296 147.642 6.82782 143.581 8.46619C140.503 9.99136 138.177 11.9475 136.908 15.2381C135.88 18.1693 136.312 20.9118 137.572 23.6822C139.015 26.2678 141.394 28.1763 144.2 29.0818L144.224 29.0898C144.774 29.2486 145.227 29.3797 145.702 29.7094C148.552 31.9852 152.565 33.8162 156.215 34.1459C156.565 34.126 156.863 34.0466 157.135 33.9195C157.571 33.7189 157.941 33.4031 158.354 33.0437L158.821 32.6167C159.363 32.158 159.899 31.6953 160.435 31.2306C160.614 31.0379 160.707 30.9386 160.755 30.8195C160.807 30.6924 160.807 30.5434 160.807 30.2336C158.703 30.3091 156.793 30.3806 154.795 29.6518C154.398 29.4949 153.993 29.3499 153.588 29.2149L153.062 29.0421V28.6449C154.871 28.4364 156.497 27.37 157.712 26.0355L158.026 25.6661L158.384 25.2649C160.342 22.9374 160.987 20.1115 160.807 17.1267V17.1287ZM155.246 17.1287C154.869 15.5142 154.104 14.0704 152.668 13.1688C149.568 11.5384 145.394 11.5821 143.045 14.5093C141.847 16.3145 141.635 18.4136 142.016 20.5345C142.542 22.1232 143.303 23.3585 144.719 24.2779C146.518 25.2808 148.949 25.4476 150.929 24.8896L151.471 24.6751C152.394 24.3256 153.117 23.8927 153.804 23.1738C155.25 21.3745 155.455 19.3807 155.244 17.1287H155.246Z" fill="#464646"/>
<path d="M25.1695 11.3691C25.0365 12.2032 24.6016 12.8367 24.1766 13.5536C23.5391 14.8306 23.7933 17.1243 24.2024 18.4548C24.4884 19.0427 24.8002 19.5709 25.1695 20.1071C25.251 20.2362 25.3324 20.3653 25.4158 20.4963C26.6868 22.238 29.1274 23.4196 31.1272 24.0789V24.4761C27.6241 24.766 23.5471 23.7135 20.8006 21.4972C19.5911 20.399 18.9854 19.0446 18.6915 17.45C19.0271 15.5058 20.0221 14.1256 21.577 12.9539C23.228 11.8974 24.4255 11.3691 25.1695 11.3691Z" fill="#464646"/>
<path d="M30.3329 10.5749C33.8221 10.4081 37.919 11.266 40.6794 13.4941C41.863 14.6162 42.6296 15.8872 42.7328 17.5394C42.707 18.9673 42 20.133 41.0309 21.1478C39.9268 22.0891 37.7979 23.6838 36.2906 23.6838C36.4236 22.8497 36.8586 22.2162 37.2835 21.4993C37.9528 20.1588 37.6688 17.7857 37.2716 16.3936C36.0145 13.7444 33.6335 12.1894 30.9525 11.1726C30.7479 11.1071 30.5434 11.0416 30.3329 10.974V10.5769V10.5749Z" fill="#464646"/>
<path fill-rule="evenodd" clip-rule="evenodd" d="M83.1579 7.99316H76.803H76.799C76.0205 9.88573 75.244 11.7783 74.4854 13.6788C74.4228 13.8354 74.3621 13.9882 74.3014 14.1409L74.2988 14.1475C74.1677 14.4762 74.0366 14.8054 73.9055 15.1346C73.7744 15.4637 73.6434 15.7928 73.5123 16.1215C72.7378 18.0696 71.9594 20.0158 71.159 21.9521C71.1303 22.0214 71.1021 22.0896 71.0741 22.1572C71.0268 22.2717 70.9801 22.3846 70.9327 22.4982C70.8801 22.625 70.8276 22.7518 70.7751 22.8787C70.4681 23.6202 70.1607 24.3626 69.8503 25.1037C69.7838 25.2645 69.7168 25.4254 69.6498 25.5863C69.5827 25.7471 69.5157 25.908 69.4492 26.0688C69.3856 26.2217 69.3241 26.3707 69.2625 26.5196C68.8733 27.4391 68.627 28.2394 68.4602 29.2423H74.0207C74.1273 28.963 74.2322 28.6889 74.3363 28.4168C74.4261 28.182 74.5153 27.9488 74.6046 27.7151C74.6655 27.5549 74.7264 27.3967 74.7873 27.2405C74.8004 27.2058 74.8134 27.1715 74.8263 27.1375C74.8622 27.043 74.8972 26.9507 74.9323 26.8572C75.0315 26.5951 75.1249 26.331 75.2123 26.0649L75.4109 25.0719H85.1418C85.1418 25.3367 85.1901 25.5995 85.2867 25.8603C85.3556 26.0192 85.4231 26.1767 85.4893 26.333C85.5203 26.4071 85.5512 26.4798 85.582 26.5521C85.6163 26.6329 85.6504 26.713 85.6839 26.7937C85.7364 26.913 85.7867 27.0308 85.8366 27.1476C85.8698 27.2253 85.9028 27.3026 85.9361 27.3795C86.0112 27.5555 86.0856 27.7301 86.1595 27.9037C86.3519 28.3549 86.5412 28.7991 86.7305 29.2423H92.4896C92.4896 28.9775 92.4419 28.7273 92.3466 28.4916C92.3101 28.4156 92.2747 28.3402 92.2395 28.2652C92.2057 28.1932 92.1721 28.1218 92.1381 28.0508C92.0798 27.9273 92.0235 27.8058 91.9678 27.6855C91.9437 27.6336 91.9198 27.5819 91.8958 27.5305C90.8373 25.2765 89.8285 23.0046 88.8316 20.7228C86.9728 16.465 85.0723 12.2271 83.1579 7.99316ZM79.9817 13.1586C79.9813 13.1581 79.9808 13.1577 79.9804 13.1572H79.9824C79.9822 13.1577 79.982 13.1581 79.9817 13.1586ZM79.9817 13.1586C79.8266 13.4693 79.5057 14.2632 79.0192 15.5403L78.5664 16.7259C78.5448 16.782 78.5232 16.8381 78.5017 16.8941C78.424 17.0956 78.3467 17.2964 78.2705 17.4984C78.2229 17.6255 78.1752 17.7506 78.1276 17.8737C77.6946 19.0097 77.355 20.1258 77.0035 21.2994H83.3584C83.3584 20.8559 83.2101 20.2747 82.9136 19.5558C82.8461 19.3989 82.7825 19.248 82.719 19.0951C82.5859 18.7714 82.4528 18.4497 82.3178 18.1279C82.1033 17.6215 81.8908 17.1131 81.6803 16.6047L81.68 16.6039C81.5431 16.2725 81.4062 15.9412 81.2673 15.6098C81.1997 15.449 81.1342 15.2921 81.0687 15.1352C81.0289 15.039 80.9904 14.9434 80.9522 14.8487C80.703 14.2302 80.4682 13.6474 79.9817 13.1586Z" fill="#464646"/>
<path d="M29.7372 30.6325V31.2283C28.7541 31.1627 27.7711 31.0972 26.7583 31.0297V30.8311C27.7652 30.6901 28.7204 30.6106 29.7372 30.6325Z" fill="#464646"/>
<path d="M31.5244 3.42578H34.3047V3.62437H32.9145V4.02155C32.4558 3.95602 31.9971 3.89048 31.5244 3.82296V3.42578Z" fill="#464646"/>
</g>
<defs>
<clipPath id="clip0_9_1218">
<rect width="160" height="34.4435" fill="white" transform="translate(0.836304)"/>
</clipPath>
</defs>
</svg>
