<svg width="120" height="80" viewBox="0 0 120 80" fill="none" xmlns="http://www.w3.org/2000/svg">
<path fill-rule="evenodd" clip-rule="evenodd" d="M12.9109 4C8.54183 4 5 7.54183 5 11.9109V64.6503C5 69.0193 8.54183 72.5612 12.9109 72.5612H88.504C92.873 72.5612 96.4149 69.0193 96.4149 64.6503V11.9109C96.4149 7.54183 92.873 4 88.504 4H12.9109ZM21.606 44.2807C22.9245 48.6757 31.7145 59.2235 42.2623 59.2235C37.8668 70.6504 8.24537 53.0706 21.606 44.2807ZM58.9623 25.3832C4.02577 -4.50317 8.42065 19.2302 20.7263 34.1731C20.7263 18.0003 41.2362 28.6059 51.4911 35.9303C76.103 53.8617 65.555 61.8605 57.2046 60.9815C110.999 80.3193 82.6953 38.2943 58.9623 25.3832ZM24.2404 29.777C27.3169 21.8665 70.4753 47.6205 63.7949 57.4652C57.6441 65.8159 21.1639 37.6875 24.2404 29.777Z" fill="#464646"/>
</svg>
