<svg width="160" height="40" viewBox="0 0 160 40" fill="none" xmlns="http://www.w3.org/2000/svg">
<g clip-path="url(#clip0_9_1292)">
<mask id="mask0_9_1292" style="mask-type:luminance" maskUnits="userSpaceOnUse" x="0" y="-1" width="160" height="41">
<path d="M160 -0.000976562H0V39.9588H160V-0.000976562Z" fill="white"/>
</mask>
<g mask="url(#mask0_9_1292)">
<path d="M8.44226 -0.000976562H121.97C121.918 0.462943 121.865 0.880229 121.765 1.32968C121.753 1.38676 121.74 1.44385 121.727 1.50335C121.685 1.69551 121.642 1.88767 121.599 2.07983C121.568 2.22214 121.537 2.36445 121.505 2.50676C121.418 2.90314 121.33 3.29953 121.242 3.69591C121.147 4.12686 121.052 4.55862 120.956 4.98958C120.757 5.8941 120.556 6.79862 120.355 7.70314C120.158 8.594 119.961 9.48566 119.764 10.3765C118.779 14.826 117.793 19.2754 116.805 23.724C116.793 23.7803 116.78 23.8358 116.767 23.8937C116.519 25.0137 116.269 26.1345 116.02 27.2553H109.266C109.327 26.7129 109.381 26.3339 109.428 26.1184C109.444 26.045 109.46 25.9707 109.476 25.8957C109.493 25.8177 109.511 25.7389 109.528 25.6585C109.547 25.5738 109.566 25.4883 109.585 25.402C109.646 25.1214 109.708 24.8416 109.77 24.561C109.813 24.3624 109.857 24.1638 109.9 23.9645C109.992 23.5431 110.085 23.121 110.177 22.6997C110.31 22.0991 110.442 21.4977 110.573 20.8971C110.978 19.0487 111.384 17.2002 111.794 15.3526C111.838 15.1548 111.881 14.9578 111.925 14.76C112.04 14.2414 112.155 13.7228 112.271 13.2051C112.326 12.9566 112.382 12.7074 112.437 12.4581C112.456 12.3745 112.475 12.2909 112.495 12.204C112.864 10.5365 113.127 8.76445 112.187 7.23118C111.559 6.30897 110.698 5.9134 109.626 5.65933C108.652 5.48244 107.66 5.52345 106.673 5.52425C106.46 5.52425 106.245 5.52425 106.031 5.52264C105.512 5.52184 104.993 5.52184 104.474 5.52184C104.051 5.52184 103.629 5.52184 103.206 5.52184C103.145 5.52184 103.085 5.52184 103.023 5.52184C102.9 5.52184 102.778 5.52184 102.655 5.52184C101.507 5.52103 100.359 5.52184 99.2105 5.52184C98.1637 5.52184 97.116 5.52184 96.0684 5.51943C94.9902 5.51782 93.9112 5.51701 92.833 5.51782C92.2292 5.51782 91.6246 5.51782 91.02 5.51701C90.5054 5.51621 89.9908 5.51621 89.4762 5.51701C89.2149 5.51701 88.9528 5.51701 88.6907 5.51701C86.786 5.51138 84.9062 5.61269 83.2965 6.7536C83.2258 6.80345 83.155 6.8541 83.0827 6.90556C81.3138 8.25309 80.6199 10.2672 80.1745 12.3624C80.1472 12.4895 80.119 12.6165 80.0917 12.7427C80.0346 13.0032 79.9783 13.2646 79.9221 13.5259C79.8441 13.8869 79.7653 14.2479 79.6857 14.6089C79.6728 14.6652 79.6608 14.7214 79.6479 14.7801C79.623 14.8943 79.598 15.0077 79.5731 15.1218C79.5096 15.4113 79.4461 15.7007 79.3826 15.9902C79.3697 16.0489 79.3568 16.1068 79.344 16.1671C79.3174 16.2869 79.2917 16.4059 79.2652 16.5257C79.196 16.8424 79.1261 17.1592 79.0569 17.476C78.9267 18.0718 78.7956 18.6684 78.6654 19.2641C78.4314 20.3335 78.1966 21.402 77.9627 22.4714C77.8943 22.7841 77.826 23.0969 77.7576 23.4097C77.6145 24.065 77.4706 24.7202 77.3267 25.3755C77.272 25.6256 77.2173 25.8756 77.1627 26.1257C77.1337 26.2583 77.1048 26.3918 77.075 26.5245C77.063 26.5823 77.0501 26.6402 77.0372 26.6997C76.982 26.9511 76.9244 27.1366 76.8644 27.2561H47.4372C47.5369 26.6571 47.6398 26.0678 47.7717 25.476C47.7878 25.4044 47.8031 25.3321 47.82 25.2581C47.8698 25.033 47.9196 24.8079 47.9695 24.5827C48.0033 24.4284 48.0378 24.274 48.0716 24.1196C48.1544 23.745 48.238 23.3695 48.3209 22.9948C48.3659 22.9948 48.4109 22.9948 48.4567 22.9948C51.1261 22.9916 53.7962 22.9876 56.4656 22.9803C56.7872 22.9803 57.108 22.9787 57.4296 22.9779C57.4939 22.9779 57.5574 22.9779 57.6234 22.9779C58.6557 22.9755 59.6881 22.9739 60.7205 22.9731C61.7818 22.9723 62.8431 22.9699 63.9044 22.9667C64.558 22.9651 65.2117 22.9634 65.8654 22.9634C66.3148 22.9634 66.7651 22.9618 67.2145 22.9602C67.4734 22.9594 67.7315 22.9586 67.9904 22.9594C70.3976 22.9643 72.7462 22.6627 74.5464 20.9003C76.2694 19.1395 76.6232 16.6913 77.1249 14.3813C77.1787 14.1337 77.2334 13.8869 77.2881 13.6392C77.3412 13.3972 77.3942 13.1552 77.4473 12.9132C77.4722 12.799 77.4971 12.6857 77.5221 12.5715C77.9064 10.8243 78.2811 9.00566 77.3605 7.36224C76.64 6.27038 75.5996 5.90857 74.3703 5.62877C74.3084 5.6143 74.2457 5.59983 74.1822 5.58536C73.949 5.54515 73.7319 5.53792 73.4955 5.53711C73.4001 5.53711 73.3039 5.53658 73.2069 5.53551C73.1024 5.53551 72.9986 5.53551 72.8909 5.53551C72.7791 5.53551 72.6666 5.53551 72.5548 5.5347C72.2469 5.5339 71.9389 5.53309 71.631 5.53229C71.2989 5.53229 70.9669 5.53068 70.634 5.52988C70.0583 5.52827 69.4827 5.52666 68.9078 5.52505C68.0756 5.52345 67.2435 5.52103 66.4113 5.51862C65.0614 5.5146 63.7114 5.51138 62.3615 5.50817C61.0501 5.50495 59.7387 5.50174 58.4274 5.49852C58.3464 5.49852 58.2647 5.49852 58.1822 5.49852C57.7769 5.49772 57.3709 5.49611 56.9657 5.49531C53.6017 5.48646 50.2368 5.47762 46.8728 5.46958C46.8624 5.5339 46.8519 5.59822 46.8407 5.66415C46.827 5.74937 46.8125 5.8346 46.798 5.92304C46.7844 6.00747 46.7707 6.09108 46.7562 6.17792C46.6847 6.58958 46.5954 6.99641 46.5054 7.40405C46.485 7.49624 46.4646 7.58951 46.4443 7.68385C46.3888 7.93711 46.3333 8.18958 46.277 8.44284C46.2167 8.71541 46.1572 8.98877 46.0969 9.26133C45.994 9.73088 45.8911 10.2004 45.7874 10.67C45.625 11.4081 45.4626 12.147 45.301 12.8851C45.2599 13.0732 45.2181 13.2605 45.1771 13.4487L45.0943 13.8266C45.0107 14.2085 44.9271 14.5904 44.8427 14.9715C44.4656 16.6897 44.0893 18.4087 43.7146 20.1277C43.6656 20.3536 43.6157 20.5795 43.5667 20.8063C43.3681 21.7172 43.1695 22.6274 42.9709 23.5383C42.864 24.0304 42.7562 24.5232 42.6485 25.0153C42.6091 25.1954 42.5697 25.3747 42.5311 25.5548C42.478 25.7984 42.425 26.042 42.3719 26.2865C42.3566 26.358 42.3405 26.4288 42.3253 26.5027C42.3113 26.5676 42.2969 26.6333 42.2819 26.6997C42.2698 26.756 42.2577 26.8115 42.2449 26.8694C42.2127 27.0012 42.1717 27.1307 42.1283 27.2593H38.9926C39.0526 26.6563 39.1071 26.2449 39.1558 26.0252C39.1727 25.9496 39.1888 25.874 39.2057 25.796C39.2234 25.7156 39.2419 25.636 39.2603 25.5532C39.2796 25.4656 39.2989 25.3787 39.3182 25.2887C39.3826 24.9984 39.4469 24.7074 39.5112 24.4171C39.557 24.2081 39.6037 23.999 39.6495 23.7908C39.7484 23.3421 39.8473 22.8943 39.947 22.4457C40.1038 21.7381 40.2597 21.0306 40.4157 20.323C40.4688 20.081 40.5227 19.839 40.5757 19.597C40.5891 19.5364 40.6025 19.4753 40.6159 19.4137C40.7116 18.9803 40.8073 18.5462 40.903 18.1128C41.2905 16.3584 41.6756 14.604 42.0591 12.8489C42.072 12.7886 42.0857 12.7291 42.0985 12.6672C42.2529 11.9604 42.4073 11.2545 42.5617 10.5486C42.6983 9.92304 42.835 9.29832 42.9717 8.67279C43.1992 7.63239 43.4268 6.59199 43.6543 5.55078C41.9032 5.52398 40.1343 5.49718 38.3478 5.47038C38.3213 5.70917 38.2947 5.94797 38.2674 6.194C37.6837 8.8738 37.0999 11.5536 36.4985 14.3146H14.8744C14.9741 13.7156 15.077 13.1263 15.2073 12.5345C15.2234 12.4597 15.2402 12.3841 15.2571 12.307C15.3102 12.0625 15.3641 11.8181 15.4179 11.5729C15.4557 11.4016 15.4927 11.2304 15.5305 11.0591C15.6085 10.7021 15.6865 10.3452 15.7653 9.98817C15.8658 9.52988 15.9663 9.07159 16.066 8.61329C16.1432 8.26033 16.2204 7.90817 16.2975 7.5552C16.3345 7.38636 16.3715 7.21671 16.4085 7.04787C16.4599 6.81229 16.5114 6.57752 16.5629 6.34274C16.5781 6.27279 16.5934 6.20284 16.6087 6.13048C16.6794 5.80994 16.7446 5.58991 16.8041 5.47038H11.4975C11.3914 6.00103 11.2853 6.53169 11.1759 7.07842C11.0963 7.4539 11.0151 7.82937 10.9323 8.20485C10.9098 8.30616 10.8881 8.40746 10.8648 8.51199C10.8045 8.78616 10.7442 9.06033 10.6839 9.3345C10.6187 9.63038 10.5544 9.92546 10.4893 10.2205C10.3783 10.7255 10.2674 11.2304 10.1564 11.7353C9.98276 12.5249 9.8099 13.3136 9.63623 14.1031C9.57834 14.3685 9.51965 14.6346 9.46095 14.9007C9.44648 14.9667 9.43201 15.0326 9.41754 15.1001C9.31543 15.5665 9.21251 16.0328 9.1104 16.4991C8.61834 18.7399 8.12708 20.9807 7.63663 23.2215C7.50075 23.843 7.36407 24.4646 7.22819 25.0861C7.0698 25.8105 6.9106 26.5349 6.75221 27.2593H2.41211C2.82538 25.316 3.24588 23.3751 3.67522 21.435C3.68755 21.3803 3.69961 21.3254 3.71141 21.2702C3.86417 20.5795 4.01774 19.8889 4.1705 19.1982C4.32005 18.522 4.4704 17.8467 4.61995 17.1713C4.67543 16.9196 4.73171 16.6672 4.78718 16.4155C4.80085 16.3528 4.81533 16.2901 4.82899 16.2258C4.91342 15.8447 4.99784 15.4635 5.08226 15.0824C5.44648 13.4382 5.8107 11.794 6.17412 10.149C6.24889 9.81048 6.32367 9.47199 6.39844 9.1335C6.44749 8.91319 6.49573 8.69289 6.54477 8.47259C6.55683 8.41872 6.56889 8.36485 6.58095 8.30937C6.70799 7.73289 6.83583 7.15641 6.96286 6.57993C7.0706 6.09189 7.17834 5.60304 7.28688 5.115C7.32548 4.93973 7.36407 4.76445 7.40266 4.58917C7.74035 3.05912 8.0909 1.53149 8.43985 0.00384756L8.44226 -0.000976562Z" fill="#464646"/>
<path d="M125.025 -0.000976562H160C159.379 2.91922 158.914 5.06676 158.607 6.44164C158.572 6.59601 158.538 6.74958 158.504 6.90395C158.486 6.98194 158.468 7.05993 158.451 7.14033C158.298 7.82536 158.145 8.51118 157.992 9.19701C157.932 9.47038 157.871 9.74375 157.81 10.0171C157.342 12.118 156.877 14.2197 156.412 16.3206C156.33 16.6905 156.248 17.0611 156.166 17.431C155.728 19.4121 155.289 21.394 154.853 23.3759C154.824 23.5102 154.794 23.6445 154.765 23.7787C154.647 24.315 154.529 24.8505 154.411 25.3868C154.356 25.6376 154.301 25.8885 154.246 26.1393C154.226 26.2262 154.208 26.3138 154.188 26.4038C154.171 26.4818 154.153 26.5606 154.136 26.641C154.121 26.7078 154.107 26.7753 154.091 26.8445C154.064 26.9581 154.023 27.0953 153.97 27.2561H151.477C151.379 27.0599 151.374 26.908 151.356 26.6893C151.151 24.3946 150.717 22.1401 150.03 19.9395C150.008 19.868 149.986 19.7964 149.963 19.7224C148.642 15.4362 146.331 11.3928 143.357 8.04003C143.258 7.92586 143.159 7.81249 143.06 7.69832C142.972 7.59782 142.882 7.49731 142.794 7.39681C142.745 7.33973 142.695 7.28345 142.644 7.22475C142.252 6.77933 141.841 6.3548 141.422 5.9343C141.369 5.88043 141.316 5.82737 141.262 5.77189C140.901 5.41249 140.527 5.074 140.141 4.74274C140.059 4.67118 139.977 4.59963 139.895 4.52807C138.78 3.57209 137.598 2.72063 136.362 1.92867C136.311 1.89651 136.261 1.86381 136.209 1.83058C135.908 1.60921 135.584 1.45832 135.239 1.37792C135.008 1.4752 134.961 1.59983 134.846 1.82013C134.804 1.89892 134.763 1.97772 134.72 2.05812C134.677 2.14335 134.633 2.22777 134.588 2.31541C134.496 2.49068 134.403 2.66676 134.31 2.84204C134.264 2.93128 134.218 3.01973 134.169 3.11139C133.959 3.51018 133.741 3.90576 133.523 4.30053C133.449 4.434 133.376 4.56666 133.303 4.70013C133.25 4.795 133.198 4.88907 133.146 4.98395C133.2 5.00324 133.254 5.02254 133.311 5.04264C134.37 5.49852 135.305 6.28164 136.201 6.994C136.283 7.05912 136.365 7.12345 136.449 7.19018C137.305 7.87681 138.089 8.63259 138.866 9.40445C138.948 9.48485 139.029 9.56525 139.11 9.64485C139.652 10.1803 140.15 10.7375 140.623 11.3357C140.706 11.437 140.788 11.5375 140.871 11.638C144.501 16.0963 146.726 21.5106 147.136 27.2553H142.07C141.951 26.6587 141.875 26.2543 141.844 26.042C140.989 20.6334 138.39 15.3261 134.03 11.8985C133.935 11.8197 133.84 11.7409 133.746 11.6621C132.911 10.9659 132.035 10.3387 131.136 9.72767C131.087 9.6939 131.038 9.66093 130.989 9.62636C130.771 9.47842 130.595 9.36586 130.332 9.32566C130.311 9.3948 130.29 9.46448 130.268 9.5347C130.168 9.81852 130.041 10.0629 129.894 10.3259C129.475 11.0929 129.106 11.8857 128.732 12.6768C128.651 12.8473 128.568 13.0169 128.482 13.1858C128.552 13.2067 128.622 13.2276 128.693 13.2493C130.64 13.9504 132.437 15.9178 133.607 17.5484C133.717 17.7011 133.829 17.8515 133.942 18.0018C134.862 19.2545 135.628 20.6205 136.281 22.03C136.307 22.0863 136.334 22.1417 136.36 22.1996C137.059 23.7232 137.809 25.5564 137.809 27.2561H132.503C132.317 26.6193 132.129 25.9761 131.94 25.3265C131.263 23.5021 130.399 21.825 129.126 20.3415C129.06 20.2635 128.994 20.1864 128.926 20.106C127.998 19.039 126.816 18.1232 125.427 17.7687C125.4 17.8217 125.372 17.8756 125.344 17.9303C124.773 19.039 124.192 20.1405 123.578 21.226C123.629 21.2565 123.682 21.2871 123.735 21.3176C124.723 21.919 125.543 22.6233 126.231 23.5576C126.291 23.6388 126.352 23.72 126.414 23.8028C127.525 25.3514 128.08 26.5025 128.08 27.2561H118.995C119.411 25.3136 119.827 23.3711 120.258 21.4318C120.307 21.2107 120.356 20.9904 120.405 20.7693C120.508 20.3037 120.611 19.8382 120.715 19.3727C120.878 18.6378 121.04 17.9021 121.204 17.1673C121.26 16.9156 121.315 16.6631 121.371 16.4115C121.385 16.3488 121.399 16.2861 121.413 16.2217C121.498 15.8406 121.582 15.4595 121.667 15.0784C122.032 13.4342 122.395 11.79 122.759 10.145C122.834 9.80646 122.909 9.46797 122.984 9.12948C123.032 8.90917 123.081 8.68887 123.13 8.46857C123.141 8.4147 123.153 8.36083 123.165 8.30536C123.293 7.72887 123.42 7.15239 123.548 6.57591C123.656 6.08787 123.764 5.59902 123.871 5.11098C123.911 4.93571 123.949 4.76043 123.988 4.58515C124.326 3.0551 124.676 1.52747 125.025 -0.000172542V-0.000976562Z" fill="#464646"/>
<path d="M88.2099 9.69711C88.2876 9.69711 88.3661 9.69684 88.4455 9.6963C88.7036 9.6955 88.9617 9.6963 89.2197 9.6963C89.4063 9.6963 89.592 9.6955 89.7777 9.69469C90.2818 9.69389 90.7852 9.69469 91.2893 9.69469C91.8167 9.69469 92.3442 9.69469 92.8716 9.69469C93.8147 9.69469 94.757 9.69469 95.6993 9.6963C96.5532 9.69711 97.4071 9.69711 98.2609 9.6963C99.2531 9.69469 100.246 9.69469 101.239 9.6955C101.764 9.6955 102.289 9.6955 102.814 9.6955C103.308 9.6955 103.801 9.6955 104.295 9.6963C104.476 9.6963 104.657 9.6963 104.838 9.6963C105.085 9.6963 105.332 9.6963 105.58 9.69791C105.651 9.69791 105.722 9.69711 105.796 9.6963C106.255 9.70032 106.596 9.77831 107.015 9.96967C107.391 10.358 107.364 10.8026 107.36 11.3148C107.328 11.9862 107.153 12.6422 107.005 13.2951C106.971 13.4503 106.937 13.6054 106.903 13.7598C106.833 14.0822 106.761 14.4046 106.689 14.7263C106.595 15.1403 106.505 15.5536 106.413 15.9677C106.326 16.3632 106.238 16.758 106.151 17.1536C106.135 17.2292 106.118 17.3047 106.1 17.3827C106.054 17.595 106.006 17.8065 105.959 18.0187C105.944 18.0822 105.93 18.1457 105.916 18.2109C105.851 18.4992 105.788 18.6732 105.729 18.7327C105.613 18.7407 105.496 18.7423 105.38 18.7423C105.304 18.7423 105.229 18.7423 105.15 18.7423C105.066 18.7423 104.982 18.7423 104.895 18.7423C104.806 18.7423 104.717 18.7423 104.626 18.7423C104.326 18.7423 104.027 18.7423 103.727 18.7423C103.513 18.7423 103.299 18.7423 103.085 18.7423C102.624 18.7423 102.161 18.7423 101.7 18.7423C101.032 18.7423 100.364 18.7415 99.6969 18.7415C98.6139 18.7415 97.5309 18.7415 96.4479 18.7399C95.3954 18.7399 94.343 18.7383 93.2905 18.7383C93.2262 18.7383 93.161 18.7383 93.0943 18.7383C92.7687 18.7383 92.4439 18.7383 92.119 18.7383C89.4191 18.7383 86.72 18.7359 84.0201 18.7343C84.0322 18.6193 84.0451 18.5035 84.0571 18.3886C84.0644 18.3242 84.0716 18.2599 84.078 18.194C84.1062 17.9665 84.1496 17.7462 84.1994 17.5226C84.2187 17.4334 84.2388 17.3449 84.2589 17.2533C84.2798 17.1592 84.3007 17.0651 84.3233 16.9679C84.3452 16.8682 84.3675 16.7674 84.39 16.6655C84.4487 16.4002 84.5082 16.1357 84.5669 15.8704C84.6489 15.5037 84.7309 15.1363 84.8121 14.7697C84.8579 14.5646 84.9038 14.3588 84.9496 14.1538C85.0557 13.677 85.161 13.201 85.2615 12.7234C85.2792 12.639 85.2969 12.5546 85.3154 12.4678C85.3484 12.3126 85.3805 12.1574 85.4119 12.0022C85.5655 11.2778 85.7986 10.5228 86.4274 10.0702C86.9757 9.74535 87.5868 9.6955 88.2099 9.70032V9.69711Z" fill="#464646"/>
<path d="M51.2161 9.8079C53.7962 9.80227 56.3771 9.79825 58.9572 9.79584C59.2619 9.79584 59.5667 9.79584 59.8714 9.79503C59.932 9.79503 59.9933 9.79503 60.0555 9.79503C61.0372 9.79423 62.0197 9.79182 63.0014 9.79021C64.0089 9.7878 65.0171 9.78699 66.0246 9.78619C66.6461 9.78619 67.2676 9.78458 67.8899 9.78297C68.3667 9.78136 68.8435 9.78136 69.321 9.78136C69.5164 9.78136 69.7118 9.78136 69.9072 9.77976C70.1741 9.77895 70.441 9.77895 70.708 9.77976C70.7852 9.77976 70.8624 9.77815 70.9419 9.77734C71.4605 9.78056 71.9526 9.83121 72.3586 10.189C72.8829 11.3339 72.2131 13.0449 71.9438 14.2099C71.8915 14.4391 71.8408 14.669 71.7902 14.8981C71.7403 15.1225 71.6897 15.3468 71.639 15.5711C71.6037 15.7271 71.5691 15.8831 71.5345 16.0391C71.2611 17.2124 70.9208 17.9762 70.5134 18.3305C69.9297 18.6095 69.3942 18.6988 68.7534 18.6907C68.6698 18.6907 68.5862 18.6907 68.5001 18.6915C68.2227 18.6915 67.9454 18.6907 67.668 18.6883C67.4686 18.6883 67.2684 18.6883 67.069 18.6883C66.6404 18.6883 66.2119 18.6883 65.7825 18.6859C65.1626 18.6835 64.5427 18.6827 63.9228 18.6819C62.917 18.6819 61.9112 18.6786 60.9054 18.6762C59.9285 18.673 58.9516 18.6706 57.9755 18.6698C57.9152 18.6698 57.8549 18.6698 57.793 18.6698C57.4907 18.6698 57.1884 18.6698 56.8853 18.669C54.3791 18.6658 51.873 18.6602 49.3677 18.6529C49.4111 18.0965 49.4971 17.5635 49.6193 17.0192C49.637 16.9404 49.6539 16.8624 49.6716 16.7812C49.7279 16.5247 49.785 16.2682 49.8428 16.0109C49.8822 15.8316 49.9216 15.6523 49.9618 15.4738C50.0656 15.0043 50.1693 14.5355 50.2738 14.066C50.3799 13.586 50.4861 13.1068 50.5922 12.6268C50.7996 11.6869 51.0079 10.7478 51.2169 9.8079H51.2161Z" fill="#464646"/>
<path d="M13.9096 18.5723H35.5377C35.2941 19.7904 35.0489 21.0052 34.7828 22.2177C34.7514 22.3624 34.7192 22.5071 34.6879 22.6519C34.6228 22.9502 34.5576 23.2476 34.4917 23.5459C34.4073 23.9286 34.3245 24.3114 34.2409 24.6933C34.1757 24.99 34.1106 25.2858 34.0455 25.5825C34.0141 25.724 33.9836 25.8647 33.953 26.0062C33.9104 26.2016 33.8678 26.397 33.8244 26.5916C33.8115 26.65 33.7986 26.7087 33.7858 26.7676C33.7268 27.0324 33.6676 27.1946 33.6081 27.2541C33.4931 27.2621 33.3773 27.2637 33.2616 27.2637C33.1868 27.2637 33.1112 27.2637 33.034 27.2637C32.9504 27.2637 32.8668 27.2637 32.7808 27.2637C32.6923 27.2637 32.6047 27.2637 32.5138 27.2637C32.2163 27.2637 31.9188 27.2637 31.6214 27.2637C31.4091 27.2637 31.1968 27.2637 30.9846 27.2637C30.5263 27.2637 30.068 27.2637 29.6097 27.2637C28.9472 27.2637 28.2847 27.2629 27.6214 27.2629C26.5464 27.2629 25.4714 27.2629 24.3964 27.2613C23.352 27.2613 22.3076 27.2597 21.2624 27.2597C21.198 27.2597 21.1337 27.2597 21.0678 27.2597C20.7454 27.2597 20.4222 27.2597 20.0998 27.2597C17.42 27.2597 14.741 27.2573 12.0612 27.2557C12.1153 26.8006 12.1665 26.4635 12.2147 26.2442C12.2292 26.1791 12.2429 26.1132 12.2581 26.0464C12.2734 25.9773 12.2887 25.9073 12.3048 25.8366C12.3209 25.7618 12.3377 25.687 12.3546 25.6099C12.4085 25.3646 12.4624 25.1186 12.5162 24.8734C12.554 24.7021 12.591 24.5309 12.6288 24.3596C12.7277 23.9094 12.8266 23.4599 12.9255 23.0105C13.0067 22.643 13.0871 22.2748 13.1675 21.9073C13.264 21.4692 13.3597 21.031 13.4561 20.592C13.4746 20.5083 13.4931 20.4247 13.5116 20.3387C13.5639 20.1023 13.6153 19.8659 13.6676 19.6296C13.6829 19.5596 13.6981 19.4897 13.7142 19.4173C13.7287 19.353 13.7424 19.2886 13.7576 19.2219C13.7697 19.1664 13.7826 19.1102 13.7946 19.0531C13.8308 18.8923 13.871 18.7331 13.9112 18.5731L13.9096 18.5723Z" fill="#464646"/>
<path d="M83.0553 22.9941H104.764C104.709 23.5449 104.641 24.0571 104.52 24.5925C104.504 24.6641 104.489 24.7356 104.472 24.8096C104.439 24.9592 104.406 25.1087 104.372 25.2591C104.322 25.489 104.271 25.719 104.22 25.9489C104.188 26.0952 104.155 26.2408 104.123 26.3871C104.108 26.4563 104.093 26.5246 104.077 26.5953C104.005 26.9164 103.939 27.1367 103.879 27.2563H82.1709C82.2256 26.7055 82.2939 26.1933 82.4145 25.6579C82.4306 25.5863 82.4459 25.5147 82.4628 25.4408C82.4957 25.2912 82.5287 25.1417 82.5625 24.9913C82.6131 24.7614 82.6638 24.5314 82.7144 24.3015C82.7466 24.1551 82.7795 24.0096 82.8117 23.8633C82.827 23.7941 82.8423 23.7258 82.8575 23.655C82.9294 23.334 82.9953 23.1137 83.0553 22.9941Z" fill="#464646"/>
<path d="M16.7236 32.2399C17.969 32.2343 19.2145 32.2302 20.4599 32.2278C21.038 32.2262 21.6169 32.2246 22.195 32.2222C22.6991 32.2198 23.2032 32.2182 23.7081 32.2174C23.9751 32.2174 24.242 32.2166 24.5089 32.215C24.8072 32.2133 25.1055 32.2125 25.4046 32.2133C25.4922 32.2125 25.5799 32.2117 25.6699 32.2109C26.2054 32.2133 26.7915 32.2302 27.2233 32.5872C27.5722 32.9748 27.6792 33.3727 27.6735 33.8841C27.6398 34.3408 27.5361 34.7878 27.442 35.2357C27.4227 35.3362 27.4026 35.4359 27.3825 35.5396C27.2153 36.3492 27.011 37.298 26.3718 37.8688C26.0575 38.0465 25.7367 38.2033 25.407 38.3512C25.5212 38.6793 25.6804 38.9245 25.8894 39.2003C26.076 39.4479 26.2376 39.6803 26.3718 39.9593C26.0173 40.0019 25.6627 40.0268 25.3065 40.0493C25.2076 40.0614 25.1079 40.0734 25.0058 40.0863C24.6609 40.1024 24.4398 40.0952 24.1206 39.9593C24.008 39.7928 23.9292 39.6216 23.8448 39.4391C23.6671 39.0628 23.4991 38.7581 23.1558 38.512C22.2746 38.2692 21.3089 38.3689 20.406 38.4123C20.0635 38.4276 19.7202 38.4341 19.3777 38.4413C18.7071 38.4566 18.0374 38.4823 17.3668 38.512C17.2607 38.9896 17.1546 39.4672 17.0452 39.9593H15.0352C15.1292 39.3949 15.2225 38.8393 15.3455 38.2821C15.3592 38.2178 15.3736 38.1534 15.3881 38.0875C15.434 37.8793 15.479 37.6718 15.5256 37.4636C15.5578 37.3173 15.5899 37.1717 15.6213 37.0254C15.688 36.7215 15.7548 36.4176 15.8215 36.1136C15.9075 35.7237 15.9927 35.3338 16.0788 34.9438C16.1447 34.6431 16.2106 34.3424 16.2766 34.0425C16.3079 33.8986 16.3401 33.7547 16.3714 33.6107C16.4157 33.4105 16.4591 33.2103 16.5033 33.0101C16.5162 32.9506 16.5293 32.8906 16.5427 32.83C16.6033 32.5572 16.6633 32.361 16.7228 32.2415L16.7236 32.2399ZM18.3316 33.8479C18.2528 34.1808 18.1741 34.5145 18.0953 34.8473C18.0687 34.9607 18.0422 35.0732 18.0149 35.1866C17.9763 35.3498 17.9377 35.5139 17.8991 35.6771C17.8758 35.7752 17.8524 35.8732 17.8291 35.9746C17.7688 36.2568 17.7254 36.5366 17.6876 36.8228C18.6034 36.8324 19.5184 36.8389 20.4342 36.8437C20.8595 36.8461 21.2848 36.8485 21.7093 36.8533C22.1194 36.8574 22.5302 36.8598 22.9403 36.8614C23.0971 36.8614 23.253 36.8638 23.4098 36.8654C23.6293 36.8686 23.848 36.8686 24.0675 36.8686C24.1318 36.8702 24.197 36.8718 24.2637 36.8726C24.5925 36.8694 24.7421 36.8389 25.0018 36.6306C25.1618 36.424 25.2333 36.2897 25.292 36.0373C25.3089 35.9657 25.3258 35.8942 25.3435 35.8202C25.359 35.7462 25.3751 35.6714 25.3917 35.5959C25.4094 35.5235 25.4263 35.4503 25.444 35.3756C25.5493 34.9108 25.5992 34.4847 25.567 34.0079C25.3596 33.8005 25.2205 33.8278 24.9375 33.827C24.8715 33.827 24.8064 33.8278 24.7389 33.8286C24.6697 33.8286 24.6 33.8286 24.5298 33.8286C24.3007 33.8286 24.0723 33.8302 23.8432 33.831C23.6848 33.831 23.5264 33.831 23.368 33.831C22.9507 33.831 22.5334 33.8334 22.1154 33.8351C21.6892 33.8367 21.2639 33.8375 20.8378 33.8383C20.0024 33.8399 19.1662 33.8423 18.3308 33.8463L18.3316 33.8479Z" fill="#464646"/>
<path d="M54.8904 32.2276C54.9684 32.2276 55.0464 32.2277 55.1268 32.226C55.3849 32.2252 55.643 32.2244 55.9011 32.2236C56.0803 32.2236 56.2604 32.2228 56.4405 32.222C56.8176 32.222 57.1939 32.2204 57.571 32.2204C58.0526 32.2204 58.535 32.218 59.0166 32.2156C59.3881 32.214 59.7595 32.214 60.131 32.214C60.3087 32.214 60.4864 32.2132 60.6641 32.2124C60.9133 32.2108 61.1618 32.2108 61.411 32.2124C61.4834 32.2124 61.5565 32.2108 61.6313 32.21C62.1322 32.2132 62.6926 32.2534 63.0866 32.5959C63.5569 33.1394 63.4846 33.8148 63.4379 34.4918C63.3817 34.938 63.2763 35.3754 63.1742 35.8136C63.1469 35.9342 63.1203 36.0548 63.093 36.1754C63.0231 36.489 62.9507 36.8017 62.8791 37.1145C62.8052 37.4353 62.7328 37.7569 62.6604 38.0785C62.5189 38.7056 62.3758 39.3328 62.2319 39.9591H60.2219C60.3291 39.3159 60.4363 38.8067 60.5435 38.4315H53.0661C53.0395 38.6703 53.013 38.9091 52.9857 39.1551C52.9616 39.2894 52.9358 39.4236 52.9053 39.5571C52.8924 39.6166 52.8787 39.6761 52.8651 39.738C52.8383 39.8318 52.7981 39.9055 52.7445 39.9591C52.6014 39.9663 52.4574 39.968 52.3143 39.9671C52.2275 39.9671 52.1406 39.9671 52.0514 39.9671C51.9597 39.9671 51.8689 39.9655 51.7748 39.9655C51.6832 39.9655 51.5915 39.9655 51.4966 39.9647C51.2691 39.9639 51.0424 39.9623 50.8148 39.9607C51.0512 38.7322 51.3053 37.5077 51.5658 36.2839C51.6003 36.1199 51.6349 35.9551 51.6695 35.7911C52.0136 34.1401 52.5059 33.0644 53.1465 32.5637C53.6924 32.2341 54.2729 32.2301 54.8912 32.2293L54.8904 32.2276ZM54.0301 34.2506C53.9561 34.458 53.9031 34.6405 53.8596 34.8536C53.8468 34.9099 53.8339 34.9653 53.8211 35.0232C53.7953 35.1382 53.7696 35.2532 53.7455 35.3682C53.6908 35.6214 53.6289 35.8723 53.5686 36.1239C53.5107 36.3692 53.4681 36.5702 53.4681 36.8226H60.8651C61.0395 36.3868 61.1376 35.9639 61.2365 35.5056C61.255 35.4236 61.2735 35.3424 61.2928 35.258C61.3853 34.8351 61.4689 34.4411 61.4279 34.0078C61.1923 33.7722 60.9439 33.8228 60.6279 33.822C60.562 33.822 60.496 33.8204 60.4277 33.8204C60.209 33.8188 59.9895 33.818 59.7708 33.8172C59.6188 33.8172 59.4669 33.8156 59.3149 33.8148C58.9957 33.8132 58.6765 33.8132 58.3573 33.8124C57.9489 33.8124 57.5396 33.8092 57.1312 33.8051C56.8168 33.8027 56.5025 33.8019 56.1889 33.8019C56.0385 33.8019 55.8874 33.8003 55.737 33.7987C55.5264 33.7963 55.3149 33.7971 55.1043 33.7979C55.0424 33.7971 54.9796 33.7955 54.9161 33.7947C54.482 33.8003 54.2946 33.9056 54.0325 34.2482L54.0301 34.2506Z" fill="#464646"/>
<path d="M82.9435 32.2282C83.0239 32.2282 83.1035 32.2266 83.1863 32.2266C83.2748 32.2266 83.3632 32.2266 83.4548 32.2266C83.5473 32.2266 83.6406 32.2258 83.7363 32.2249C84.045 32.2233 84.3537 32.2225 84.6633 32.2217C84.7684 32.2217 84.8747 32.2215 84.9825 32.2209C85.4826 32.2193 85.9835 32.2185 86.4836 32.2177C87.0609 32.2169 87.6374 32.2145 88.2147 32.2113C88.6609 32.2089 89.1071 32.2081 89.5533 32.2073C89.8195 32.2073 90.0856 32.2065 90.3517 32.204C90.65 32.2024 90.9475 32.2024 91.245 32.2024C91.3326 32.2016 91.4195 32.2 91.5095 32.1992C92.1471 32.2032 92.7389 32.3037 93.2261 32.7427C93.678 33.5717 93.4528 34.4569 93.2607 35.3357C93.2441 35.4124 93.2272 35.4898 93.21 35.5681C93.1747 35.7289 93.1393 35.8905 93.1039 36.0513C93.0508 36.2949 92.9986 36.5385 92.9471 36.7821C92.6277 38.2556 92.1444 39.2073 91.4975 39.6372C90.9025 39.9532 90.3662 40.0038 89.7021 39.995C89.6056 39.995 89.5099 39.995 89.4118 39.995C89.1513 39.995 88.8916 39.9934 88.6311 39.991C88.3586 39.9886 88.086 39.9886 87.8126 39.9886C87.2973 39.9878 86.7819 39.9854 86.2665 39.9821C85.6796 39.9781 85.0926 39.9765 84.5049 39.9749C83.2981 39.9717 82.0912 39.9661 80.8844 39.9588C80.9318 39.4692 81.0058 38.9988 81.1127 38.5196C81.128 38.4521 81.1425 38.3845 81.1578 38.3154C81.206 38.0951 81.2551 37.8748 81.3041 37.6553C81.3379 37.5017 81.3716 37.3474 81.4062 37.1938C81.477 36.873 81.5477 36.5522 81.6193 36.2314C81.7109 35.8197 81.8018 35.4073 81.8926 34.9948C81.9626 34.678 82.0325 34.3612 82.1025 34.0444C82.1363 33.8925 82.17 33.7405 82.2038 33.5878C82.2504 33.3763 82.2971 33.1648 82.3445 32.9534C82.3584 32.8901 82.3724 32.8264 82.3863 32.762C82.4656 32.4083 82.6514 32.2306 82.9435 32.229V32.2282ZM84.1809 33.8483C84.0099 34.5247 83.8453 35.2028 83.6872 35.8824C83.6735 35.9443 83.6599 36.0055 83.6454 36.069C83.6165 36.196 83.5883 36.323 83.5602 36.4509C83.5168 36.6455 83.4725 36.84 83.4291 37.0354C83.401 37.16 83.3736 37.2854 83.3455 37.4101C83.3326 37.468 83.319 37.525 83.3061 37.5845C83.2474 37.8499 83.2161 38.0774 83.2161 38.3508C84.1326 38.358 85.05 38.3636 85.9666 38.3677C86.3927 38.3693 86.8189 38.3717 87.2442 38.3757C87.6551 38.3789 88.0659 38.3813 88.4768 38.3821C88.6335 38.3821 88.7903 38.3837 88.9471 38.3853C89.1666 38.3878 89.3861 38.3878 89.6056 38.3878C89.6705 38.3888 89.7361 38.3899 89.8026 38.391C90.0904 38.3886 90.2569 38.3773 90.49 38.2012C90.6452 37.9841 90.6999 37.8008 90.7642 37.5411C90.7763 37.4913 90.7883 37.4414 90.8012 37.3892C90.847 37.2002 90.8912 37.0113 90.9347 36.8223C90.9548 36.7371 90.9749 36.6519 90.9958 36.5642C91.0633 36.2772 91.13 35.9894 91.196 35.7023C91.2179 35.6091 91.2399 35.5147 91.2619 35.4193C91.3669 34.953 91.4187 34.4829 91.4171 34.0091C91.1099 33.804 90.8623 33.8266 90.5061 33.8298C90.4378 33.8298 90.3702 33.8298 90.2995 33.8298C90.0735 33.8298 89.8476 33.8314 89.6225 33.8322C89.4657 33.8322 89.3089 33.8322 89.1529 33.8322C88.7405 33.8322 88.3288 33.8346 87.9164 33.8362C87.4967 33.8378 87.0762 33.8386 86.6557 33.8394C85.8307 33.841 85.0058 33.8442 84.1809 33.8475V33.8483Z" fill="#464646"/>
<path d="M33.682 32.2186C33.76 32.2186 33.838 32.2178 33.9192 32.217C34.1765 32.2162 34.433 32.2162 34.6902 32.2162C34.8695 32.2162 35.0496 32.2162 35.2289 32.2154C35.6052 32.2154 35.9807 32.2154 36.357 32.2154C36.8378 32.2154 37.3186 32.2146 37.7986 32.213C38.1692 32.2114 38.5399 32.2114 38.9105 32.2122C39.0874 32.2122 39.2651 32.2122 39.442 32.2106C39.6904 32.2098 39.9381 32.2106 40.1865 32.2106C40.2589 32.2106 40.3312 32.209 40.406 32.209C40.9873 32.2138 41.5051 32.3014 41.965 32.6729C42.3526 33.1658 42.3485 33.6474 42.2915 34.2504C42.2054 34.7786 42.0856 35.2996 41.9658 35.8206C41.9095 36.0643 41.8557 36.3079 41.8018 36.5523C41.4293 38.2139 40.9511 39.2391 40.3674 39.6277C39.8255 39.9565 39.2804 39.9831 38.6645 39.9814C38.5849 39.9814 38.5045 39.9823 38.4225 39.9823C38.1596 39.9831 37.8975 39.9831 37.6346 39.9831C37.4512 39.9831 37.2679 39.9831 37.0846 39.9839C36.7011 39.9839 36.3168 39.9839 35.9333 39.9839C35.442 39.9839 34.9516 39.9847 34.4603 39.9863C34.0816 39.9871 33.7029 39.9879 33.325 39.9871C33.1441 39.9871 32.9632 39.9871 32.7823 39.9887C32.529 39.9895 32.2758 39.9887 32.0225 39.9887C31.9485 39.9887 31.8738 39.9903 31.7974 39.9903C31.2209 39.9855 30.7554 39.9091 30.3236 39.4966C29.8227 38.7312 30.0205 37.9272 30.195 37.0789C30.2625 36.7613 30.3325 36.4454 30.404 36.1286C30.4587 35.8834 30.5126 35.6373 30.5656 35.3921C30.601 35.2337 30.6364 35.0761 30.6718 34.9177C30.6878 34.8454 30.7031 34.773 30.7192 34.6982C30.9073 33.8749 31.2064 33.1368 31.9019 32.6166C32.48 32.2645 33.0267 32.2162 33.6836 32.2178L33.682 32.2186ZM32.8844 34.17C32.8233 34.2772 32.7783 34.3895 32.7493 34.5069C32.7308 34.5704 32.7124 34.6339 32.6931 34.699C32.6762 34.7634 32.6601 34.8277 32.6424 34.8936C32.6271 34.9531 32.6119 35.0118 32.5958 35.0729C32.5507 35.2546 32.5097 35.4363 32.4695 35.6188C32.4551 35.6848 32.4406 35.7507 32.4253 35.8182C32.3948 35.9557 32.365 36.094 32.3361 36.2315C32.2902 36.4422 32.2428 36.6528 32.1946 36.8627C32.1656 36.9969 32.1367 37.132 32.1077 37.2663C32.0933 37.329 32.0788 37.3909 32.0635 37.456C32.0088 37.7213 31.9847 37.9087 32.0772 38.166C32.1801 38.3086 32.3299 38.3868 32.5266 38.4007C32.648 38.4032 32.7686 38.4032 32.89 38.4007C32.956 38.4007 33.0227 38.4015 33.0902 38.4024C33.3089 38.404 33.5284 38.4024 33.7471 38.4007C33.8991 38.4007 34.051 38.4007 34.203 38.4007C34.5222 38.4007 34.8406 38.3999 35.1598 38.3975C35.569 38.3951 35.9775 38.3951 36.3867 38.3975C36.7011 38.3983 37.0155 38.3975 37.329 38.3967C37.4802 38.3967 37.6305 38.3967 37.7809 38.3967C37.9916 38.3967 38.2022 38.3959 38.4129 38.3935C38.4756 38.3935 38.5375 38.3943 38.6018 38.3951C38.8872 38.3903 39.0424 38.3742 39.2707 38.1965C39.6784 37.6474 39.7507 36.8498 39.8947 36.1921C39.9325 36.02 39.971 35.848 40.0104 35.6759C40.1353 35.126 40.1981 34.5704 40.1986 34.0092C39.9003 33.8098 39.6695 33.8243 39.3238 33.8251C39.2595 33.8251 39.1952 33.8243 39.1284 33.8235C38.9154 33.8219 38.7015 33.8219 38.4884 33.8219C38.3405 33.8219 38.1918 33.821 38.0438 33.8202C37.7327 33.8194 37.4215 33.8186 37.1103 33.8194C36.7116 33.8194 36.3136 33.817 35.9148 33.8146C35.6084 33.813 35.3021 33.8122 34.9958 33.813C34.8486 33.813 34.7023 33.8122 34.5552 33.8106C34.3493 33.809 34.1443 33.8098 33.9385 33.8106C33.8779 33.8095 33.8168 33.8087 33.7552 33.8082C33.3612 33.813 33.153 33.883 32.882 34.1716L32.8844 34.17Z" fill="#464646"/>
<path d="M106.295 32.2186C106.373 32.2186 106.451 32.2178 106.531 32.217C106.788 32.2162 107.045 32.2162 107.301 32.2162C107.481 32.2162 107.66 32.2162 107.839 32.2154C108.215 32.2154 108.59 32.2154 108.966 32.2154C109.446 32.2154 109.926 32.2146 110.406 32.213C110.776 32.2114 111.146 32.2114 111.517 32.2122C111.694 32.2122 111.871 32.2122 112.047 32.2106C112.295 32.2098 112.543 32.2106 112.79 32.2106C112.863 32.2106 112.935 32.209 113.01 32.209C113.541 32.213 114.075 32.2813 114.505 32.6174C114.541 32.6641 114.576 32.7107 114.613 32.7581C114.65 32.8048 114.688 32.8506 114.726 32.8988C115.083 33.493 114.889 34.3163 114.747 34.9507C114.732 35.0223 114.717 35.093 114.702 35.167C114.669 35.3165 114.636 35.4669 114.603 35.6164C114.553 35.8424 114.505 36.0683 114.456 36.2942C114.061 38.1252 113.522 39.2613 112.839 39.7025C112.317 39.9573 111.838 39.9831 111.267 39.9814C111.186 39.9814 111.107 39.9823 111.025 39.9823C110.762 39.9831 110.499 39.9831 110.237 39.9831C110.054 39.9831 109.87 39.9831 109.687 39.9839C109.303 39.9839 108.919 39.9839 108.535 39.9839C108.044 39.9839 107.553 39.9847 107.062 39.9863C106.684 39.9871 106.305 39.9879 105.926 39.9871C105.746 39.9871 105.565 39.9871 105.384 39.9887C105.131 39.9895 104.876 39.9887 104.623 39.9887C104.549 39.9887 104.475 39.9903 104.398 39.9903C103.822 39.9855 103.356 39.9091 102.924 39.4966C102.424 38.7312 102.621 37.9272 102.796 37.0789C102.864 36.7613 102.934 36.4454 103.005 36.1286C103.06 35.8834 103.114 35.6373 103.167 35.3921C103.202 35.2337 103.238 35.0761 103.273 34.9177C103.289 34.8454 103.305 34.773 103.321 34.6982C103.526 33.7945 103.871 33.1199 104.598 32.5314C105.147 32.2403 105.687 32.2162 106.295 32.2178V32.2186ZM105.568 34.0092C105.32 34.3983 105.235 34.8188 105.139 35.2635C105.123 35.3366 105.107 35.4098 105.09 35.4854C105.057 35.6397 105.024 35.7941 104.991 35.9485C104.94 36.1849 104.887 36.4204 104.835 36.656C104.802 36.8064 104.77 36.9567 104.737 37.1071C104.721 37.177 104.705 37.2478 104.689 37.3201C104.613 37.6852 104.564 37.9328 104.764 38.2705C104.925 38.4321 105.254 38.3646 105.475 38.3654C105.542 38.3654 105.609 38.3659 105.676 38.367C105.896 38.3686 106.116 38.3694 106.336 38.3702C106.411 38.3702 106.485 38.3702 106.562 38.371C106.96 38.3726 107.356 38.3734 107.752 38.3742C108.162 38.375 108.573 38.3782 108.983 38.3814C109.298 38.3839 109.613 38.3839 109.927 38.3847C110.078 38.3847 110.23 38.3863 110.382 38.3879C110.593 38.3895 110.804 38.3895 111.016 38.3895C111.079 38.3906 111.142 38.3916 111.206 38.3927C111.492 38.3895 111.647 38.3758 111.876 38.1973C112.283 37.6474 112.356 36.8506 112.5 36.1921C112.538 36.02 112.577 35.848 112.616 35.6759C112.741 35.126 112.804 34.5704 112.804 34.0092C112.505 33.8098 112.274 33.8259 111.928 33.8275C111.863 33.8275 111.799 33.8275 111.732 33.8267C111.518 33.8267 111.305 33.8267 111.091 33.8267C110.942 33.8267 110.794 33.8267 110.645 33.8267C110.334 33.8267 110.022 33.8267 109.711 33.8267C109.312 33.8275 108.913 33.8267 108.514 33.8267C108.207 33.8267 107.9 33.8267 107.593 33.8267C107.446 33.8267 107.299 33.8267 107.152 33.8267C106.946 33.8267 106.74 33.8267 106.535 33.8275C106.474 33.8275 106.413 33.8275 106.35 33.8267C106.053 33.8291 105.816 33.8323 105.568 34.0092Z" fill="#464646"/>
<path d="M1.68844 32.2399C2.93387 32.2343 4.1793 32.2302 5.42472 32.2278C6.00281 32.2262 6.58171 32.2246 7.1598 32.2222C7.66392 32.2198 8.16884 32.2182 8.67297 32.2174C8.9399 32.2174 9.20683 32.2166 9.47377 32.215C9.77206 32.2133 10.0712 32.2125 10.3694 32.2133C10.4571 32.2125 10.5447 32.2117 10.6348 32.2109C11.2579 32.2133 11.8054 32.2704 12.2967 32.6781C12.7188 33.2031 12.6738 33.7667 12.6231 34.4115C12.562 34.828 12.4712 35.2341 12.3723 35.6425C12.3497 35.7454 12.3264 35.8483 12.3031 35.9545C12.0973 36.8228 11.7853 37.6035 11.0151 38.11C10.4531 38.4156 9.92 38.4429 9.29608 38.4405H9.06774C8.8193 38.4405 8.57085 38.4405 8.32241 38.4389C8.14955 38.4389 7.97749 38.4389 7.80462 38.4389C7.35116 38.4389 6.89769 38.4381 6.44422 38.4373C5.98111 38.4365 5.51799 38.4357 5.05568 38.4357C4.14794 38.4349 3.2394 38.4332 2.33166 38.4316C2.32201 38.4952 2.31236 38.5579 2.30191 38.623C2.28824 38.7074 2.27457 38.7918 2.2609 38.8787C2.24804 38.9615 2.23518 39.0451 2.22151 39.1303C2.16764 39.4101 2.08804 39.6851 2.01005 39.9593H0C0.160804 39.214 0.321608 38.4686 0.482412 37.7241C0.557186 37.3776 0.63196 37.0318 0.706734 36.6853C0.779095 36.3492 0.851457 36.014 0.923819 35.6779C0.951156 35.5516 0.978492 35.4254 1.00583 35.2984C1.22613 34.2773 1.45528 33.2586 1.68844 32.2407V32.2399ZM3.37688 33.8479C3.25065 34.1534 3.16462 34.4461 3.09467 34.7701C3.07377 34.869 3.05206 34.9679 3.03035 35.0692C3.00864 35.1721 2.98693 35.2743 2.96442 35.3804C2.94191 35.4833 2.9202 35.5862 2.89688 35.6923C2.81487 36.0659 2.7602 36.4428 2.73286 36.8228C3.63819 36.83 4.54271 36.8357 5.44804 36.8397C5.86854 36.8413 6.28824 36.8437 6.70874 36.8477C7.11397 36.8509 7.52 36.8533 7.92523 36.8542C8.0796 36.8542 8.23477 36.8558 8.38914 36.8574C8.60623 36.8598 8.82251 36.8598 9.0396 36.8598C9.10392 36.8606 9.16744 36.8622 9.23337 36.863C9.53085 36.8606 9.70935 36.8341 9.96502 36.6765C10.1861 36.4409 10.232 36.2359 10.3051 35.9231C10.318 35.8692 10.3309 35.8154 10.3445 35.7599C10.3815 35.6055 10.4161 35.4495 10.4515 35.2944C10.4699 35.222 10.4884 35.1488 10.5069 35.0741C10.5954 34.7147 10.6501 34.3802 10.6123 34.0079C10.3051 33.8029 10.0575 33.8254 9.70131 33.8286C9.63297 33.8286 9.56462 33.8286 9.49467 33.8286C9.26874 33.8286 9.04281 33.8302 8.81769 33.831C8.6609 33.831 8.50492 33.831 8.34814 33.831C7.93648 33.831 7.52402 33.8334 7.11236 33.8351C6.69186 33.8367 6.27136 33.8375 5.85166 33.8383C5.02673 33.8399 4.20181 33.8423 3.37688 33.8463V33.8479Z" fill="#464646"/>
<path d="M67.1357 32.2401H69.0654C69.0171 32.6742 68.9729 33.0618 68.8796 33.4807C68.8587 33.5755 68.8378 33.6704 68.8161 33.7685C68.7936 33.869 68.7711 33.9687 68.7478 34.0724C68.7245 34.1786 68.7011 34.2847 68.6778 34.39C68.5797 34.8362 68.4808 35.2833 68.3811 35.7295C68.32 36.0037 68.2597 36.2787 68.1994 36.5528C68.1657 36.7072 68.1311 36.8616 68.0965 37.0151C68.0756 37.1092 68.0555 37.2033 68.0338 37.3006C68.0153 37.3826 67.9968 37.4654 67.9783 37.5506C67.9435 37.7345 67.9304 37.9741 67.9389 38.2694H75.1751C75.4549 36.9867 75.7347 35.7038 76.0145 34.4206C76.0687 34.1729 76.1083 33.9909 76.1335 33.8746C76.16 33.7532 76.1866 33.631 76.2131 33.5096C76.2533 33.3255 76.2935 33.1414 76.3337 32.9572C76.3455 32.9026 76.3573 32.8476 76.3691 32.7924C76.4243 32.5432 76.4816 32.3588 76.5411 32.2393H78.4708C78.4108 32.7217 78.3615 33.0502 78.3229 33.225C78.31 33.2845 78.2971 33.344 78.2843 33.4059C78.2706 33.4686 78.2569 33.5321 78.2425 33.5964C78.228 33.6648 78.2127 33.7331 78.1974 33.8031C78.1492 34.0266 78.1001 34.2493 78.0511 34.4728C78.0173 34.6288 77.9836 34.784 77.949 34.94C77.8782 35.2648 77.8067 35.5904 77.7359 35.9152C77.6443 36.3325 77.5534 36.7506 77.4626 37.1679C77.3926 37.4887 77.3227 37.8095 77.2527 38.1311C77.2189 38.2855 77.1852 38.4391 77.1522 38.5934C77.1056 38.8081 77.0581 39.022 77.0115 39.2366C76.9978 39.301 76.9842 39.3653 76.9697 39.4312C76.9054 39.7228 76.8432 39.8986 76.7832 39.9587C76.6577 39.9675 76.5315 39.9699 76.4053 39.9707C76.3233 39.9707 76.2421 39.9715 76.1576 39.9723C76.0676 39.9723 75.9767 39.9723 75.8835 39.9723C75.7886 39.9723 75.6945 39.9731 75.5964 39.9739C75.3359 39.9755 75.0754 39.9763 74.8149 39.9771C74.6517 39.9771 74.4893 39.978 74.3261 39.9788C73.8163 39.9804 73.3066 39.9812 72.7968 39.982C72.2091 39.9828 71.6213 39.9852 71.0336 39.9884C70.5793 39.9908 70.1243 39.9924 69.67 39.9924C69.3982 39.9924 69.1273 39.9932 68.8563 39.9956C68.5532 39.9972 68.2501 39.9972 67.9462 39.9972C67.8569 39.9981 67.7677 39.9997 67.676 40.0005C67.1044 39.9964 66.6332 39.9257 66.2063 39.5189C65.7818 39.034 65.8083 38.5637 65.8485 37.9494C65.916 37.5177 66.0117 37.0931 66.1098 36.6678C66.1371 36.5472 66.1637 36.4266 66.1902 36.306C66.2601 35.9916 66.3317 35.6772 66.4033 35.3629C66.462 35.1056 66.519 34.8483 66.5769 34.5902C66.6959 34.0588 66.8149 33.5273 66.9355 32.9958C66.9572 32.9018 66.9781 32.8085 66.9998 32.712C67.0368 32.5587 67.0821 32.4017 67.1357 32.2409V32.2401Z" fill="#464646"/>
<path d="M97.5277 32.2402H99.5377C99.4822 32.7363 99.4155 33.2043 99.3078 33.6883C99.2933 33.7566 99.278 33.825 99.2627 33.8957C99.2137 34.1192 99.1647 34.3419 99.1156 34.5655C99.081 34.7214 99.0473 34.8774 99.0127 35.0326C98.9235 35.441 98.8334 35.8487 98.7434 36.2571C98.6517 36.6744 98.56 37.0917 98.4692 37.509C98.2899 38.3259 98.1098 39.1427 97.9297 39.9604H95.8392C96.1448 38.399 96.4792 36.8457 96.8234 35.2923C96.8788 35.0406 96.9343 34.789 96.9898 34.5373C97.0437 34.2937 97.0975 34.0501 97.1514 33.8065C97.1763 33.6907 97.202 33.5749 97.2278 33.4599C97.2632 33.2999 97.2985 33.1407 97.3339 32.9807C97.354 32.8899 97.3741 32.7998 97.3942 32.7066C97.4296 32.5581 97.4741 32.4035 97.5277 32.2426V32.2402Z" fill="#464646"/>
</g>
</g>
<defs>
<clipPath id="clip0_9_1292">
<rect width="160" height="39.9598" fill="white"/>
</clipPath>
</defs>
</svg>
