<svg width="1200" height="80" viewBox="0 0 1200 80" fill="none" xmlns="http://www.w3.org/2000/svg">
<g clip-path="url(#clip0_8_219)">
<g clip-path="url(#clip1_8_219)">
<path d="M73.8669 30.1759C74.5601 30.655 74.6875 30.7927 74.9653 31.626H75.4749C75.5327 31.4731 75.5913 31.3193 75.6508 31.1647C76.1452 30.3416 76.818 29.9772 77.7277 29.6994C79.4734 29.3477 81.1452 29.3961 82.6997 30.3008C83.8389 31.1291 84.2976 32.0771 84.6493 33.4099C84.7155 34.2228 84.7079 35.0307 84.7002 35.8436C84.7002 36.073 84.7002 36.3023 84.7002 36.5394C84.6977 37.2682 84.69 37.9996 84.6849 38.7284C84.6824 39.2254 84.6798 39.7223 84.6773 40.2167C84.6722 41.4298 84.662 42.6428 84.6518 43.8559H79.0453C79.03 43.2188 79.0147 42.5791 78.9994 41.9216C78.9841 41.3049 78.9688 40.6882 78.951 40.0715C78.9408 39.6433 78.9306 39.2126 78.9204 38.7845C78.9051 38.1678 78.8898 37.5511 78.872 36.9369C78.8669 36.7432 78.8643 36.5521 78.8592 36.3533C78.8524 35.689 78.7446 35.0468 78.5356 34.4267C77.9546 34.3842 77.3599 34.3842 76.7517 34.4267C76.1299 35.3594 76.1528 36.0806 76.1375 37.1612C76.1324 37.3523 76.1273 37.5434 76.1222 37.7397C76.1069 38.3487 76.0942 38.9603 76.084 39.5694C76.0738 39.9823 76.0636 40.3977 76.0534 40.8105C76.028 41.8248 76.0076 42.839 75.9872 43.8533H70.1258C70.1105 43.1933 70.0952 42.5358 70.0799 41.8554C70.0646 41.2182 70.0494 40.5837 70.0315 39.9466C70.0213 39.5032 70.0086 39.0597 70.0009 38.6163C69.9856 37.9818 69.9704 37.3447 69.9525 36.7101C69.9474 36.5113 69.9449 36.3125 69.9398 36.1061C69.9789 35.4945 69.871 34.9338 69.6161 34.4242C69.0283 34.3681 68.4337 34.3681 67.8322 34.4242C67.2104 35.3569 67.2334 36.0781 67.2181 37.1586C67.213 37.3497 67.2079 37.5409 67.2028 37.7371C67.1875 38.3462 67.1747 38.9578 67.1645 39.5669C67.1544 39.9797 67.1442 40.3951 67.134 40.808C67.1085 41.8222 67.0881 42.8365 67.0677 43.8508H61.4612V29.8421H66.558C66.6421 30.2626 66.7262 30.6831 66.8129 31.1163C66.9913 30.9583 67.1696 30.8003 67.3531 30.6372C69.188 29.2815 71.8664 28.9782 73.8669 30.1759Z" fill="#464646"/>
<path d="M114.466 29.8418H123.13C122.486 37.5227 120.274 44.3703 116.347 50.9937C116.257 51.144 116.168 51.2918 116.079 51.4473C115.901 51.7404 115.717 52.0309 115.526 52.3189C115.32 52.6298 115.127 52.9696 114.945 53.3382C114.578 53.9677 114.282 54.3729 113.701 54.8163C112.514 55.0661 111.372 55.01 110.164 54.9437C109.843 54.9335 109.522 54.9259 109.191 54.9157C108.401 54.8928 107.611 54.8571 106.821 54.8163C106.943 54.5742 107.068 54.3347 107.195 54.0849C111.219 46.1746 113.446 38.6542 114.466 29.8418Z" fill="#464646"/>
<path d="M11 25H16.3517C16.4358 26.9343 16.5199 28.8685 16.6065 30.8614L18.1356 29.842C19.7054 29.3196 21.4842 29.396 23.0082 30.0535C24.4225 30.9302 25.4164 32.3114 25.9108 33.8889C26.5046 36.4246 26.3823 38.8124 25.1284 41.134C24.2824 42.4032 23.4134 43.3308 21.9582 43.8583C20.3349 44.0775 18.6707 44.2788 17.2538 43.3384C17.0398 43.1728 16.8257 43.0097 16.6065 42.8389C16.5224 43.0912 16.4383 43.3435 16.3517 43.6035H11V25ZM17.1468 34.0953C16.2574 35.0637 16.2778 35.8996 16.2931 37.2069C16.3874 38.0938 16.6983 38.7411 17.1162 39.526C17.8935 39.9134 18.5535 39.842 19.4098 39.7808C20.0775 39.3145 20.1667 39.0392 20.4292 38.2518C20.4648 37.7548 20.4852 37.2528 20.4929 36.7533C20.5005 36.4908 20.5056 36.2283 20.5133 35.9582C20.4164 35.079 20.2049 34.6126 19.6646 33.9169C18.5968 33.5805 18.1228 33.5194 17.1468 34.0928V34.0953Z" fill="#464646"/>
<path d="M44.1294 29.842H49.7359C50.1793 31.0245 50.6024 32.1611 50.9643 33.3614C51.0424 33.6196 51.1214 33.8804 51.2013 34.1437C51.2811 34.4071 51.361 34.6721 51.4408 34.9389C51.5224 35.209 51.6039 35.4791 51.688 35.7569C51.8868 36.4169 52.0856 37.0795 52.2843 37.7421C52.9393 36.0678 53.4719 34.368 53.9892 32.6453C54.0708 32.3751 54.1523 32.105 54.2364 31.8272C54.4352 31.1672 54.634 30.5046 54.8328 29.842H60.4393C59.865 31.755 59.4318 33.0955 59.1396 33.8634C59.041 34.1217 58.9425 34.3824 58.844 34.6458C58.7395 34.9159 58.6375 35.186 58.5305 35.4638C58.4209 35.7492 58.3114 36.0347 58.1992 36.3303C57.9699 36.9317 57.7405 37.5306 57.5086 38.1295C57.1569 39.0444 56.8103 39.9592 56.4637 40.8741C56.2395 41.4603 56.0152 42.0464 55.791 42.63C55.689 42.9001 55.5871 43.1728 55.4801 43.4531C54.7053 45.4562 53.9128 47.5051 52.0295 48.6978C50.7578 49.2278 49.6544 49.2788 48.3037 49.2559C48.1126 49.2559 47.9214 49.2559 47.7252 49.2559C46.8103 49.2482 46.0433 49.1769 45.1513 48.9526C44.9831 47.607 44.8149 46.2615 44.6416 44.8751C45.396 44.9592 46.1503 45.0408 46.9072 45.1249C47.7405 45.13 48.2349 44.9924 48.9739 44.6203L49.2288 44.3655C49.1396 42.6096 48.7165 41.2284 48.0183 39.6254C47.9231 39.4011 47.828 39.1743 47.7329 38.945C47.4321 38.234 47.1289 37.5255 46.8231 36.817C46.5198 36.106 46.2191 35.395 45.9184 34.6815C45.7324 34.2406 45.5438 33.7997 45.3552 33.3588C45.2685 33.1575 45.1844 32.9562 45.0952 32.7472C45.0213 32.5714 44.9449 32.3981 44.8684 32.2171C44.5754 31.4399 44.3639 30.6346 44.1345 29.8369L44.1294 29.842Z" fill="#464646"/>
<path d="M40.6688 30.5754C42.3584 31.7986 43.1739 33.4423 43.6632 35.4326C43.7422 36.3577 43.7269 37.2904 43.7269 38.2206H33.2784C33.676 39.2264 34.1857 39.906 34.8075 40.2593C35.7147 40.3749 36.5557 40.2475 37.3304 39.8771C38.0261 39.3801 38.4517 39.4107 39.2978 39.4311C39.5654 39.4388 39.833 39.4439 40.1082 39.4515C41.2346 39.5127 42.3482 39.6171 43.4721 39.7497C43.1357 40.4224 42.7993 41.0952 42.4527 41.7884C42.2845 41.7884 42.626 41.7884 42.4527 41.7884C42.2183 42.0738 42.1826 42.0356 41.9634 42.2012C41.4538 42.5835 41.39 42.609 40.9441 42.8384C40.5414 43.0473 40.0903 43.2563 39.6801 43.4678C37.3635 44.5178 34.1857 44.426 31.8054 43.5825C29.8992 42.6854 28.6658 41.4393 27.8656 39.477C27.2871 37.0483 27.5266 34.9357 28.755 32.7644C31.2805 29.0412 36.8819 28.399 40.6714 30.5728L40.6688 30.5754ZM33.5333 34.398C33.4492 34.7344 33.3651 35.0708 33.2784 35.4174H38.1204C37.9488 34.4659 37.5241 33.7014 36.8462 33.1238C35.2382 32.8944 34.5501 33.0397 33.5333 34.398Z" fill="#464646"/>
<path d="M100.682 30.9811C102.702 33.0071 102.325 36.3303 102.376 38.9832C102.386 39.5184 102.399 40.0561 102.412 40.5912C102.425 41.0729 102.432 41.5545 102.443 42.0387C102.478 42.6937 102.55 43.2365 102.741 43.8583C101.864 43.8965 100.99 43.9169 100.113 43.9373C99.8635 43.9475 99.6163 43.9577 99.3589 43.9704C98.6785 43.9832 98.0592 43.9832 97.389 43.8583C97.0203 43.4302 96.7655 43.0054 96.6245 42.5841C96.4894 42.6733 96.3543 42.7625 96.2142 42.8542C96.0341 42.9698 95.8523 43.087 95.6688 43.2059C95.4904 43.3206 95.3146 43.4353 95.1311 43.5551C93.6683 44.3705 91.7748 44.3451 90.1719 43.9781C88.969 43.5576 87.8579 42.9893 87.1673 41.8731C86.6194 40.5173 86.7493 38.9781 87.2896 37.6478C88.9945 35.9429 91.2983 35.4332 93.5969 34.9873C93.8654 34.9329 94.1364 34.8777 94.4099 34.8216C95.0623 34.6891 95.7147 34.5591 96.3696 34.4317C96.3237 34.0953 96.2388 33.7555 96.1148 33.4123C93.9945 32.7064 91.5582 33.2314 89.4889 33.922V30.3542C92.4986 28.8481 97.9649 28.894 100.679 30.9837L100.682 30.9811ZM94.4609 37.9485C94.1635 38.0335 93.8637 38.1201 93.5613 38.2085C93.0125 38.3699 92.5903 38.7241 92.2947 39.2712C92.3864 40.0255 92.5113 40.2523 93.0592 40.8002C94.3283 40.92 95.1005 40.8206 96.1173 40.0357C96.7366 39.1081 96.6678 38.5805 96.627 37.4873C95.8599 37.4873 95.1948 37.7319 94.4609 37.9485Z" fill="#464646"/>
<path d="M131.54 29.8418H137.656C137.656 31.8168 137.649 33.4937 137.274 35.3846C137.23 35.6089 137.186 35.8357 137.142 36.065C136.27 40.2215 134.874 44.2659 132.802 47.9764C132.549 48.4682 132.358 48.96 132.167 49.4774C131.754 50.5018 131.357 51.2562 130.521 52.013C128.793 52.51 126.945 52.3953 125.169 52.2679C125.23 52.1354 125.292 52.0054 125.355 51.8678C128.673 44.7195 130.554 37.6425 131.54 29.8418Z" fill="#464646"/>
</g>
<g clip-path="url(#clip2_8_219)">
<path d="M248.328 20L254.332 33.6264L260.335 20H248.328ZM254.332 42.5699C256.404 42.5699 258.09 40.8908 258.09 38.8268C258.09 36.7629 256.405 35.0802 254.332 35.0802C252.258 35.0802 250.572 36.7531 250.572 38.8268C250.572 40.9006 252.252 42.5699 254.332 42.5699ZM251.085 52.5494C251.085 55.3919 253.644 59.9991 260.925 59.9991C268.206 59.9991 270.769 56.4743 270.769 52.5494V20H264.27L264.274 53.6798C264.274 55.5193 262.778 57.0622 260.93 57.0622C259.081 57.0622 257.58 55.5639 257.58 53.7244L257.576 46.8626H251.085V52.5485V52.5494ZM275.695 59.4147V20H288.685C291.192 20 295.179 22.0577 295.179 26.4217V33.1356C295.179 35.0989 293.457 38.5774 290.899 38.5774C293.457 38.5774 295.179 40.7812 295.179 42.4506V54.2651C295.179 56.2747 293.557 59.4139 288.685 59.4139H275.695V59.4147ZM285.732 36.9695C288.094 36.9695 288.685 36.5714 288.685 30.3937C288.685 24.2161 288.094 23.7244 285.732 23.7244H282.184V36.9597L285.732 36.9695ZM288.685 48.2852C288.685 42.1058 288.685 40.2957 286.12 40.2957H282.184V56.1758L286.119 56.1839C288.684 56.1839 288.684 54.4593 288.684 48.2843L288.685 48.2852ZM299.906 59.4147H319.591V46.8644H313.092L313.097 53.7253C313.097 55.5648 311.599 57.0631 309.749 57.0631C307.9 57.0631 306.402 55.5648 306.402 53.7253V20H299.905V59.4147H299.906Z" fill="#464646"/>
</g>
<g clip-path="url(#clip3_8_219)">
<path d="M444.524 26.4258C450.347 25.9492 457.524 28.2429 462.137 31.8115C462.427 32.0637 462.711 32.3199 462.993 32.5821C463.13 32.7012 463.267 32.8204 463.408 32.9435C465.795 35.1379 467.019 38.1148 467.164 41.32C467.325 40.8692 467.485 40.4184 467.648 39.9676C467.694 39.8405 467.74 39.7114 467.787 39.5804C468.651 37.1635 468.752 34.5501 467.688 32.1591C467.243 31.3766 466.721 30.6974 466.125 30.0242C465.793 29.627 465.559 29.2914 465.376 28.8088C465.442 28.6778 465.507 28.5467 465.575 28.4117C466.473 28.7036 467.118 29.206 467.821 29.8137C467.934 29.911 468.049 30.0103 468.167 30.1116C470.931 32.5304 473.014 35.5748 473.374 39.3004C473.509 43.2821 471.598 46.7951 468.951 49.6608C466.737 51.9704 463.927 53.5095 460.978 54.6772C460.648 54.8083 460.322 54.9473 459.995 55.0863C454.41 57.3164 448.306 57.4336 442.39 57.4416C442.179 57.4416 441.967 57.4416 441.754 57.4416C438.852 57.4416 436.73 57.3628 435.389 57.2052V56.6095C435.55 56.6015 435.711 56.5956 435.878 56.5896C443.436 56.248 451.991 55.6681 457.482 49.7839C458.694 48.358 460.213 46.251 460.213 44.2989C460.132 44.3982 460.05 44.4955 459.965 44.5968C456.595 48.5606 451.779 50.2268 446.709 50.8523C446.175 50.8762 445.654 50.8682 445.12 50.8523V50.058C445.313 50.0163 445.505 49.9766 445.704 49.9329C449.08 49.1723 452.279 47.9271 454.653 45.2918C454.76 45.1833 454.868 45.0734 454.978 44.9622C456.895 42.9385 458.035 40.0689 458.116 37.2867C458.025 35.122 457.093 33.2235 455.55 31.6983C452.309 28.9498 448.566 27.8159 444.524 26.8229V26.4258Z" fill="#464646"/>
<path d="M443.841 23.0001C444.048 23.0001 444.252 23.0001 444.465 23.0001C446.874 23.0061 449.269 23.0597 451.672 23.2484V23.8441C451.479 23.8521 451.288 23.862 451.09 23.8719C443.763 24.1831 436.991 26.1114 430.772 29.6569C430.323 29.913 429.432 30.8941 429.068 31.2913C429.015 31.4084 429.861 30.3519 429.861 30.3519C429.861 30.3519 429.376 31.1324 429.068 31.5137C428.038 32.8701 427.384 34.29 427.045 35.9561C427.168 35.7933 427.291 35.6285 427.418 35.4597C430.401 31.9188 435.475 30.1216 439.953 29.6013C440.346 29.5893 440.739 29.5834 441.133 29.5893C441.323 29.5893 441.512 29.5933 441.708 29.5953C441.849 29.5973 441.992 29.5993 442.137 29.6032V30.3976C441.964 30.4294 441.789 30.4612 441.613 30.4929C437.441 31.3111 433.485 33.307 431.048 36.8935C429.465 39.4454 428.737 42.1522 429.36 45.1211C430.315 48.0761 432.758 49.8852 435.407 51.2615C437.701 52.3994 440.201 53.2474 442.733 53.6326V54.2284C436.309 54.1112 428.715 52.1432 423.861 47.6888C421.561 45.2799 420.606 42.7003 419.895 39.5327C418.593 42.2653 418.289 44.7477 419.3 47.6749C419.814 48.8665 420.509 49.7641 421.432 50.6697C421.599 50.9239 421.662 51.2324 421.621 51.5951C421.575 51.7441 421.53 51.893 421.482 52.0459C420.513 51.5276 419.701 50.9656 418.9 50.2089C418.797 50.1116 418.694 50.0143 418.587 49.915C416.066 47.5141 414.001 44.5372 413.836 40.9527C413.771 37.2231 415.338 33.8908 417.886 31.2158C418.156 30.9398 418.432 30.6677 418.706 30.3956C418.853 30.2487 419 30.1017 419.153 29.9508C423.138 26.1954 428.733 24.5392 433.999 23.6455C434.166 23.6158 434.335 23.586 434.508 23.5542C437.608 23.012 440.702 22.9981 443.841 23.0001Z" fill="#464646"/>
<path d="M529.72 30.9932H545.011V34.965H534.883V39.3339H544.614V43.3057H534.883V48.2705H545.21V52.2423H529.72V30.9932Z" fill="#464646"/>
<path d="M503.903 30.9932H509.662C510.222 32.1688 510.78 33.3425 511.338 34.5182C511.419 34.6909 511.501 34.8637 511.586 35.0405C512.597 37.1713 513.602 39.3042 514.553 41.4648C514.727 41.9123 514.95 42.3274 515.224 42.71C515.324 42.4816 515.425 42.2532 515.528 42.0189C515.908 41.155 516.287 40.2912 516.666 39.4273C516.829 39.056 516.992 38.6866 517.155 38.3152C518.227 35.8706 519.306 33.4299 520.39 30.9912H526.149C525.404 32.7785 524.86 34.0468 524.519 34.7962C524.463 34.9193 524.405 35.0424 524.348 35.1695C524.167 35.5687 523.984 35.9679 523.802 36.3651C523.671 36.651 523.541 36.937 523.41 37.223C522.727 38.7203 522.042 40.2157 521.357 41.7131C521.154 42.1559 520.952 42.5968 520.749 43.0397C520.616 43.3316 520.483 43.6235 520.348 43.9135C519.319 46.1575 518.309 48.4095 517.316 50.6695C517.226 50.874 517.135 51.0806 517.042 51.2911C516.963 51.4698 516.884 51.6512 516.803 51.8352C516.676 52.1053 516.546 52.3065 516.414 52.4389C515.62 52.4667 514.825 52.4469 514.031 52.4389C512.978 50.3438 511.938 48.2427 510.915 46.1337C510.848 45.9927 510.78 45.8537 510.709 45.7087C509.662 43.552 508.641 41.3854 507.64 39.2089C507.072 37.9796 506.496 36.7543 505.905 35.5369C505.839 35.4039 505.776 35.2708 505.708 35.1318C505.392 34.4844 505.077 33.835 504.759 33.1896C504.646 32.9592 504.533 32.7269 504.419 32.4926C504.32 32.288 504.219 32.0854 504.115 31.8749C503.972 31.5519 503.901 31.258 503.901 30.9932H503.903Z" fill="#464646"/>
<path fill-rule="evenodd" clip-rule="evenodd" d="M573.807 40.1287C573.35 37.2491 571.648 34.8224 569.406 33.0351C565.853 30.513 560.642 29.8278 556.581 31.4662C553.503 32.9914 551.177 34.9475 549.908 38.2381C548.88 41.1693 549.312 43.9118 550.572 46.6822C552.015 49.2678 554.394 51.1763 557.2 52.0818L557.224 52.0898C557.774 52.2486 558.227 52.3797 558.702 52.7094C561.552 54.9852 565.565 56.8162 569.215 57.1459C569.565 57.126 569.863 57.0466 570.135 56.9195C570.571 56.7189 570.941 56.4031 571.354 56.0437L571.821 55.6167C572.363 55.158 572.899 54.6953 573.435 54.2306C573.614 54.0379 573.707 53.9386 573.755 53.8195C573.807 53.6924 573.807 53.5434 573.807 53.2336C571.703 53.3091 569.793 53.3806 567.795 52.6518C567.398 52.4949 566.993 52.3499 566.588 52.2149L566.062 52.0421V51.6449C567.871 51.4364 569.497 50.37 570.712 49.0355L571.026 48.6661L571.384 48.2649C573.342 45.9374 573.987 43.1115 573.807 40.1267V40.1287ZM568.246 40.1287C567.869 38.5142 567.104 37.0704 565.668 36.1688C562.568 34.5384 558.394 34.5821 556.045 37.5093C554.847 39.3145 554.635 41.4136 555.016 43.5345C555.542 45.1232 556.303 46.3585 557.719 47.2779C559.518 48.2808 561.949 48.4476 563.929 47.8896L564.471 47.6751C565.394 47.3256 566.117 46.8927 566.804 46.1738C568.25 44.3745 568.455 42.3807 568.244 40.1287H568.246Z" fill="#464646"/>
<path d="M438.17 34.3691C438.036 35.2032 437.602 35.8367 437.177 36.5536C436.539 37.8306 436.793 40.1243 437.202 41.4548C437.488 42.0427 437.8 42.5709 438.17 43.1071C438.251 43.2362 438.332 43.3653 438.416 43.4963C439.687 45.238 442.127 46.4196 444.127 47.0789V47.4761C440.624 47.766 436.547 46.7135 433.801 44.4972C432.591 43.399 431.985 42.0446 431.692 40.45C432.027 38.5058 433.022 37.1256 434.577 35.9539C436.228 34.8974 437.425 34.3691 438.17 34.3691Z" fill="#464646"/>
<path d="M443.333 33.5749C446.822 33.4081 450.919 34.266 453.679 36.4941C454.863 37.6162 455.63 38.8872 455.733 40.5394C455.707 41.9673 455 43.133 454.031 44.1478C452.927 45.0891 450.798 46.6838 449.291 46.6838C449.424 45.8497 449.859 45.2162 450.284 44.4993C450.953 43.1588 450.669 40.7857 450.272 39.3936C449.015 36.7444 446.633 35.1894 443.952 34.1726C443.748 34.1071 443.543 34.0416 443.333 33.974V33.5769V33.5749Z" fill="#464646"/>
<path fill-rule="evenodd" clip-rule="evenodd" d="M496.158 30.9932H489.803H489.799C489.021 32.8857 488.244 34.7783 487.485 36.6788C487.423 36.8354 487.362 36.9882 487.301 37.1409L487.299 37.1475C487.168 37.4762 487.037 37.8054 486.905 38.1346C486.774 38.4637 486.643 38.7928 486.512 39.1215C485.738 41.0696 484.959 43.0158 484.159 44.9521C484.13 45.0214 484.102 45.0896 484.074 45.1572C484.027 45.2717 483.98 45.3846 483.933 45.4982C483.88 45.625 483.828 45.7518 483.775 45.8787C483.468 46.6202 483.161 47.3626 482.85 48.1037C482.784 48.2645 482.717 48.4254 482.65 48.5863C482.583 48.7471 482.516 48.908 482.449 49.0688C482.386 49.2217 482.324 49.3707 482.263 49.5196C481.873 50.4391 481.627 51.2394 481.46 52.2423H487.021C487.127 51.963 487.232 51.6889 487.336 51.4168C487.426 51.182 487.515 50.9488 487.605 50.7151C487.665 50.5549 487.726 50.3967 487.787 50.2405C487.8 50.2058 487.813 50.1715 487.826 50.1375C487.862 50.043 487.897 49.9507 487.932 49.8572C488.032 49.5951 488.125 49.331 488.212 49.0649L488.411 48.0719H498.142C498.142 48.3367 498.19 48.5995 498.287 48.8603C498.356 49.0192 498.423 49.1767 498.489 49.333C498.52 49.4071 498.551 49.4798 498.582 49.5521C498.616 49.6329 498.65 49.713 498.684 49.7937C498.736 49.913 498.787 50.0308 498.837 50.1476C498.87 50.2253 498.903 50.3026 498.936 50.3795C499.011 50.5555 499.086 50.7301 499.16 50.9037C499.352 51.3549 499.541 51.7991 499.73 52.2423H505.49C505.49 51.9775 505.442 51.7273 505.347 51.4916C505.31 51.4156 505.275 51.3402 505.239 51.2652C505.206 51.1932 505.172 51.1218 505.138 51.0508C505.08 50.9273 505.024 50.8058 504.968 50.6855C504.944 50.6336 504.92 50.5819 504.896 50.5305C503.837 48.2765 502.828 46.0046 501.832 43.7228C499.973 39.465 498.072 35.2271 496.158 30.9932ZM492.982 36.1586C492.981 36.1581 492.981 36.1577 492.98 36.1572H492.982C492.982 36.1577 492.982 36.1581 492.982 36.1586ZM492.982 36.1586C492.827 36.4693 492.506 37.2632 492.019 38.5403L491.566 39.7259C491.545 39.782 491.523 39.8381 491.502 39.8941C491.424 40.0956 491.347 40.2964 491.271 40.4984C491.223 40.6255 491.175 40.7506 491.128 40.8737C490.695 42.0097 490.355 43.1258 490.004 44.2994H496.358C496.358 43.8559 496.21 43.2747 495.914 42.5558C495.846 42.3989 495.783 42.248 495.719 42.0951C495.586 41.7714 495.453 41.4497 495.318 41.1279C495.103 40.6215 494.891 40.1131 494.68 39.6047L494.68 39.6039C494.543 39.2725 494.406 38.9412 494.267 38.6098C494.2 38.449 494.134 38.2921 494.069 38.1352C494.029 38.039 493.99 37.9434 493.952 37.8487C493.703 37.2302 493.468 36.6474 492.982 36.1586Z" fill="#464646"/>
<path d="M442.737 53.6325V54.2283C441.754 54.1627 440.771 54.0972 439.758 54.0297V53.8311C440.765 53.6901 441.72 53.6106 442.737 53.6325Z" fill="#464646"/>
<path d="M444.524 26.4258H447.305V26.6244H445.915V27.0216C445.456 26.956 444.997 26.8905 444.524 26.823V26.4258Z" fill="#464646"/>
</g>
<g clip-path="url(#clip4_8_219)">
<mask id="mask0_8_219" style="mask-type:luminance" maskUnits="userSpaceOnUse" x="624" y="19" width="160" height="41">
<path d="M784 19.999H624V59.9588H784V19.999Z" fill="white"/>
</mask>
<g mask="url(#mask0_8_219)">
<path d="M632.442 19.999H745.97C745.918 20.4629 745.865 20.8802 745.765 21.3297C745.753 21.3868 745.74 21.4438 745.727 21.5033C745.685 21.6955 745.642 21.8877 745.599 22.0798C745.568 22.2221 745.537 22.3645 745.505 22.5068C745.418 22.9031 745.33 23.2995 745.242 23.6959C745.147 24.1269 745.052 24.5586 744.956 24.9896C744.757 25.8941 744.556 26.7986 744.355 27.7031C744.158 28.594 743.961 29.4857 743.764 30.3765C742.779 34.826 741.793 39.2754 740.805 43.724C740.793 43.7803 740.78 43.8358 740.767 43.8937C740.519 45.0137 740.269 46.1345 740.02 47.2553H733.266C733.327 46.7129 733.381 46.3339 733.428 46.1184C733.444 46.045 733.46 45.9707 733.476 45.8957C733.493 45.8177 733.511 45.7389 733.528 45.6585C733.547 45.5738 733.566 45.4883 733.585 45.402C733.646 45.1214 733.708 44.8416 733.77 44.561C733.813 44.3624 733.857 44.1638 733.9 43.9645C733.992 43.5431 734.085 43.121 734.177 42.6997C734.31 42.0991 734.442 41.4977 734.573 40.8971C734.978 39.0487 735.384 37.2002 735.794 35.3526C735.838 35.1548 735.881 34.9578 735.925 34.76C736.04 34.2414 736.155 33.7228 736.271 33.2051C736.326 32.9566 736.382 32.7074 736.437 32.4581C736.456 32.3745 736.475 32.2909 736.495 32.204C736.864 30.5365 737.127 28.7645 736.187 27.2312C735.559 26.309 734.698 25.9134 733.626 25.6593C732.652 25.4824 731.66 25.5234 730.673 25.5242C730.46 25.5242 730.245 25.5242 730.031 25.5226C729.512 25.5218 728.993 25.5218 728.474 25.5218C728.051 25.5218 727.629 25.5218 727.206 25.5218C727.145 25.5218 727.085 25.5218 727.023 25.5218C726.9 25.5218 726.778 25.5218 726.655 25.5218C725.507 25.521 724.359 25.5218 723.211 25.5218C722.164 25.5218 721.116 25.5218 720.068 25.5194C718.99 25.5178 717.911 25.517 716.833 25.5178C716.229 25.5178 715.625 25.5178 715.02 25.517C714.505 25.5162 713.991 25.5162 713.476 25.517C713.215 25.517 712.953 25.517 712.691 25.517C710.786 25.5114 708.906 25.6127 707.297 26.7536C707.226 26.8034 707.155 26.8541 707.083 26.9056C705.314 28.2531 704.62 30.2672 704.175 32.3624C704.147 32.4895 704.119 32.6165 704.092 32.7427C704.035 33.0032 703.978 33.2646 703.922 33.5259C703.844 33.8869 703.765 34.2479 703.686 34.6089C703.673 34.6652 703.661 34.7214 703.648 34.7801C703.623 34.8943 703.598 35.0077 703.573 35.1218C703.51 35.4113 703.446 35.7007 703.383 35.9902C703.37 36.0489 703.357 36.1068 703.344 36.1671C703.317 36.2869 703.292 36.4059 703.265 36.5257C703.196 36.8424 703.126 37.1592 703.057 37.476C702.927 38.0718 702.796 38.6684 702.665 39.2641C702.431 40.3335 702.197 41.402 701.963 42.4714C701.894 42.7841 701.826 43.0969 701.758 43.4097C701.615 44.065 701.471 44.7202 701.327 45.3755C701.272 45.6256 701.217 45.8756 701.163 46.1257C701.134 46.2583 701.105 46.3918 701.075 46.5245C701.063 46.5823 701.05 46.6402 701.037 46.6997C700.982 46.9511 700.924 47.1366 700.864 47.2561H671.437C671.537 46.6571 671.64 46.0678 671.772 45.476C671.788 45.4044 671.803 45.3321 671.82 45.2581C671.87 45.033 671.92 44.8079 671.969 44.5827C672.003 44.4284 672.038 44.274 672.072 44.1196C672.154 43.745 672.238 43.3695 672.321 42.9948C672.366 42.9948 672.411 42.9948 672.457 42.9948C675.126 42.9916 677.796 42.9876 680.466 42.9803C680.787 42.9803 681.108 42.9787 681.43 42.9779C681.494 42.9779 681.557 42.9779 681.623 42.9779C682.656 42.9755 683.688 42.9739 684.72 42.9731C685.782 42.9723 686.843 42.9699 687.904 42.9667C688.558 42.9651 689.212 42.9634 689.865 42.9634C690.315 42.9634 690.765 42.9618 691.215 42.9602C691.473 42.9594 691.732 42.9586 691.99 42.9594C694.398 42.9643 696.746 42.6627 698.546 40.9003C700.269 39.1395 700.623 36.6913 701.125 34.3813C701.179 34.1337 701.233 33.8869 701.288 33.6392C701.341 33.3972 701.394 33.1552 701.447 32.9132C701.472 32.799 701.497 32.6857 701.522 32.5715C701.906 30.8243 702.281 29.0057 701.36 27.3622C700.64 26.2704 699.6 25.9086 698.37 25.6288C698.308 25.6143 698.246 25.5998 698.182 25.5854C697.949 25.5452 697.732 25.5379 697.496 25.5371C697.4 25.5371 697.304 25.5366 697.207 25.5355C697.102 25.5355 696.999 25.5355 696.891 25.5355C696.779 25.5355 696.667 25.5355 696.555 25.5347C696.247 25.5339 695.939 25.5331 695.631 25.5323C695.299 25.5323 694.967 25.5307 694.634 25.5299C694.058 25.5283 693.483 25.5267 692.908 25.5251C692.076 25.5234 691.243 25.521 690.411 25.5186C689.061 25.5146 687.711 25.5114 686.361 25.5082C685.05 25.505 683.739 25.5017 682.427 25.4985C682.346 25.4985 682.265 25.4985 682.182 25.4985C681.777 25.4977 681.371 25.4961 680.966 25.4953C677.602 25.4865 674.237 25.4776 670.873 25.4696C670.862 25.5339 670.852 25.5982 670.841 25.6641C670.827 25.7494 670.813 25.8346 670.798 25.923C670.784 26.0075 670.771 26.0911 670.756 26.1779C670.685 26.5896 670.595 26.9964 670.505 27.404C670.485 27.4962 670.465 27.5895 670.444 27.6838C670.389 27.9371 670.333 28.1896 670.277 28.4428C670.217 28.7154 670.157 28.9888 670.097 29.2613C669.994 29.7309 669.891 30.2004 669.787 30.67C669.625 31.4081 669.463 32.147 669.301 32.8851C669.26 33.0732 669.218 33.2605 669.177 33.4487L669.094 33.8266C669.011 34.2085 668.927 34.5904 668.843 34.9715C668.466 36.6897 668.089 38.4087 667.715 40.1277C667.666 40.3536 667.616 40.5795 667.567 40.8063C667.368 41.7172 667.169 42.6274 666.971 43.5383C666.864 44.0304 666.756 44.5232 666.648 45.0153C666.609 45.1954 666.57 45.3747 666.531 45.5548C666.478 45.7984 666.425 46.042 666.372 46.2865C666.357 46.358 666.341 46.4288 666.325 46.5027C666.311 46.5676 666.297 46.6333 666.282 46.6997C666.27 46.756 666.258 46.8115 666.245 46.8694C666.213 47.0012 666.172 47.1307 666.128 47.2593H662.993C663.053 46.6563 663.107 46.2449 663.156 46.0252C663.173 45.9496 663.189 45.874 663.206 45.796C663.223 45.7156 663.242 45.636 663.26 45.5532C663.28 45.4656 663.299 45.3787 663.318 45.2887C663.383 44.9984 663.447 44.7074 663.511 44.4171C663.557 44.2081 663.604 43.999 663.649 43.7908C663.748 43.3421 663.847 42.8943 663.947 42.4457C664.104 41.7381 664.26 41.0306 664.416 40.323C664.469 40.081 664.523 39.839 664.576 39.597C664.589 39.5364 664.603 39.4753 664.616 39.4137C664.712 38.9803 664.807 38.5462 664.903 38.1128C665.291 36.3584 665.676 34.604 666.059 32.8489C666.072 32.7886 666.086 32.7291 666.099 32.6672C666.253 31.9604 666.407 31.2545 666.562 30.5486C666.698 29.923 666.835 29.2983 666.972 28.6728C667.199 27.6324 667.427 26.592 667.654 25.5508C665.903 25.524 664.134 25.4972 662.348 25.4704C662.321 25.7092 662.295 25.948 662.267 26.194C661.684 28.8738 661.1 31.5536 660.499 34.3146H638.874C638.974 33.7156 639.077 33.1263 639.207 32.5345C639.223 32.4597 639.24 32.3841 639.257 32.307C639.31 32.0625 639.364 31.8181 639.418 31.5729C639.456 31.4016 639.493 31.2304 639.531 31.0591C639.608 30.7021 639.686 30.3452 639.765 29.9882C639.866 29.5299 639.966 29.0716 640.066 28.6133C640.143 28.2603 640.22 27.9082 640.298 27.5552C640.335 27.3864 640.372 27.2167 640.408 27.0479C640.46 26.8123 640.511 26.5775 640.563 26.3427C640.578 26.2728 640.593 26.2028 640.609 26.1305C640.679 25.8099 640.745 25.5899 640.804 25.4704H635.498C635.391 26.001 635.285 26.5317 635.176 27.0784C635.096 27.4539 635.015 27.8294 634.932 28.2049C634.91 28.3062 634.888 28.4075 634.865 28.512C634.804 28.7862 634.744 29.0603 634.684 29.3345C634.619 29.6304 634.554 29.9255 634.489 30.2205C634.378 30.7255 634.267 31.2304 634.156 31.7353C633.983 32.5249 633.81 33.3136 633.636 34.1031C633.578 34.3685 633.52 34.6346 633.461 34.9007C633.446 34.9667 633.432 35.0326 633.418 35.1001C633.315 35.5665 633.213 36.0328 633.11 36.4991C632.618 38.7399 632.127 40.9807 631.637 43.2215C631.501 43.843 631.364 44.4646 631.228 45.0861C631.07 45.8105 630.911 46.5349 630.752 47.2593H626.412C626.825 45.316 627.246 43.3751 627.675 41.435C627.688 41.3803 627.7 41.3254 627.711 41.2702C627.864 40.5795 628.018 39.8889 628.171 39.1982C628.32 38.522 628.47 37.8467 628.62 37.1713C628.675 36.9196 628.732 36.6672 628.787 36.4155C628.801 36.3528 628.815 36.2901 628.829 36.2258C628.913 35.8447 628.998 35.4635 629.082 35.0824C629.446 33.4382 629.811 31.794 630.174 30.149C630.249 29.8105 630.324 29.472 630.398 29.1335C630.447 28.9132 630.496 28.6929 630.545 28.4726C630.557 28.4187 630.569 28.3649 630.581 28.3094C630.708 27.7329 630.836 27.1564 630.963 26.5799C631.071 26.0919 631.178 25.603 631.287 25.115C631.325 24.9397 631.364 24.7645 631.403 24.5892C631.74 23.0591 632.091 21.5315 632.44 20.0038L632.442 19.999Z" fill="#464646"/>
<path d="M749.025 19.999H784C783.379 22.9192 782.914 25.0668 782.607 26.4416C782.572 26.596 782.538 26.7496 782.504 26.9039C782.486 26.9819 782.468 27.0599 782.451 27.1403C782.298 27.8254 782.145 28.5112 781.992 29.197C781.932 29.4704 781.871 29.7437 781.81 30.0171C781.342 32.118 780.877 34.2197 780.412 36.3206C780.33 36.6905 780.248 37.0611 780.166 37.431C779.728 39.4121 779.289 41.394 778.853 43.3759C778.824 43.5102 778.794 43.6445 778.765 43.7787C778.647 44.315 778.529 44.8505 778.411 45.3868C778.356 45.6376 778.301 45.8885 778.246 46.1393C778.226 46.2262 778.208 46.3138 778.188 46.4038C778.171 46.4818 778.153 46.5606 778.136 46.641C778.121 46.7078 778.107 46.7753 778.091 46.8445C778.064 46.9581 778.023 47.0953 777.97 47.2561H775.477C775.379 47.0599 775.374 46.908 775.356 46.6893C775.151 44.3946 774.717 42.1401 774.03 39.9395C774.008 39.868 773.986 39.7964 773.963 39.7224C772.642 35.4362 770.331 31.3928 767.357 28.04C767.258 27.9259 767.159 27.8125 767.06 27.6983C766.972 27.5978 766.882 27.4973 766.794 27.3968C766.745 27.3397 766.695 27.2834 766.644 27.2248C766.252 26.7793 765.841 26.3548 765.422 25.9343C765.369 25.8804 765.316 25.8274 765.262 25.7719C764.901 25.4125 764.527 25.074 764.141 24.7427C764.059 24.6712 763.977 24.5996 763.895 24.5281C762.78 23.5721 761.598 22.7206 760.362 21.9287C760.311 21.8965 760.261 21.8638 760.209 21.8306C759.908 21.6092 759.584 21.4583 759.239 21.3779C759.008 21.4752 758.961 21.5998 758.846 21.8201C758.804 21.8989 758.763 21.9777 758.72 22.0581C758.677 22.1433 758.633 22.2278 758.588 22.3154C758.496 22.4907 758.403 22.6668 758.31 22.842C758.264 22.9313 758.218 23.0197 758.169 23.1114C757.959 23.5102 757.741 23.9058 757.523 24.3005C757.449 24.434 757.376 24.5667 757.303 24.7001C757.25 24.795 757.198 24.8891 757.146 24.9839C757.2 25.0032 757.254 25.0225 757.311 25.0426C758.37 25.4985 759.305 26.2816 760.201 26.994C760.283 27.0591 760.365 27.1234 760.449 27.1902C761.305 27.8768 762.089 28.6326 762.866 29.4045C762.948 29.4849 763.029 29.5653 763.11 29.6449C763.652 30.1803 764.15 30.7375 764.623 31.3357C764.706 31.437 764.788 31.5375 764.871 31.638C768.501 36.0963 770.726 41.5106 771.136 47.2553H766.07C765.951 46.6587 765.875 46.2543 765.844 46.042C764.989 40.6334 762.39 35.3261 758.03 31.8985C757.935 31.8197 757.84 31.7409 757.746 31.6621C756.911 30.9659 756.035 30.3387 755.136 29.7277C755.087 29.6939 755.038 29.6609 754.989 29.6264C754.771 29.4784 754.595 29.3659 754.332 29.3257C754.311 29.3948 754.29 29.4645 754.268 29.5347C754.168 29.8185 754.041 30.0629 753.894 30.3259C753.475 31.0929 753.106 31.8857 752.732 32.6768C752.651 32.8473 752.568 33.0169 752.482 33.1858C752.552 33.2067 752.622 33.2276 752.693 33.2493C754.64 33.9504 756.437 35.9178 757.607 37.5484C757.717 37.7011 757.829 37.8515 757.942 38.0018C758.862 39.2545 759.628 40.6205 760.281 42.03C760.307 42.0863 760.334 42.1417 760.36 42.1996C761.059 43.7232 761.809 45.5564 761.809 47.2561H756.503C756.317 46.6193 756.129 45.9761 755.94 45.3265C755.263 43.5021 754.399 41.825 753.126 40.3415C753.06 40.2635 752.994 40.1864 752.926 40.106C751.998 39.039 750.816 38.1232 749.427 37.7687C749.4 37.8217 749.372 37.8756 749.344 37.9303C748.773 39.039 748.192 40.1405 747.578 41.226C747.629 41.2565 747.682 41.2871 747.735 41.3176C748.723 41.919 749.543 42.6233 750.231 43.5576C750.291 43.6388 750.352 43.72 750.414 43.8028C751.525 45.3514 752.08 46.5025 752.08 47.2561H742.995C743.411 45.3136 743.827 43.3711 744.258 41.4318C744.307 41.2107 744.356 40.9904 744.405 40.7693C744.508 40.3037 744.611 39.8382 744.715 39.3727C744.878 38.6378 745.04 37.9021 745.204 37.1673C745.26 36.9156 745.315 36.6631 745.371 36.4115C745.385 36.3488 745.399 36.2861 745.413 36.2217C745.498 35.8406 745.582 35.4595 745.667 35.0784C746.032 33.4342 746.395 31.79 746.759 30.145C746.834 29.8065 746.909 29.468 746.984 29.1295C747.032 28.9092 747.081 28.6889 747.13 28.4686C747.141 28.4147 747.153 28.3608 747.165 28.3054C747.293 27.7289 747.42 27.1524 747.548 26.5759C747.656 26.0879 747.764 25.599 747.871 25.111C747.911 24.9357 747.949 24.7604 747.988 24.5852C748.326 23.0551 748.676 21.5275 749.025 19.9998V19.999Z" fill="#464646"/>
<path d="M712.21 29.6971C712.288 29.6971 712.366 29.6968 712.445 29.6963C712.704 29.6955 712.962 29.6963 713.22 29.6963C713.406 29.6963 713.592 29.6955 713.778 29.6947C714.282 29.6939 714.785 29.6947 715.289 29.6947C715.817 29.6947 716.344 29.6947 716.872 29.6947C717.815 29.6947 718.757 29.6947 719.699 29.6963C720.553 29.6971 721.407 29.6971 722.261 29.6963C723.253 29.6947 724.246 29.6947 725.239 29.6955C725.764 29.6955 726.289 29.6955 726.814 29.6955C727.308 29.6955 727.801 29.6955 728.295 29.6963C728.476 29.6963 728.657 29.6963 728.838 29.6963C729.085 29.6963 729.332 29.6963 729.58 29.6979C729.651 29.6979 729.722 29.6971 729.796 29.6963C730.255 29.7003 730.596 29.7783 731.015 29.9697C731.391 30.358 731.364 30.8026 731.36 31.3148C731.328 31.9862 731.153 32.6422 731.005 33.2951C730.971 33.4503 730.937 33.6054 730.903 33.7598C730.833 34.0822 730.761 34.4046 730.689 34.7263C730.595 35.1403 730.505 35.5536 730.413 35.9677C730.326 36.3632 730.238 36.758 730.151 37.1536C730.135 37.2292 730.118 37.3047 730.1 37.3827C730.054 37.595 730.006 37.8065 729.959 38.0187C729.944 38.0822 729.93 38.1457 729.916 38.2109C729.851 38.4992 729.788 38.6732 729.729 38.7327C729.613 38.7407 729.496 38.7423 729.38 38.7423C729.304 38.7423 729.229 38.7423 729.15 38.7423C729.066 38.7423 728.982 38.7423 728.895 38.7423C728.806 38.7423 728.717 38.7423 728.626 38.7423C728.326 38.7423 728.027 38.7423 727.727 38.7423C727.513 38.7423 727.299 38.7423 727.085 38.7423C726.624 38.7423 726.161 38.7423 725.7 38.7423C725.032 38.7423 724.364 38.7415 723.697 38.7415C722.614 38.7415 721.531 38.7415 720.448 38.7399C719.395 38.7399 718.343 38.7383 717.29 38.7383C717.226 38.7383 717.161 38.7383 717.094 38.7383C716.769 38.7383 716.444 38.7383 716.119 38.7383C713.419 38.7383 710.72 38.7359 708.02 38.7343C708.032 38.6193 708.045 38.5035 708.057 38.3886C708.064 38.3242 708.072 38.2599 708.078 38.194C708.106 37.9665 708.15 37.7462 708.199 37.5226C708.219 37.4334 708.239 37.3449 708.259 37.2533C708.28 37.1592 708.301 37.0651 708.323 36.9679C708.345 36.8682 708.367 36.7674 708.39 36.6655C708.449 36.4002 708.508 36.1357 708.567 35.8704C708.649 35.5037 708.731 35.1363 708.812 34.7697C708.858 34.5646 708.904 34.3588 708.95 34.1538C709.056 33.677 709.161 33.201 709.262 32.7234C709.279 32.639 709.297 32.5546 709.315 32.4678C709.348 32.3126 709.381 32.1574 709.412 32.0022C709.565 31.2778 709.799 30.5228 710.427 30.0702C710.976 29.7453 711.587 29.6955 712.21 29.7003V29.6971Z" fill="#464646"/>
<path d="M675.216 29.8079C677.796 29.8023 680.377 29.7982 682.957 29.7958C683.262 29.7958 683.567 29.7958 683.871 29.795C683.932 29.795 683.993 29.795 684.056 29.795C685.037 29.7942 686.02 29.7918 687.001 29.7902C688.009 29.7878 689.017 29.787 690.025 29.7862C690.646 29.7862 691.268 29.7846 691.89 29.783C692.367 29.7814 692.843 29.7814 693.321 29.7814C693.516 29.7814 693.712 29.7814 693.907 29.7798C694.174 29.779 694.441 29.779 694.708 29.7798C694.785 29.7798 694.862 29.7781 694.942 29.7773C695.461 29.7806 695.953 29.8312 696.359 30.189C696.883 31.3339 696.213 33.0449 695.944 34.2099C695.891 34.4391 695.841 34.669 695.79 34.8981C695.74 35.1225 695.69 35.3468 695.639 35.5711C695.604 35.7271 695.569 35.8831 695.535 36.0391C695.261 37.2124 694.921 37.9762 694.513 38.3305C693.93 38.6095 693.394 38.6988 692.753 38.6907C692.67 38.6907 692.586 38.6907 692.5 38.6915C692.223 38.6915 691.945 38.6907 691.668 38.6883C691.469 38.6883 691.268 38.6883 691.069 38.6883C690.64 38.6883 690.212 38.6883 689.783 38.6859C689.163 38.6835 688.543 38.6827 687.923 38.6819C686.917 38.6819 685.911 38.6786 684.905 38.6762C683.928 38.673 682.952 38.6706 681.976 38.6698C681.915 38.6698 681.855 38.6698 681.793 38.6698C681.491 38.6698 681.188 38.6698 680.885 38.669C678.379 38.6658 675.873 38.6602 673.368 38.6529C673.411 38.0965 673.497 37.5635 673.619 37.0192C673.637 36.9404 673.654 36.8624 673.672 36.7812C673.728 36.5247 673.785 36.2682 673.843 36.0109C673.882 35.8316 673.922 35.6523 673.962 35.4738C674.066 35.0043 674.169 34.5355 674.274 34.066C674.38 33.586 674.486 33.1068 674.592 32.6268C674.8 31.6869 675.008 30.7478 675.217 29.8079H675.216Z" fill="#464646"/>
<path d="M637.91 38.5723H659.538C659.294 39.7904 659.049 41.0052 658.783 42.2177C658.751 42.3624 658.719 42.5071 658.688 42.6519C658.623 42.9502 658.558 43.2476 658.492 43.5459C658.407 43.9286 658.324 44.3114 658.241 44.6933C658.176 44.99 658.111 45.2858 658.045 45.5825C658.014 45.724 657.984 45.8647 657.953 46.0062C657.91 46.2016 657.868 46.397 657.824 46.5916C657.812 46.65 657.799 46.7087 657.786 46.7676C657.727 47.0324 657.668 47.1946 657.608 47.2541C657.493 47.2621 657.377 47.2637 657.262 47.2637C657.187 47.2637 657.111 47.2637 657.034 47.2637C656.95 47.2637 656.867 47.2637 656.781 47.2637C656.692 47.2637 656.605 47.2637 656.514 47.2637C656.216 47.2637 655.919 47.2637 655.621 47.2637C655.409 47.2637 655.197 47.2637 654.985 47.2637C654.526 47.2637 654.068 47.2637 653.61 47.2637C652.947 47.2637 652.285 47.2629 651.621 47.2629C650.546 47.2629 649.471 47.2629 648.396 47.2613C647.352 47.2613 646.308 47.2597 645.262 47.2597C645.198 47.2597 645.134 47.2597 645.068 47.2597C644.745 47.2597 644.422 47.2597 644.1 47.2597C641.42 47.2597 638.741 47.2573 636.061 47.2557C636.115 46.8006 636.166 46.4635 636.215 46.2442C636.229 46.1791 636.243 46.1132 636.258 46.0464C636.273 45.9773 636.289 45.9073 636.305 45.8366C636.321 45.7618 636.338 45.687 636.355 45.6099C636.408 45.3646 636.462 45.1186 636.516 44.8734C636.554 44.7021 636.591 44.5309 636.629 44.3596C636.728 43.9094 636.827 43.4599 636.925 43.0105C637.007 42.643 637.087 42.2748 637.167 41.9073C637.264 41.4692 637.36 41.031 637.456 40.592C637.475 40.5083 637.493 40.4247 637.512 40.3387C637.564 40.1023 637.615 39.8659 637.668 39.6296C637.683 39.5596 637.698 39.4897 637.714 39.4173C637.729 39.353 637.742 39.2886 637.758 39.2219C637.77 39.1664 637.783 39.1102 637.795 39.0531C637.831 38.8923 637.871 38.7331 637.911 38.5731L637.91 38.5723Z" fill="#464646"/>
<path d="M707.055 42.9941H728.764C728.709 43.5449 728.641 44.0571 728.52 44.5925C728.504 44.6641 728.489 44.7356 728.472 44.8096C728.439 44.9592 728.406 45.1087 728.372 45.2591C728.322 45.489 728.271 45.719 728.22 45.9489C728.188 46.0952 728.155 46.2408 728.123 46.3871C728.108 46.4563 728.093 46.5246 728.077 46.5953C728.005 46.9164 727.939 47.1367 727.879 47.2563H706.171C706.226 46.7055 706.294 46.1933 706.415 45.6579C706.431 45.5863 706.446 45.5147 706.463 45.4408C706.496 45.2912 706.529 45.1417 706.562 44.9913C706.613 44.7614 706.664 44.5314 706.714 44.3015C706.747 44.1551 706.78 44.0096 706.812 43.8633C706.827 43.7941 706.842 43.7258 706.858 43.655C706.929 43.334 706.995 43.1137 707.055 42.9941Z" fill="#464646"/>
<path d="M640.724 52.2399C641.969 52.2343 643.214 52.2302 644.46 52.2278C645.038 52.2262 645.617 52.2246 646.195 52.2222C646.699 52.2198 647.203 52.2182 647.708 52.2174C647.975 52.2174 648.242 52.2166 648.509 52.215C648.807 52.2133 649.106 52.2125 649.405 52.2133C649.492 52.2125 649.58 52.2117 649.67 52.2109C650.205 52.2133 650.792 52.2302 651.223 52.5872C651.572 52.9748 651.679 53.3727 651.674 53.8841C651.64 54.3408 651.536 54.7878 651.442 55.2357C651.423 55.3362 651.403 55.4359 651.382 55.5396C651.215 56.3492 651.011 57.298 650.372 57.8688C650.057 58.0465 649.737 58.2033 649.407 58.3512C649.521 58.6793 649.68 58.9245 649.889 59.2003C650.076 59.4479 650.238 59.6803 650.372 59.9593C650.017 60.0019 649.663 60.0268 649.307 60.0493C649.208 60.0614 649.108 60.0734 649.006 60.0863C648.661 60.1024 648.44 60.0952 648.121 59.9593C648.008 59.7928 647.929 59.6216 647.845 59.4391C647.667 59.0628 647.499 58.7581 647.156 58.512C646.275 58.2692 645.309 58.3689 644.406 58.4123C644.063 58.4276 643.72 58.4341 643.378 58.4413C642.707 58.4566 642.037 58.4823 641.367 58.512C641.261 58.9896 641.155 59.4672 641.045 59.9593H639.035C639.129 59.3949 639.222 58.8393 639.346 58.2821C639.359 58.2178 639.374 58.1534 639.388 58.0875C639.434 57.8793 639.479 57.6718 639.526 57.4636C639.558 57.3173 639.59 57.1717 639.621 57.0254C639.688 56.7215 639.755 56.4176 639.821 56.1136C639.908 55.7237 639.993 55.3338 640.079 54.9438C640.145 54.6431 640.211 54.3424 640.277 54.0425C640.308 53.8986 640.34 53.7547 640.371 53.6107C640.416 53.4105 640.459 53.2103 640.503 53.0101C640.516 52.9506 640.529 52.8906 640.543 52.83C640.603 52.5572 640.663 52.361 640.723 52.2415L640.724 52.2399ZM642.332 53.8479C642.253 54.1808 642.174 54.5145 642.095 54.8473C642.069 54.9607 642.042 55.0732 642.015 55.1866C641.976 55.3498 641.938 55.5139 641.899 55.6771C641.876 55.7752 641.852 55.8732 641.829 55.9746C641.769 56.2568 641.725 56.5366 641.688 56.8228C642.603 56.8324 643.518 56.8389 644.434 56.8437C644.859 56.8461 645.285 56.8485 645.709 56.8533C646.119 56.8574 646.53 56.8598 646.94 56.8614C647.097 56.8614 647.253 56.8638 647.41 56.8654C647.629 56.8686 647.848 56.8686 648.068 56.8686C648.132 56.8702 648.197 56.8718 648.264 56.8726C648.593 56.8694 648.742 56.8389 649.002 56.6306C649.162 56.424 649.233 56.2897 649.292 56.0373C649.309 55.9657 649.326 55.8942 649.343 55.8202C649.359 55.7462 649.375 55.6714 649.392 55.5959C649.409 55.5235 649.426 55.4503 649.444 55.3756C649.549 54.9108 649.599 54.4847 649.567 54.0079C649.36 53.8005 649.22 53.8278 648.937 53.827C648.872 53.827 648.806 53.8278 648.739 53.8286C648.67 53.8286 648.6 53.8286 648.53 53.8286C648.301 53.8286 648.072 53.8302 647.843 53.831C647.685 53.831 647.526 53.831 647.368 53.831C646.951 53.831 646.533 53.8334 646.115 53.8351C645.689 53.8367 645.264 53.8375 644.838 53.8383C644.002 53.8399 643.166 53.8423 642.331 53.8463L642.332 53.8479Z" fill="#464646"/>
<path d="M678.89 52.2276C678.968 52.2276 679.046 52.2277 679.127 52.226C679.385 52.2252 679.643 52.2244 679.901 52.2236C680.08 52.2236 680.26 52.2228 680.441 52.222C680.818 52.222 681.194 52.2204 681.571 52.2204C682.053 52.2204 682.535 52.218 683.017 52.2156C683.388 52.214 683.76 52.214 684.131 52.214C684.309 52.214 684.486 52.2132 684.664 52.2124C684.913 52.2108 685.162 52.2108 685.411 52.2124C685.483 52.2124 685.557 52.2108 685.631 52.21C686.132 52.2132 686.693 52.2534 687.087 52.5959C687.557 53.1394 687.485 53.8148 687.438 54.4918C687.382 54.938 687.276 55.3754 687.174 55.8136C687.147 55.9342 687.12 56.0548 687.093 56.1754C687.023 56.489 686.951 56.8017 686.879 57.1145C686.805 57.4353 686.733 57.7569 686.66 58.0785C686.519 58.7056 686.376 59.3328 686.232 59.9591H684.222C684.329 59.3159 684.436 58.8067 684.543 58.4315H677.066C677.04 58.6703 677.013 58.9091 676.986 59.1551C676.962 59.2894 676.936 59.4236 676.905 59.5571C676.892 59.6166 676.879 59.6761 676.865 59.738C676.838 59.8318 676.798 59.9055 676.744 59.9591C676.601 59.9663 676.457 59.968 676.314 59.9671C676.227 59.9671 676.141 59.9671 676.051 59.9671C675.96 59.9671 675.869 59.9655 675.775 59.9655C675.683 59.9655 675.592 59.9655 675.497 59.9647C675.269 59.9639 675.042 59.9623 674.815 59.9607C675.051 58.7322 675.305 57.5077 675.566 56.2839C675.6 56.1199 675.635 55.9551 675.669 55.7911C676.014 54.1401 676.506 53.0644 677.146 52.5637C677.692 52.2341 678.273 52.2301 678.891 52.2293L678.89 52.2276ZM678.03 54.2506C677.956 54.458 677.903 54.6405 677.86 54.8536C677.847 54.9099 677.834 54.9653 677.821 55.0232C677.795 55.1382 677.77 55.2532 677.745 55.3682C677.691 55.6214 677.629 55.8723 677.569 56.1239C677.511 56.3692 677.468 56.5702 677.468 56.8226H684.865C685.04 56.3868 685.138 55.9639 685.237 55.5056C685.255 55.4236 685.274 55.3424 685.293 55.258C685.385 54.8351 685.469 54.4411 685.428 54.0078C685.192 53.7722 684.944 53.8228 684.628 53.822C684.562 53.822 684.496 53.8204 684.428 53.8204C684.209 53.8188 683.989 53.818 683.771 53.8172C683.619 53.8172 683.467 53.8156 683.315 53.8148C682.996 53.8132 682.677 53.8132 682.357 53.8124C681.949 53.8124 681.54 53.8092 681.131 53.8051C680.817 53.8027 680.502 53.8019 680.189 53.8019C680.039 53.8019 679.887 53.8003 679.737 53.7987C679.526 53.7963 679.315 53.7971 679.104 53.7979C679.042 53.7971 678.98 53.7955 678.916 53.7947C678.482 53.8003 678.295 53.9056 678.033 54.2482L678.03 54.2506Z" fill="#464646"/>
<path d="M706.943 52.2282C707.024 52.2282 707.103 52.2266 707.186 52.2266C707.275 52.2266 707.363 52.2266 707.455 52.2266C707.547 52.2266 707.641 52.2258 707.736 52.2249C708.045 52.2233 708.354 52.2225 708.663 52.2217C708.768 52.2217 708.875 52.2215 708.982 52.2209C709.483 52.2193 709.983 52.2185 710.484 52.2177C711.061 52.2169 711.637 52.2145 712.215 52.2113C712.661 52.2089 713.107 52.2081 713.553 52.2073C713.819 52.2073 714.086 52.2065 714.352 52.204C714.65 52.2024 714.948 52.2024 715.245 52.2024C715.333 52.2016 715.419 52.2 715.51 52.1992C716.147 52.2032 716.739 52.3037 717.226 52.7427C717.678 53.5717 717.453 54.4569 717.261 55.3357C717.244 55.4124 717.227 55.4898 717.21 55.5681C717.175 55.7289 717.139 55.8905 717.104 56.0513C717.051 56.2949 716.999 56.5385 716.947 56.7821C716.628 58.2556 716.144 59.2073 715.497 59.6372C714.902 59.9532 714.366 60.0038 713.702 59.995C713.606 59.995 713.51 59.995 713.412 59.995C713.151 59.995 712.892 59.9934 712.631 59.991C712.359 59.9886 712.086 59.9886 711.813 59.9886C711.297 59.9878 710.782 59.9854 710.267 59.9821C709.68 59.9781 709.093 59.9765 708.505 59.9749C707.298 59.9717 706.091 59.9661 704.884 59.9588C704.932 59.4692 705.006 58.9988 705.113 58.5196C705.128 58.4521 705.142 58.3845 705.158 58.3154C705.206 58.0951 705.255 57.8748 705.304 57.6553C705.338 57.5017 705.372 57.3474 705.406 57.1938C705.477 56.873 705.548 56.5522 705.619 56.2314C705.711 55.8197 705.802 55.4073 705.893 54.9948C705.963 54.678 706.033 54.3612 706.102 54.0444C706.136 53.8925 706.17 53.7405 706.204 53.5878C706.25 53.3763 706.297 53.1648 706.345 52.9534C706.358 52.8901 706.372 52.8264 706.386 52.762C706.466 52.4083 706.651 52.2306 706.943 52.229V52.2282ZM708.181 53.8483C708.01 54.5247 707.845 55.2028 707.687 55.8824C707.674 55.9443 707.66 56.0055 707.645 56.069C707.616 56.196 707.588 56.323 707.56 56.4509C707.517 56.6455 707.473 56.84 707.429 57.0354C707.401 57.16 707.374 57.2854 707.346 57.4101C707.333 57.468 707.319 57.525 707.306 57.5845C707.247 57.8499 707.216 58.0774 707.216 58.3508C708.133 58.358 709.05 58.3636 709.967 58.3677C710.393 58.3693 710.819 58.3717 711.244 58.3757C711.655 58.3789 712.066 58.3813 712.477 58.3821C712.634 58.3821 712.79 58.3837 712.947 58.3853C713.167 58.3878 713.386 58.3878 713.606 58.3878C713.67 58.3888 713.736 58.3899 713.803 58.391C714.09 58.3886 714.257 58.3773 714.49 58.2012C714.645 57.9841 714.7 57.8008 714.764 57.5411C714.776 57.4913 714.788 57.4414 714.801 57.3892C714.847 57.2002 714.891 57.0113 714.935 56.8223C714.955 56.7371 714.975 56.6519 714.996 56.5642C715.063 56.2772 715.13 55.9894 715.196 55.7023C715.218 55.6091 715.24 55.5147 715.262 55.4193C715.367 54.953 715.419 54.4829 715.417 54.0091C715.11 53.804 714.862 53.8266 714.506 53.8298C714.438 53.8298 714.37 53.8298 714.299 53.8298C714.074 53.8298 713.848 53.8314 713.622 53.8322C713.466 53.8322 713.309 53.8322 713.153 53.8322C712.74 53.8322 712.329 53.8346 711.916 53.8362C711.497 53.8378 711.076 53.8386 710.656 53.8394C709.831 53.841 709.006 53.8442 708.181 53.8475V53.8483Z" fill="#464646"/>
<path d="M657.682 52.2186C657.76 52.2186 657.838 52.2178 657.919 52.217C658.176 52.2162 658.433 52.2162 658.69 52.2162C658.87 52.2162 659.05 52.2162 659.229 52.2154C659.605 52.2154 659.981 52.2154 660.357 52.2154C660.838 52.2154 661.319 52.2146 661.799 52.213C662.169 52.2114 662.54 52.2114 662.911 52.2122C663.087 52.2122 663.265 52.2122 663.442 52.2106C663.69 52.2098 663.938 52.2106 664.187 52.2106C664.259 52.2106 664.331 52.209 664.406 52.209C664.987 52.2138 665.505 52.3014 665.965 52.6729C666.353 53.1658 666.349 53.6474 666.291 54.2504C666.205 54.7786 666.086 55.2996 665.966 55.8206C665.91 56.0643 665.856 56.3079 665.802 56.5523C665.429 58.2139 664.951 59.2391 664.367 59.6277C663.826 59.9565 663.28 59.9831 662.665 59.9814C662.585 59.9814 662.505 59.9823 662.423 59.9823C662.16 59.9831 661.897 59.9831 661.635 59.9831C661.451 59.9831 661.268 59.9831 661.085 59.9839C660.701 59.9839 660.317 59.9839 659.933 59.9839C659.442 59.9839 658.952 59.9847 658.46 59.9863C658.082 59.9871 657.703 59.9879 657.325 59.9871C657.144 59.9871 656.963 59.9871 656.782 59.9887C656.529 59.9895 656.276 59.9887 656.023 59.9887C655.949 59.9887 655.874 59.9903 655.797 59.9903C655.221 59.9855 654.755 59.9091 654.324 59.4966C653.823 58.7312 654.02 57.9272 654.195 57.0789C654.263 56.7613 654.332 56.4454 654.404 56.1286C654.459 55.8834 654.513 55.6373 654.566 55.3921C654.601 55.2337 654.636 55.0761 654.672 54.9177C654.688 54.8454 654.703 54.773 654.719 54.6982C654.907 53.8749 655.206 53.1368 655.902 52.6166C656.48 52.2645 657.027 52.2162 657.684 52.2178L657.682 52.2186ZM656.884 54.17C656.823 54.2772 656.778 54.3895 656.749 54.5069C656.731 54.5704 656.712 54.6339 656.693 54.699C656.676 54.7634 656.66 54.8277 656.642 54.8936C656.627 54.9531 656.612 55.0118 656.596 55.0729C656.551 55.2546 656.51 55.4363 656.47 55.6188C656.455 55.6848 656.441 55.7507 656.425 55.8182C656.395 55.9557 656.365 56.094 656.336 56.2315C656.29 56.4422 656.243 56.6528 656.195 56.8627C656.166 56.9969 656.137 57.132 656.108 57.2663C656.093 57.329 656.079 57.3909 656.064 57.456C656.009 57.7213 655.985 57.9087 656.077 58.166C656.18 58.3086 656.33 58.3868 656.527 58.4007C656.648 58.4032 656.769 58.4032 656.89 58.4007C656.956 58.4007 657.023 58.4015 657.09 58.4024C657.309 58.404 657.528 58.4024 657.747 58.4007C657.899 58.4007 658.051 58.4007 658.203 58.4007C658.522 58.4007 658.841 58.3999 659.16 58.3975C659.569 58.3951 659.977 58.3951 660.387 58.3975C660.701 58.3983 661.015 58.3975 661.329 58.3967C661.48 58.3967 661.631 58.3967 661.781 58.3967C661.992 58.3967 662.202 58.3959 662.413 58.3935C662.476 58.3935 662.537 58.3943 662.602 58.3951C662.887 58.3903 663.042 58.3742 663.271 58.1965C663.678 57.6474 663.751 56.8498 663.895 56.1921C663.932 56.02 663.971 55.848 664.01 55.6759C664.135 55.126 664.198 54.5704 664.199 54.0092C663.9 53.8098 663.67 53.8243 663.324 53.8251C663.259 53.8251 663.195 53.8243 663.128 53.8235C662.915 53.8219 662.702 53.8219 662.488 53.8219C662.34 53.8219 662.192 53.821 662.044 53.8202C661.733 53.8194 661.422 53.8186 661.11 53.8194C660.712 53.8194 660.314 53.817 659.915 53.8146C659.608 53.813 659.302 53.8122 658.996 53.813C658.849 53.813 658.702 53.8122 658.555 53.8106C658.349 53.809 658.144 53.8098 657.938 53.8106C657.878 53.8095 657.817 53.8087 657.755 53.8082C657.361 53.813 657.153 53.883 656.882 54.1716L656.884 54.17Z" fill="#464646"/>
<path d="M730.295 52.2186C730.373 52.2186 730.451 52.2178 730.531 52.217C730.788 52.2162 731.045 52.2162 731.301 52.2162C731.481 52.2162 731.66 52.2162 731.839 52.2154C732.215 52.2154 732.59 52.2154 732.966 52.2154C733.446 52.2154 733.926 52.2146 734.406 52.213C734.776 52.2114 735.146 52.2114 735.517 52.2122C735.694 52.2122 735.871 52.2122 736.047 52.2106C736.295 52.2098 736.543 52.2106 736.79 52.2106C736.863 52.2106 736.935 52.209 737.01 52.209C737.541 52.213 738.075 52.2813 738.505 52.6174C738.541 52.6641 738.576 52.7107 738.613 52.7581C738.65 52.8048 738.688 52.8506 738.726 52.8988C739.083 53.493 738.889 54.3163 738.747 54.9507C738.732 55.0223 738.717 55.093 738.702 55.167C738.669 55.3165 738.636 55.4669 738.603 55.6164C738.553 55.8424 738.505 56.0683 738.456 56.2942C738.061 58.1252 737.522 59.2613 736.839 59.7025C736.317 59.9573 735.838 59.9831 735.267 59.9814C735.186 59.9814 735.107 59.9823 735.025 59.9823C734.762 59.9831 734.499 59.9831 734.237 59.9831C734.054 59.9831 733.87 59.9831 733.687 59.9839C733.303 59.9839 732.919 59.9839 732.535 59.9839C732.044 59.9839 731.553 59.9847 731.062 59.9863C730.684 59.9871 730.305 59.9879 729.926 59.9871C729.746 59.9871 729.565 59.9871 729.384 59.9887C729.131 59.9895 728.876 59.9887 728.623 59.9887C728.549 59.9887 728.475 59.9903 728.398 59.9903C727.822 59.9855 727.356 59.9091 726.924 59.4966C726.424 58.7312 726.621 57.9272 726.796 57.0789C726.864 56.7613 726.934 56.4454 727.005 56.1286C727.06 55.8834 727.114 55.6373 727.167 55.3921C727.202 55.2337 727.238 55.0761 727.273 54.9177C727.289 54.8454 727.305 54.773 727.321 54.6982C727.526 53.7945 727.871 53.1199 728.598 52.5314C729.147 52.2403 729.687 52.2162 730.295 52.2178V52.2186ZM729.568 54.0092C729.32 54.3983 729.235 54.8188 729.139 55.2635C729.123 55.3366 729.107 55.4098 729.09 55.4854C729.057 55.6397 729.024 55.7941 728.991 55.9485C728.94 56.1849 728.887 56.4204 728.835 56.656C728.802 56.8064 728.77 56.9567 728.737 57.1071C728.721 57.177 728.705 57.2478 728.689 57.3201C728.613 57.6852 728.564 57.9328 728.764 58.2705C728.925 58.4321 729.254 58.3646 729.475 58.3654C729.542 58.3654 729.609 58.3659 729.676 58.367C729.896 58.3686 730.116 58.3694 730.336 58.3702C730.411 58.3702 730.485 58.3702 730.562 58.371C730.96 58.3726 731.356 58.3734 731.752 58.3742C732.162 58.375 732.573 58.3782 732.983 58.3814C733.298 58.3839 733.613 58.3839 733.927 58.3847C734.078 58.3847 734.23 58.3863 734.382 58.3879C734.593 58.3895 734.804 58.3895 735.016 58.3895C735.079 58.3906 735.142 58.3916 735.206 58.3927C735.492 58.3895 735.647 58.3758 735.876 58.1973C736.283 57.6474 736.356 56.8506 736.5 56.1921C736.538 56.02 736.577 55.848 736.616 55.6759C736.741 55.126 736.804 54.5704 736.804 54.0092C736.505 53.8098 736.274 53.8259 735.928 53.8275C735.863 53.8275 735.799 53.8275 735.732 53.8267C735.518 53.8267 735.305 53.8267 735.091 53.8267C734.942 53.8267 734.794 53.8267 734.645 53.8267C734.334 53.8267 734.022 53.8267 733.711 53.8267C733.312 53.8275 732.913 53.8267 732.514 53.8267C732.207 53.8267 731.9 53.8267 731.593 53.8267C731.446 53.8267 731.299 53.8267 731.152 53.8267C730.946 53.8267 730.74 53.8267 730.535 53.8275C730.474 53.8275 730.413 53.8275 730.35 53.8267C730.053 53.8291 729.816 53.8323 729.568 54.0092Z" fill="#464646"/>
<path d="M625.688 52.2399C626.934 52.2343 628.179 52.2302 629.425 52.2278C630.003 52.2262 630.582 52.2246 631.16 52.2222C631.664 52.2198 632.169 52.2182 632.673 52.2174C632.94 52.2174 633.207 52.2166 633.474 52.215C633.772 52.2133 634.071 52.2125 634.369 52.2133C634.457 52.2125 634.545 52.2117 634.635 52.2109C635.258 52.2133 635.805 52.2704 636.297 52.6781C636.719 53.2031 636.674 53.7667 636.623 54.4115C636.562 54.828 636.471 55.2341 636.372 55.6425C636.35 55.7454 636.326 55.8483 636.303 55.9545C636.097 56.8228 635.785 57.6035 635.015 58.11C634.453 58.4156 633.92 58.4429 633.296 58.4405H633.068C632.819 58.4405 632.571 58.4405 632.322 58.4389C632.15 58.4389 631.977 58.4389 631.805 58.4389C631.351 58.4389 630.898 58.4381 630.444 58.4373C629.981 58.4365 629.518 58.4357 629.056 58.4357C628.148 58.4349 627.239 58.4332 626.332 58.4316C626.322 58.4952 626.312 58.5579 626.302 58.623C626.288 58.7074 626.275 58.7918 626.261 58.8787C626.248 58.9615 626.235 59.0451 626.222 59.1303C626.168 59.4101 626.088 59.6851 626.01 59.9593H624C624.161 59.214 624.322 58.4686 624.482 57.7241C624.557 57.3776 624.632 57.0318 624.707 56.6853C624.779 56.3492 624.851 56.014 624.924 55.6779C624.951 55.5516 624.978 55.4254 625.006 55.2984C625.226 54.2773 625.455 53.2586 625.688 52.2407V52.2399ZM627.377 53.8479C627.251 54.1534 627.165 54.4461 627.095 54.7701C627.074 54.869 627.052 54.9679 627.03 55.0692C627.009 55.1721 626.987 55.2743 626.964 55.3804C626.942 55.4833 626.92 55.5862 626.897 55.6923C626.815 56.0659 626.76 56.4428 626.733 56.8228C627.638 56.83 628.543 56.8357 629.448 56.8397C629.869 56.8413 630.288 56.8437 630.709 56.8477C631.114 56.8509 631.52 56.8533 631.925 56.8542C632.08 56.8542 632.235 56.8558 632.389 56.8574C632.606 56.8598 632.823 56.8598 633.04 56.8598C633.104 56.8606 633.167 56.8622 633.233 56.863C633.531 56.8606 633.709 56.8341 633.965 56.6765C634.186 56.4409 634.232 56.2359 634.305 55.9231C634.318 55.8692 634.331 55.8154 634.345 55.7599C634.382 55.6055 634.416 55.4495 634.451 55.2944C634.47 55.222 634.488 55.1488 634.507 55.0741C634.595 54.7147 634.65 54.3802 634.612 54.0079C634.305 53.8029 634.057 53.8254 633.701 53.8286C633.633 53.8286 633.565 53.8286 633.495 53.8286C633.269 53.8286 633.043 53.8302 632.818 53.831C632.661 53.831 632.505 53.831 632.348 53.831C631.936 53.831 631.524 53.8334 631.112 53.8351C630.692 53.8367 630.271 53.8375 629.852 53.8383C629.027 53.8399 628.202 53.8423 627.377 53.8463V53.8479Z" fill="#464646"/>
<path d="M691.136 52.2401H693.065C693.017 52.6742 692.973 53.0618 692.88 53.4807C692.859 53.5755 692.838 53.6704 692.816 53.7685C692.794 53.869 692.771 53.9687 692.748 54.0724C692.724 54.1786 692.701 54.2847 692.678 54.39C692.58 54.8362 692.481 55.2833 692.381 55.7295C692.32 56.0037 692.26 56.2787 692.199 56.5528C692.166 56.7072 692.131 56.8616 692.097 57.0151C692.076 57.1092 692.056 57.2033 692.034 57.3006C692.015 57.3826 691.997 57.4654 691.978 57.5506C691.943 57.7345 691.93 57.9741 691.939 58.2694H699.175C699.455 56.9867 699.735 55.7038 700.015 54.4206C700.069 54.1729 700.108 53.9909 700.134 53.8746C700.16 53.7532 700.187 53.631 700.213 53.5096C700.253 53.3255 700.294 53.1414 700.334 52.9572C700.346 52.9026 700.357 52.8476 700.369 52.7924C700.424 52.5432 700.482 52.3588 700.541 52.2393H702.471C702.411 52.7217 702.361 53.0502 702.323 53.225C702.31 53.2845 702.297 53.344 702.284 53.4059C702.271 53.4686 702.257 53.5321 702.242 53.5964C702.228 53.6648 702.213 53.7331 702.197 53.8031C702.149 54.0266 702.1 54.2493 702.051 54.4728C702.017 54.6288 701.984 54.784 701.949 54.94C701.878 55.2648 701.807 55.5904 701.736 55.9152C701.644 56.3325 701.553 56.7506 701.463 57.1679C701.393 57.4887 701.323 57.8095 701.253 58.1311C701.219 58.2855 701.185 58.4391 701.152 58.5934C701.106 58.8081 701.058 59.022 701.012 59.2366C700.998 59.301 700.984 59.3653 700.97 59.4312C700.905 59.7228 700.843 59.8986 700.783 59.9587C700.658 59.9675 700.531 59.9699 700.405 59.9707C700.323 59.9707 700.242 59.9715 700.158 59.9723C700.068 59.9723 699.977 59.9723 699.883 59.9723C699.789 59.9723 699.695 59.9731 699.596 59.9739C699.336 59.9755 699.075 59.9763 698.815 59.9771C698.652 59.9771 698.489 59.978 698.326 59.9788C697.816 59.9804 697.307 59.9812 696.797 59.982C696.209 59.9828 695.621 59.9852 695.034 59.9884C694.579 59.9908 694.124 59.9924 693.67 59.9924C693.398 59.9924 693.127 59.9932 692.856 59.9956C692.553 59.9972 692.25 59.9972 691.946 59.9972C691.857 59.9981 691.768 59.9997 691.676 60.0005C691.104 59.9964 690.633 59.9257 690.206 59.5189C689.782 59.034 689.808 58.5637 689.848 57.9494C689.916 57.5177 690.012 57.0931 690.11 56.6678C690.137 56.5472 690.164 56.4266 690.19 56.306C690.26 55.9916 690.332 55.6772 690.403 55.3629C690.462 55.1056 690.519 54.8483 690.577 54.5902C690.696 54.0588 690.815 53.5273 690.936 52.9958C690.957 52.9018 690.978 52.8085 691 52.712C691.037 52.5587 691.082 52.4017 691.136 52.2409V52.2401Z" fill="#464646"/>
<path d="M721.528 52.2402H723.538C723.482 52.7363 723.416 53.2043 723.308 53.6883C723.293 53.7566 723.278 53.825 723.263 53.8957C723.214 54.1192 723.165 54.3419 723.116 54.5655C723.081 54.7214 723.047 54.8774 723.013 55.0326C722.923 55.441 722.833 55.8487 722.743 56.2571C722.652 56.6744 722.56 57.0917 722.469 57.509C722.29 58.3259 722.11 59.1427 721.93 59.9604H719.839C720.145 58.399 720.479 56.8457 720.823 55.2923C720.879 55.0406 720.934 54.789 720.99 54.5373C721.044 54.2937 721.098 54.0501 721.151 53.8065C721.176 53.6907 721.202 53.5749 721.228 53.4599C721.263 53.2999 721.299 53.1407 721.334 52.9807C721.354 52.8899 721.374 52.7998 721.394 52.7066C721.43 52.5581 721.474 52.4035 721.528 52.2426V52.2402Z" fill="#464646"/>
</g>
</g>
<g clip-path="url(#clip5_8_219)">
<path d="M871.993 24.0752L897.87 56.5644H904.33L878.797 24.0752" fill="#464646"/>
<path d="M900.24 24.0752C897.947 24.0752 897.641 24.0752 896.341 25.7188L884.836 40.358L871.917 56.5644H876.083C878.377 56.5644 878.682 56.5644 879.982 54.9209L891.487 40.2816L904.406 24.0752H900.24Z" fill="#464646"/>
<path d="M834 51.8632V28.3945H837.096V49.073H848.639V51.825H834V51.8632Z" fill="#464646"/>
<path d="M867.712 28.3945H868.744C869.585 28.3945 870.808 28.8914 870.808 29.9617V41.9636C870.808 44.3334 870.541 46.2063 870.006 47.5823C869.471 48.9583 868.515 50.105 867.139 50.9459C865.763 51.825 863.928 52.2455 861.673 52.2455C859.418 52.2455 857.698 51.8632 856.284 51.0988C854.87 50.3343 853.876 49.2641 853.302 47.8116C852.691 46.3592 852.423 44.4098 852.423 41.9253V28.3945H855.519V41.9253C855.519 43.9511 855.71 45.4801 856.093 46.4356C856.475 47.3912 857.125 48.1556 858.042 48.6525C858.959 49.1876 860.106 49.417 861.406 49.417C863.699 49.417 865.304 48.8819 866.298 47.8499C867.254 46.8178 867.751 44.8303 867.751 41.8871V28.3945H867.712Z" fill="#464646"/>
<path d="M902.38 40.6258C902.38 36.8035 903.412 33.8221 905.476 31.6435C907.54 29.4648 910.178 28.3945 913.427 28.3945C915.567 28.3945 917.478 28.8914 919.16 29.9234C920.88 30.9554 922.18 32.3697 923.059 34.1662C923.938 36.0008 924.397 38.0266 924.397 40.3582C924.397 42.6898 923.938 44.792 922.982 46.6267C922.027 48.4614 920.689 49.8757 918.969 50.8312C917.249 51.7868 915.376 52.2455 913.388 52.2455C911.21 52.2455 909.299 51.7103 907.579 50.6783C905.859 49.6463 904.559 48.1939 903.68 46.3974C902.801 44.5627 902.38 42.6516 902.38 40.6258ZM905.515 40.664C905.515 43.4543 906.279 45.6329 907.77 47.2383C909.26 48.8436 911.133 49.6463 913.388 49.6463C915.644 49.6463 917.555 48.8436 919.045 47.2383C920.536 45.6329 921.262 43.3396 921.262 40.3582C921.262 38.4853 920.957 36.8417 920.307 35.4657C919.657 34.0515 918.74 32.9812 917.517 32.2168C916.293 31.4523 914.917 31.0701 913.427 31.0701C911.286 31.0701 909.413 31.7963 907.846 33.287C906.279 34.7395 905.515 37.224 905.515 40.664Z" fill="#464646"/>
<path d="M931.43 51.825H928.372V38.5235C928.372 36.192 928.639 34.3573 929.174 33.0195C929.709 31.6435 930.627 30.535 932.003 29.6941C933.379 28.8532 935.175 28.3945 937.392 28.3945C939.609 28.3945 941.329 28.7768 942.705 29.503C944.081 30.2292 945.075 31.3377 945.648 32.7137C946.222 34.1279 946.527 36.0391 946.527 38.4853V51.7868H943.47V38.5618C943.47 36.5742 943.279 35.0835 942.896 34.1279C942.514 33.1724 941.903 32.4461 940.985 31.9492C940.068 31.4523 938.959 31.1848 937.66 31.1848C935.405 31.1848 933.838 31.6817 932.882 32.7137C931.926 33.7457 931.468 35.6951 931.468 38.5618V51.825H931.43Z" fill="#464646"/>
<path d="M950.617 40.6258C950.617 36.8035 951.649 33.8221 953.713 31.6435C955.777 29.4648 958.415 28.3945 961.664 28.3945C963.804 28.3945 965.715 28.8914 967.397 29.9234C969.117 30.9554 970.417 32.3697 971.296 34.1662C972.175 36.0008 972.634 38.0266 972.634 40.3582C972.634 42.6898 972.175 44.792 971.219 46.6267C970.264 48.4614 968.926 49.8757 967.206 50.8312C965.486 51.7868 963.613 52.2455 961.625 52.2455C959.447 52.2455 957.536 51.7103 955.816 50.6783C954.096 49.6463 952.796 48.1939 951.917 46.3974C951.076 44.5627 950.617 42.6516 950.617 40.6258ZM953.79 40.664C953.79 43.4543 954.554 45.6329 956.045 47.2383C957.536 48.8436 959.409 49.6463 961.664 49.6463C963.919 49.6463 965.83 48.8436 967.321 47.2383C968.811 45.6329 969.538 43.3396 969.538 40.3582C969.538 38.4853 969.232 36.8417 968.582 35.4657C967.932 34.0897 967.015 32.9812 965.792 32.2168C964.569 31.4523 963.193 31.0701 961.702 31.0701C959.561 31.0701 957.688 31.7963 956.121 33.287C954.554 34.7395 953.79 37.224 953.79 40.664Z" fill="#464646"/>
<path d="M975.538 44.4482L978.405 44.1806C978.558 45.3273 978.864 46.2829 979.361 47.0091C979.858 47.7353 980.622 48.3469 981.692 48.8056C982.724 49.2642 983.909 49.4936 985.209 49.4936C986.355 49.4936 987.387 49.3025 988.305 48.9585C989.184 48.6144 989.872 48.1558 990.292 47.5442C990.713 46.9326 990.942 46.2829 990.942 45.5566C990.942 44.8304 990.751 44.2188 990.331 43.6455C989.91 43.1104 989.222 42.6517 988.267 42.2695C987.655 42.0402 986.279 41.6579 984.177 41.161C982.075 40.6641 980.584 40.1672 979.743 39.7086C978.634 39.1352 977.832 38.409 977.297 37.5681C976.762 36.7272 976.494 35.7716 976.494 34.7014C976.494 33.5547 976.838 32.4463 977.488 31.4525C978.138 30.4587 979.093 29.656 980.393 29.1591C981.654 28.624 983.068 28.3564 984.635 28.3564C986.355 28.3564 987.846 28.624 989.146 29.1973C990.445 29.7325 991.439 30.5734 992.165 31.6436C992.853 32.7138 993.236 33.937 993.312 35.2747L990.407 35.5041C990.254 34.0516 989.719 32.9432 988.802 32.2169C987.884 31.4907 986.547 31.1085 984.788 31.1085C983.03 31.1085 981.616 31.4525 980.775 32.1405C979.934 32.8285 979.514 33.6312 979.514 34.5867C979.514 35.4276 979.819 36.0774 980.393 36.6125C980.966 37.1477 982.495 37.6828 984.979 38.2561C987.464 38.8295 989.146 39.2881 990.063 39.7086C991.401 40.3201 992.395 41.1228 993.044 42.0402C993.694 42.9957 994 44.066 994 45.3273C994 46.5886 993.656 47.6971 992.93 48.8056C992.242 49.8758 991.21 50.7167 989.91 51.3283C988.611 51.9398 987.12 52.2456 985.476 52.2456C983.374 52.2456 981.654 51.9398 980.24 51.3283C978.826 50.7167 977.717 49.7994 976.914 48.5762C976.035 47.3913 975.615 45.9771 975.538 44.4482Z" fill="#464646"/>
</g>
<g clip-path="url(#clip6_8_219)">
<mask id="mask1_8_219" style="mask-type:luminance" maskUnits="userSpaceOnUse" x="1064" y="14" width="120" height="53">
<path d="M1184 14H1064V66.2578H1184V14Z" fill="white"/>
</mask>
<g mask="url(#mask1_8_219)">
<path d="M1068.17 14.0029C1066.92 15.292 1065.43 16.6605 1064.06 17.9881V14.0029H1068.17Z" fill="#464646"/>
<path d="M1115.56 14.5003C1095.55 14.2619 1076.61 26.102 1068.33 44.1722C1066.28 48.693 1064.74 53.552 1064.05 58.57L1064.06 45.9969C1072.17 28.7007 1090.2 16.3634 1108.61 14.3798C1110.89 14.1825 1113.15 13.9852 1115.53 14.0031L1115.56 14.5003Z" fill="#464646"/>
<path d="M1075.09 14.0236C1072.47 16.2045 1069.89 18.5648 1067.39 21.143L1064.06 24.8924V22.5141C1066.98 19.3798 1070.47 16.3634 1073.8 14.0236C1074.19 13.9851 1074.77 14.0031 1075.09 14.0236Z" fill="#464646"/>
<path d="M1092.8 14.0234C1091.45 14.7974 1089.75 15.6508 1088.34 16.4222C1078.12 21.8758 1068.96 31.3966 1064.06 41.7913V36.9937C1070.9 26.658 1080.92 18.5058 1091.79 14.0234H1092.8Z" fill="#464646"/>
<path d="M1064.07 32.9343L1064.06 29.7513C1069.14 23.4442 1075.56 17.9701 1082.41 14.0234H1083.54C1082.61 14.759 1081.22 15.6687 1080.15 16.4812C1073.73 20.9712 1068.44 26.6272 1064.07 32.9343Z" fill="#464646"/>
<path d="M1115.56 19.5359C1098.19 19.418 1082.19 28.8568 1073.9 44.3693C1070.66 50.7353 1068.8 57.6574 1068.7 65.3125L1064 65.3535C1064.26 61.2889 1065.21 57.3986 1066.48 53.6902C1070.9 39.5692 1083.99 26.6964 1097.97 21.9962C1103.43 20.092 1109.35 19.0208 1115.56 19.0413L1115.56 19.5359Z" fill="#464646"/>
<path d="M1069.14 65.3537C1070.58 50.9354 1079.47 37.3296 1092.7 30.0487C1099.34 26.3839 1107.51 24.2235 1115.57 24.2542V24.7309C1099.44 24.5951 1084.41 33.8339 1077.47 48.3726C1075.07 53.5879 1073.6 59.185 1073.46 65.3511H1069.14V65.3537Z" fill="#464646"/>
<path d="M1115.57 29.395C1101.25 29.2566 1087.92 37.3294 1081.61 50.2817C1079.29 54.8819 1078.1 59.8819 1077.85 65.3535H1073.86C1075.33 51.4529 1084.85 38.5595 1097.8 32.6651C1103.23 30.2664 1109.12 28.8568 1115.57 28.9004V29.395Z" fill="#464646"/>
<path d="M1115.55 33.6777C1103.49 33.6777 1092.36 39.8874 1086.47 50.5947C1084.07 55.118 1082.58 59.8797 1082.5 65.3512H1078.28C1079.67 52.2631 1089.7 39.8464 1102.26 35.5204C1106.4 34.0519 1110.81 33.0806 1115.55 33.2216V33.6777Z" fill="#464646"/>
<path d="M1172.38 38.6929L1172.35 45.6483H1170.8V47.655H1175.98V45.6483H1174.5L1174.47 41.1865C1174.55 40.4535 1174.71 39.7718 1175.15 39.1978C1175.98 38.5622 1177.19 38.4238 1178.18 38.5827V36.3813C1176.83 36.1224 1175.41 36.5197 1174.32 37.3346L1174.31 36.7477H1170.83V38.6826L1172.39 38.6903L1172.38 38.6929Z" fill="#464646"/>
<path d="M1115.57 38.1984C1105.29 38.1599 1095.76 43.5162 1090.7 52.4987C1088.51 56.4249 1087.32 60.592 1087.13 65.3511H1082.94C1084.31 53.6879 1093.91 42.5423 1105.27 39.3286C1108.46 38.3188 1111.94 37.7832 1115.57 37.7832V38.1984Z" fill="#464646"/>
<path d="M1147.4 38.9337C1145.79 36.5554 1142.62 35.6815 1140.1 36.9476C1138.42 37.6856 1137.19 39.4488 1136.87 41.1762C1136.39 43.7543 1137.74 46.1121 1139.92 47.4242C1141.43 48.3135 1143.69 48.3366 1145.26 47.5601C1146.47 46.9245 1147.76 45.6969 1147.96 44.3668H1145.87L1144.96 45.3176C1143.97 46.0506 1142.42 46.3504 1141.25 45.7917C1140.18 45.2971 1139.21 44.2438 1139.01 43.0752H1148.35C1148.59 41.5888 1148.21 40.1203 1147.4 38.9312L1147.4 38.9337ZM1139.25 40.8968C1139.35 39.9255 1140.48 39.0542 1141.39 38.6954C1143.11 38.1598 1145.01 38.8338 1145.87 40.4611L1146.05 40.8942H1139.25V40.8968Z" fill="#464646"/>
<path d="M1115.57 42.8214C1106.76 42.9009 1098.43 47.4626 1094.33 55.4175C1092.74 58.4903 1091.93 61.7066 1091.71 65.3534H1087.66C1089.09 55.6328 1096.82 46.7092 1106.36 43.7953C1109.18 42.8214 1112.42 42.3268 1115.59 42.3473L1115.57 42.8214Z" fill="#464646"/>
<path d="M1115.45 47.5608C1108.25 47.5019 1101.34 51.8842 1098.41 58.3707C1097.42 60.5695 1096.84 62.771 1096.71 65.3517H1092.32C1093.51 57.5557 1100.74 50.18 1108.37 48.1759C1110.55 47.5019 1112.99 46.9688 1115.45 47.0662V47.5608Z" fill="#464646"/>
<path d="M1125.11 54.8825C1124.95 54.2059 1124.61 53.5704 1123.92 53.2167C1123.14 52.9169 1121.99 52.74 1121.3 53.3756C1120.8 53.7523 1120.49 54.3085 1120.51 54.944C1120.49 55.5181 1120.66 56.0153 1121.06 56.4099C1123.01 57.5606 1125.68 57.0634 1127.11 59.2264C1127.96 60.3361 1128.12 62.1608 1127.55 63.4525C1126.73 65.1567 1124.99 66.2664 1123.02 66.169C1121.93 66.187 1121 65.6719 1120.21 65.0773V65.7718H1118.26V61.6278L1120.31 61.6073C1120.35 62.4402 1120.86 63.1552 1121.53 63.6498C1122.25 63.9702 1123.1 64.2264 1123.91 63.9881C1124.77 63.6934 1125.62 62.9579 1125.74 62.025C1125.84 61.3126 1125.6 60.7359 1125.2 60.2182C1123.28 58.6703 1119.99 59.6057 1118.77 56.8456C1118.3 55.7769 1118.24 54.2264 1118.84 53.1783C1119.47 51.9071 1120.78 51.0358 1122.17 50.9358C1123.38 50.8564 1124.41 51.21 1125.3 51.8866V51.1357H1127.17V54.8723L1125.1 54.8851L1125.11 54.8825Z" fill="#464646"/>
<path d="M1115.57 52.3814C1109.97 52.4608 1104.58 55.7745 1102.46 60.9898C1101.9 62.4172 1101.59 63.7268 1101.47 65.3337L1097.26 65.3542C1097.46 64.0625 1098.11 63.0733 1098.69 61.8842C1102.04 55.695 1108.64 52.0251 1115.57 51.9482V52.3839V52.3814Z" fill="#464646"/>
<path d="M1154.37 56.8218L1154.38 63.767H1152.88V65.7762H1158.05V63.767H1156.52L1156.5 59.5076C1156.61 58.6824 1156.89 57.9238 1157.53 57.319C1158.07 56.7629 1158.86 56.645 1159.68 56.645C1160.63 56.7424 1161.66 57.4369 1161.92 58.4108C1161.99 58.7772 1162.03 59.1412 1162.06 59.5051L1162.04 63.767H1160.48V65.7762H1165.67V63.767H1164.19L1164.16 59.4794C1164.11 58.1878 1163.83 56.991 1162.87 56.0684C1161.56 54.7383 1159.18 54.4026 1157.54 55.2713C1157.14 55.4328 1156.76 55.789 1156.44 55.9274L1156.44 54.9023L1152.91 54.8869V56.8193H1154.38L1154.37 56.8218Z" fill="#464646"/>
<path d="M1115.57 56.6272C1111.86 56.7246 1108.15 58.7876 1106.74 62.3166C1106.38 63.3494 1106.09 64.1823 1106.07 65.3535H1101.94C1103.53 60.1382 1109.06 56.4273 1114.46 56.13C1114.69 56.13 1115.41 56.1095 1115.56 56.1249L1115.57 56.6272Z" fill="#464646"/>
<path d="M1133.54 45.6224V36.1144L1128.73 47.6239L1127.31 47.6393L1122.46 36.0811L1122.49 45.6505L1123.94 45.6249V47.6341H1118.76V45.6249H1120.27V35.1816C1120.21 35.0483 1120.19 35.0047 1120.05 34.9842H1118.84V33.0391H1123.4L1127.92 43.6516L1128.6 42.2625L1132.41 33.0416H1137.24V34.9868H1135.9L1135.74 35.1636L1135.71 45.6224H1137.2V47.6316H1132.02V45.6224H1133.54Z" fill="#464646"/>
<path d="M1153.38 51.3431L1158.77 38.683H1160.16V36.748H1154.98V38.683H1156.49L1153.96 44.6466L1151.58 38.683H1153.1V36.748H1147.92V38.683L1149.11 38.6881L1152.67 47.5604L1151.86 49.4031H1149.95V51.338L1153.38 51.3431Z" fill="#464646"/>
<path d="M1170.08 38.9337C1168.48 36.5554 1165.31 35.6815 1162.79 36.9476C1161.1 37.6856 1159.87 39.4488 1159.55 41.1762C1159.07 43.7543 1160.42 46.1121 1162.61 47.4242C1164.12 48.3135 1166.38 48.3366 1167.94 47.5601C1169.15 46.9245 1170.44 45.6969 1170.64 44.3668H1168.56L1167.65 45.3176C1166.66 46.0506 1165.11 46.3504 1163.94 45.7917C1162.87 45.2971 1161.9 44.2438 1161.7 43.0752H1171.04C1171.28 41.5888 1170.9 40.1203 1170.08 38.9312V38.9337ZM1161.93 40.8968C1162.03 39.9255 1163.16 39.0516 1164.07 38.6954C1165.8 38.1598 1167.7 38.8338 1168.56 40.4611L1168.74 40.8968H1161.93Z" fill="#464646"/>
<path d="M1147.09 56.8839L1148.53 56.8916L1148.52 61.8095C1148.39 62.5656 1148.09 63.2473 1147.48 63.7855C1146.84 64.1622 1146.11 64.462 1145.3 64.2647C1144.62 64.0853 1143.93 63.7675 1143.53 63.073C1143.27 62.2913 1143.16 61.4456 1143.11 60.5768V54.9054H1139.63V56.889H1141.01C1141.07 59.3903 1140.83 61.8787 1141.66 64.1109C1142.06 65.1719 1143.45 65.9843 1144.62 66.1714C1146.09 66.3892 1147.58 66.1304 1148.63 65.0797L1148.64 65.7793L1152.2 65.7921V63.7803L1150.64 63.7701V54.8926L1147.09 54.9054V56.889L1147.09 56.8839Z" fill="#464646"/>
<path d="M1176.77 63.7704L1176.79 51.3818L1173.26 51.4049V53.3398L1174.73 53.3167V56.1486C1173.21 54.7391 1170.89 54.2419 1168.9 54.9185C1167.12 55.6694 1165.81 57.3762 1165.39 59.2009C1165.06 61.0871 1165.61 62.8708 1166.72 64.2778C1168.13 66.0051 1170.24 66.3741 1172.3 66.164C1172.97 66.0948 1174.02 65.4669 1174.77 64.7545V65.777H1178.49V63.7678H1176.77L1176.77 63.7704ZM1171.17 64.2393C1169.12 64.2393 1167.45 62.5761 1167.45 60.5233C1167.45 58.4705 1169.12 56.8073 1171.17 56.8073C1173.22 56.8073 1174.89 58.4731 1174.89 60.5233C1174.89 62.5735 1173.22 64.2393 1171.17 64.2393Z" fill="#464646"/>
<path d="M1134.23 54.6875C1131.04 54.6875 1128.45 57.2785 1128.45 60.4743C1128.45 63.6701 1131.04 66.2585 1134.23 66.2585C1137.42 66.2585 1140.02 63.6701 1140.02 60.4743C1140.02 57.2785 1137.43 54.6875 1134.23 54.6875ZM1134.23 64.3467C1132.12 64.3467 1130.41 62.6347 1130.41 60.523C1130.41 58.4112 1132.12 56.7019 1134.23 56.7019C1136.34 56.7019 1138.05 58.4112 1138.05 60.523C1138.05 62.6347 1136.34 64.3467 1134.23 64.3467Z" fill="#464646"/>
<path d="M1181.72 33.1553C1182.99 33.1553 1184 34.183 1184 35.4695C1184 36.756 1182.99 37.7965 1181.71 37.7965C1180.44 37.7965 1179.42 36.7765 1179.42 35.4695C1179.42 34.1624 1180.45 33.1553 1181.71 33.1553H1181.73H1181.72ZM1181.71 33.5141C1180.7 33.5141 1179.86 34.388 1179.86 35.4695C1179.86 36.551 1180.7 37.4351 1181.73 37.4351C1182.75 37.4454 1183.58 36.5715 1183.58 35.4797C1183.58 34.388 1182.75 33.5141 1181.73 33.5141H1181.71ZM1181.28 36.8201H1180.87V34.2342C1181.09 34.2035 1181.29 34.1727 1181.6 34.1727C1181.99 34.1727 1182.25 34.2547 1182.4 34.37C1182.56 34.4828 1182.64 34.6571 1182.64 34.9057C1182.64 35.2465 1182.41 35.4515 1182.14 35.5335V35.554C1182.36 35.595 1182.52 35.8026 1182.57 36.1819C1182.63 36.5843 1182.69 36.7381 1182.73 36.8201H1182.3C1182.24 36.7355 1182.18 36.4997 1182.12 36.1614C1182.06 35.8308 1181.9 35.7078 1181.57 35.7078H1181.28V36.8201ZM1181.28 35.3875H1181.58C1181.92 35.3875 1182.21 35.2644 1182.21 34.9441C1182.21 34.7186 1182.04 34.4905 1181.58 34.4905C1181.45 34.4905 1181.36 34.5007 1181.28 34.511V35.3849V35.3875Z" fill="#464646"/>
</g>
</g>
<rect width="1200" height="80" fill="url(#paint0_linear_8_219)"/>
</g>
<defs>
<linearGradient id="paint0_linear_8_219" x1="0" y1="40" x2="1200" y2="40" gradientUnits="userSpaceOnUse">
<stop stop-color="#F8F8F8"/>
<stop offset="0.2" stop-color="#F8F8F8" stop-opacity="0"/>
<stop offset="0.8" stop-color="#F8F8F8" stop-opacity="0"/>
<stop offset="1" stop-color="#F8F8F8"/>
</linearGradient>
<clipPath id="clip0_8_219">
<rect width="1200" height="80" fill="white"/>
</clipPath>
<clipPath id="clip1_8_219">
<rect width="126.656" height="30" fill="white" transform="translate(11 25)"/>
</clipPath>
<clipPath id="clip2_8_219">
<rect width="71.2631" height="40" fill="white" transform="translate(248.328 20)"/>
</clipPath>
<clipPath id="clip3_8_219">
<rect width="160" height="34.4435" fill="white" transform="translate(413.836 23)"/>
</clipPath>
<clipPath id="clip4_8_219">
<rect width="160" height="39.9598" fill="white" transform="translate(624 20)"/>
</clipPath>
<clipPath id="clip5_8_219">
<rect width="160" height="32.5657" fill="white" transform="translate(834 24)"/>
</clipPath>
<clipPath id="clip6_8_219">
<rect width="120" height="52.2578" fill="white" transform="translate(1064 14)"/>
</clipPath>
</defs>
</svg>
