<svg width="24" height="24" viewBox="0 0 24 24" fill="none" xmlns="http://www.w3.org/2000/svg">
<g clip-path="url(#clip0_9_388)">
<path d="M12.0002 1.99902C12.5525 1.99902 13.0002 1.55131 13.0002 0.999023C13.0002 0.446739 12.5525 -0.000976562 12.0002 -0.000976562C11.448 -0.000976562 11.0002 0.446739 11.0002 0.999023C11.0002 1.55131 11.448 1.99902 12.0002 1.99902Z" fill="white"/>
<path d="M19.7789 5.2207C20.3312 5.2207 20.7789 4.77299 20.7789 4.2207C20.7789 3.66842 20.3312 3.2207 19.7789 3.2207C19.2266 3.2207 18.7789 3.66842 18.7789 4.2207C18.7789 4.77299 19.2266 5.2207 19.7789 5.2207Z" fill="white"/>
<path d="M23.0002 12.999C23.5525 12.999 24.0002 12.5513 24.0002 11.999C24.0002 11.4467 23.5525 10.999 23.0002 10.999C22.448 10.999 22.0002 11.4467 22.0002 11.999C22.0002 12.5513 22.448 12.999 23.0002 12.999Z" fill="white"/>
<path d="M19.7789 20.7773C20.3312 20.7773 20.7789 20.3296 20.7789 19.7773C20.7789 19.2251 20.3312 18.7773 19.7789 18.7773C19.2266 18.7773 18.7789 19.2251 18.7789 19.7773C18.7789 20.3296 19.2266 20.7773 19.7789 20.7773Z" fill="white"/>
<path d="M4.22156 20.7773C4.77384 20.7773 5.22156 20.3296 5.22156 19.7773C5.22156 19.2251 4.77384 18.7773 4.22156 18.7773C3.66927 18.7773 3.22156 19.2251 3.22156 19.7773C3.22156 20.3296 3.66927 20.7773 4.22156 20.7773Z" fill="white"/>
<path d="M1.00024 12.999C1.55253 12.999 2.00024 12.5513 2.00024 11.999C2.00024 11.4467 1.55253 10.999 1.00024 10.999C0.447959 10.999 0.000244141 11.4467 0.000244141 11.999C0.000244141 12.5513 0.447959 12.999 1.00024 12.999Z" fill="white"/>
<path d="M4.22156 5.2207C4.77384 5.2207 5.22156 4.77299 5.22156 4.2207C5.22156 3.66842 4.77384 3.2207 4.22156 3.2207C3.66927 3.2207 3.22156 3.66842 3.22156 4.2207C3.22156 4.77299 3.66927 5.2207 4.22156 5.2207Z" fill="white"/>
<path d="M11.2936 12.706C10.9029 12.3154 10.9029 11.682 11.2936 11.2914C11.6842 10.9007 12.3176 10.9007 12.7082 11.2914L18.3122 16.8967C19.3669 15.542 20.0002 13.8447 20.0002 11.998C20.0002 7.58605 16.4122 3.99805 12.0002 3.99805C7.58824 3.99805 4.00024 7.58738 4.00024 11.9994C4.00024 16.4114 7.58824 19.9994 12.0002 19.9994C13.8456 19.9994 15.5429 19.3647 16.8976 18.3114L11.2936 12.706Z" fill="white"/>
</g>
<defs>
<clipPath id="clip0_9_388">
<rect width="24" height="24" fill="white"/>
</clipPath>
</defs>
</svg>
