<svg width="12" height="13" viewBox="0 0 12 13" fill="none" xmlns="http://www.w3.org/2000/svg">
<path d="M9.55506 12.245C9.51006 12.245 9.46506 12.244 9.41906 12.24C7.06206 12.05 4.84006 11.021 3.16306 9.34302C1.48506 7.66602 0.456057 5.44302 0.266057 3.08602C0.202057 2.30002 0.696057 1.57502 1.46806 1.32202L3.02006 0.812022C3.79306 0.612022 4.53506 0.970022 4.83706 1.65302L5.40506 3.04502C5.67606 3.65502 5.49606 4.39702 4.95706 4.82802L2.91306 6.59002C3.27506 7.20202 3.71406 7.77102 4.22506 8.28002C4.73506 8.79002 5.30406 9.23002 5.91506 9.59202L7.69506 7.52802C8.10906 7.01002 8.85006 6.82802 9.48206 7.10902L10.8321 7.66002C11.5361 7.97202 11.8951 8.71702 11.7071 9.44102L11.1831 11.04C10.9451 11.766 10.2871 12.246 9.55606 12.246L9.55506 12.245Z" fill="#9B9B9B"/>
</svg>
