
<svg width="16" height="16" viewBox="0 0 16 16" fill="none" xmlns="http://www.w3.org/2000/svg">
<path d="M14.333 8.99805H1.33301C0.781008 8.99805 0.333008 8.55005 0.333008 7.99805C0.333008 7.44605 0.781008 6.99805 1.33301 6.99805H14.333C14.885 6.99805 15.333 7.44605 15.333 7.99805C15.333 8.55005 14.885 8.99805 14.333 8.99805Z" fill="#FF5500"/>
<path d="M10.3332 13.3321C10.0772 13.3321 9.82116 13.2348 9.6265 13.0388C9.23583 12.6481 9.23583 12.0148 9.6265 11.6241L13.2532 7.99742L9.6265 4.37075C9.23583 3.98009 9.23583 3.34675 9.6265 2.95609C10.0172 2.56542 10.6505 2.56542 11.0412 2.95609L15.3745 7.28942C15.7652 7.68009 15.7652 8.31342 15.3745 8.70409L11.0412 13.0374C10.8465 13.2321 10.5905 13.3308 10.3345 13.3308L10.3332 13.3321Z" fill="#FF5500"/>
</svg>
