<svg width="24" height="24" viewBox="0 0 24 24" fill="none" xmlns="http://www.w3.org/2000/svg">
<path d="M16.1677 4.91917L10.3979 6.56505C9.68972 6.76703 9.27943 7.50485 9.48142 8.21298L10.9444 13.3418C11.1464 14.0499 11.8842 14.4602 12.5923 14.2582L18.3621 12.6123C19.0703 12.4103 19.4807 11.6725 19.2787 10.9644L17.8156 5.83561C17.6136 5.12747 16.8759 4.71717 16.1677 4.91917Z" stroke="#FF5500" stroke-width="2" stroke-linecap="round" stroke-linejoin="round"/>
<path d="M13.2827 5.74268L14.0147 8.30668" stroke="#FF5500" stroke-width="2" stroke-linecap="round" stroke-linejoin="round"/>
<path d="M11.0334 18.5161L22.3334 15.2935" stroke="#FF5500" stroke-width="2" stroke-linecap="round" stroke-linejoin="round"/>
<path d="M8.02533 16.4238L4.676 4.63584C4.51333 4.0625 3.98933 3.6665 3.39333 3.6665H2" stroke="#FF5500" stroke-width="2" stroke-linecap="round" stroke-linejoin="round"/>
<path d="M8.66659 20.9997C9.95525 20.9997 10.9999 19.955 10.9999 18.6663C10.9999 17.3777 9.95525 16.333 8.66659 16.333C7.37792 16.333 6.33325 17.3777 6.33325 18.6663C6.33325 19.955 7.37792 20.9997 8.66659 20.9997Z" stroke="#FF5500" stroke-width="2" stroke-linecap="round" stroke-linejoin="round"/>
</svg>
