<svg width="64" height="64" viewBox="0 0 64 64" fill="none" xmlns="http://www.w3.org/2000/svg">
<path d="M20.5192 35.1529C20.3628 34.9218 17.4792 30.4489 19.6659 25.9973C19.9041 25.5102 21.3868 22.6231 24.4445 21.7733C28.9708 20.5182 32.2774 25.0409 34.4179 23.6755C36.8107 22.1502 33.4579 16.0098 36.2205 12.5502C38.3254 9.91554 42.9618 10.1111 46.4712 10.6622" stroke="#FF5500" stroke-width="5.33333" stroke-linecap="round" stroke-linejoin="round"/>
<path d="M20.5057 35.1309C26.1555 33.57 29.7893 34.3345 32.2106 35.753C35.5493 37.7086 35.7876 40.4392 38.6534 40.9761C42.7885 41.7512 45.2098 36.6135 48.8756 37.3103C50.5787 37.6339 52.6516 39.2375 54.4507 44.6241" stroke="#FF5500" stroke-width="5.33333" stroke-linecap="round" stroke-linejoin="round"/>
<path d="M30.5815 57.7054C31.1077 55.6467 31.4135 52.9303 30.002 50.8147C28.498 48.5569 26.3717 48.9765 24.946 46.612C23.4597 44.1445 24.9957 42.3987 23.89 39.3338C22.8517 36.4574 20.4731 35.1596 18.6882 33.8547C15.7157 31.6822 12.0251 27.7711 9.13086 20.1338" stroke="#FF5500" stroke-width="5.33333" stroke-linecap="round" stroke-linejoin="round"/>
<path d="M32.0002 57.7763C46.237 57.7763 57.778 46.2353 57.778 31.9985C57.778 17.7618 46.237 6.2207 32.0002 6.2207C17.7635 6.2207 6.22241 17.7618 6.22241 31.9985C6.22241 46.2353 17.7635 57.7763 32.0002 57.7763Z" stroke="#FF5500" stroke-width="5.33333" stroke-linecap="round" stroke-linejoin="round"/>
</svg>
