<svg width="64" height="64" viewBox="0 0 64 64" fill="none" xmlns="http://www.w3.org/2000/svg">
<path d="M13.6819 20.6457C15.2819 19.2057 17.1166 17.8368 19.193 16.6777" stroke="#FF5500" stroke-width="5.33333" stroke-linecap="round" stroke-linejoin="round"/>
<path d="M36.7858 13.7642C35.2747 13.4869 33.6782 13.334 32 13.334C30.3218 13.334 28.7289 13.4869 27.2142 13.7642" stroke="#FF5500" stroke-width="5.33333" stroke-linecap="round" stroke-linejoin="round"/>
<path d="M50.3185 20.6457C48.7185 19.2057 46.8838 17.8368 44.8074 16.6777" stroke="#FF5500" stroke-width="5.33333" stroke-linecap="round" stroke-linejoin="round"/>
<path d="M13.6819 43.3584C15.2819 44.7984 17.1166 46.1673 19.193 47.3264" stroke="#FF5500" stroke-width="5.33333" stroke-linecap="round" stroke-linejoin="round"/>
<path d="M8.04985 36.9511C7.8294 36.6347 7.61962 36.3253 7.42407 36.0302C6.62407 34.8178 6.22229 33.4098 6.22229 32.0053C6.22229 30.6009 6.62407 29.1929 7.42407 27.9805C7.61962 27.6818 7.8294 27.376 8.04985 27.0596" stroke="#FF5500" stroke-width="5.33333" stroke-linecap="round" stroke-linejoin="round"/>
<path d="M36.7858 50.2373C35.2747 50.5146 33.6782 50.6675 32 50.6675C30.3218 50.6675 28.7289 50.5146 27.2142 50.2373" stroke="#FF5500" stroke-width="5.33333" stroke-linecap="round" stroke-linejoin="round"/>
<path d="M50.3185 43.3584C48.7185 44.7984 46.8838 46.1673 44.8074 47.3264" stroke="#FF5500" stroke-width="5.33333" stroke-linecap="round" stroke-linejoin="round"/>
<path d="M55.9502 36.9511C56.1706 36.6347 56.3804 36.3253 56.576 36.0302C57.376 34.8178 57.7778 33.4098 57.7778 32.0053C57.7778 30.6009 57.376 29.1929 56.576 27.9805C56.3804 27.6818 56.1706 27.376 55.9502 27.0596" stroke="#FF5500" stroke-width="5.33333" stroke-linecap="round" stroke-linejoin="round"/>
<path d="M32.0001 41.7782C37.4002 41.7782 41.7778 37.4006 41.7778 32.0004C41.7778 26.6003 37.4002 22.2227 32.0001 22.2227C26.6 22.2227 22.2223 26.6003 22.2223 32.0004C22.2223 37.4006 26.6 41.7782 32.0001 41.7782Z" stroke="#FF5500" stroke-width="5.33333" stroke-linecap="round" stroke-linejoin="round"/>
</svg>
