<svg width="24" height="25" viewBox="0 0 24 25" fill="none" xmlns="http://www.w3.org/2000/svg">
<path d="M6.33325 12.7334V8.51074L15.3333 4.51074" stroke="#FF5500" stroke-width="2" stroke-linecap="round" stroke-linejoin="round"/>
<path d="M11.8746 2.97486L20.3333 6.73353L11.8746 10.4922C11.5293 10.6455 11.1359 10.6455 10.7919 10.4922L2.33325 6.73353L10.7919 2.97486C11.1373 2.82153 11.5306 2.82153 11.8746 2.97486Z" stroke="#FF5500" stroke-width="2" stroke-linecap="round" stroke-linejoin="round"/>
<path d="M20.3333 12.4001V6.7334" stroke="#FF5500" stroke-width="2" stroke-linecap="round" stroke-linejoin="round"/>
<path d="M2.33325 6.7334V17.2001C2.33325 17.7267 2.64392 18.2041 3.12525 18.4187L10.7919 21.8267C11.1373 21.9801 11.5306 21.9801 11.8746 21.8267L12.4653 21.5627" stroke="#FF5500" stroke-width="2" stroke-linecap="round" stroke-linejoin="round"/>
<path d="M11.3333 10.6079V21.8252" stroke="#FF5500" stroke-width="2" stroke-linecap="round" stroke-linejoin="round"/>
<path d="M17.8799 21.2803C19.5367 21.2803 20.8799 19.9371 20.8799 18.2803C20.8799 16.6235 19.5367 15.2803 17.8799 15.2803C16.2229 15.2803 14.8799 16.6235 14.8799 18.2803C14.8799 19.9371 16.2229 21.2803 17.8799 21.2803Z" stroke="#FF5500" stroke-width="2" stroke-linecap="round" stroke-linejoin="round"/>
<path d="M20 20.4004L22.2133 22.6137" stroke="#FF5500" stroke-width="2" stroke-linecap="round" stroke-linejoin="round"/>
</svg>
