<svg width="30" height="30" viewBox="0 0 30 30" fill="none" xmlns="http://www.w3.org/2000/svg">
<path fill-rule="evenodd" clip-rule="evenodd" d="M15 5C9.47715 5 5 9.47715 5 15C5 20.5229 9.47715 25 15 25C20.5229 25 25 20.5229 25 15C25 9.47715 20.5229 5 15 5ZM2.5 15C2.5 8.09644 8.09644 2.5 15 2.5C21.9035 2.5 27.5 8.09644 27.5 15C27.5 21.9035 21.9035 27.5 15 27.5C8.09644 27.5 2.5 21.9035 2.5 15Z" fill="#FF5500"/>
<path fill-rule="evenodd" clip-rule="evenodd" d="M16.25 13.7503L20 13.75C20.6904 13.75 21.25 14.3096 21.25 15C21.25 15.6904 20.6904 16.25 20 16.25H16.25H13.75H10C9.30965 16.25 8.75 15.6904 8.75 15C8.75 14.3096 9.30965 13.75 10 13.75H13.75L16.25 13.7503Z" fill="#FF5500"/>
</svg>
