<svg width="40" height="40" viewBox="0 0 40 40" fill="none" xmlns="http://www.w3.org/2000/svg">
<path d="M31.6667 23.8887H27.2222C25.9949 23.8887 25 24.8836 25 26.1109V30.5553C25 31.7826 25.9949 32.7776 27.2222 32.7776H31.6667C32.894 32.7776 33.8889 31.7826 33.8889 30.5553V26.1109C33.8889 24.8836 32.894 23.8887 31.6667 23.8887Z" stroke="#FF5500" stroke-width="3.33333" stroke-linecap="round" stroke-linejoin="round"/>
<path d="M11.6666 7.22168H28.6111C31.5266 7.22168 33.8889 9.5839 33.8889 12.4995C33.8889 15.415 31.5266 17.7772 28.6111 17.7772H11.3889C8.47331 17.7772 6.11108 20.1395 6.11108 23.055C6.11108 25.9706 8.47331 28.3328 11.3889 28.3328H19.4444" stroke="#FF5500" stroke-width="3.33333" stroke-linecap="round" stroke-linejoin="round"/>
</svg>
