<svg width="30" height="30" viewBox="0 0 30 30" fill="none" xmlns="http://www.w3.org/2000/svg">
<path d="M7.46058 12.9174C8.82725 12.9174 10.1489 12.4591 11.2322 11.6291C13.3939 13.2841 16.6089 13.2891 18.7689 11.6291C19.8489 12.4574 21.1689 12.9157 22.5372 12.9157C24.9606 12.9157 27.1856 11.4857 28.2056 9.27073C28.3739 8.90573 28.3556 8.48073 28.1572 8.13073L25.3172 3.13573C24.7972 2.22906 23.8256 1.66406 22.7822 1.66406H7.21892C6.17558 1.66406 5.20558 2.2274 4.68392 3.1374L1.84058 8.12906C1.64058 8.47906 1.62225 8.90406 1.79058 9.27073C2.81058 11.4841 5.03558 12.9157 7.45892 12.9157L7.46058 12.9174Z" fill="#FF5500"/>
<path d="M27.0837 25.834H25.0003V15.834C25.0003 15.144 24.4403 14.584 23.7503 14.584C23.0603 14.584 22.5003 15.144 22.5003 15.834V25.834H18.3337V21.6673C18.3337 19.8273 16.842 18.334 15.0003 18.334C13.1587 18.334 11.667 19.8273 11.667 21.6673V25.834H7.50033V15.834C7.50033 15.144 6.94033 14.584 6.25033 14.584C5.56033 14.584 5.00033 15.144 5.00033 15.834V25.834H2.91699C2.22699 25.834 1.66699 26.394 1.66699 27.084C1.66699 27.774 2.22699 28.334 2.91699 28.334H27.0837C27.7737 28.334 28.3337 27.774 28.3337 27.084C28.3337 26.394 27.7737 25.834 27.0837 25.834Z" fill="#FF5500"/>
</svg>
