<svg width="390" height="36" viewBox="0 0 390 36" fill="none" xmlns="http://www.w3.org/2000/svg">
<path d="M25.1006 3.49902H12.1006C9.89145 3.49902 8.10059 5.28988 8.10059 7.49902V28.499C8.10059 30.7082 9.89145 32.499 12.1006 32.499H25.1006C27.3098 32.499 29.1006 30.7082 29.1006 28.499V7.49902C29.1006 5.28988 27.3098 3.49902 25.1006 3.49902Z" stroke="#FF5500" stroke-width="3" stroke-linecap="round" stroke-linejoin="round"/>
<path d="M18.6006 26.499C21.0858 26.499 23.1006 24.4842 23.1006 21.999C23.1006 19.5137 21.0858 17.499 18.6006 17.499C16.1153 17.499 14.1006 19.5137 14.1006 21.999C14.1006 24.4842 16.1153 26.499 18.6006 26.499Z" stroke="#FF5500" stroke-width="3" stroke-linecap="round" stroke-linejoin="round"/>
<path d="M18.6006 12.999C19.7051 12.999 20.6006 12.1036 20.6006 10.999C20.6006 9.89446 19.7051 8.99902 18.6006 8.99902C17.496 8.99902 16.6006 9.89446 16.6006 10.999C16.6006 12.1036 17.496 12.999 18.6006 12.999Z" fill="#FF5500"/>
<path d="M82.5 25.499V17.999C82.5 10.5432 76.4558 4.49902 69 4.49902C61.5442 4.49902 55.5 10.5432 55.5 17.999V25.499" stroke="#FF5500" stroke-width="3" stroke-linecap="round" stroke-linejoin="round"/>
<path d="M55.5 25.499C55.5 28.8128 58.1862 31.499 61.5 31.499C62.6046 31.499 63.5 30.6036 63.5 29.499V21.499C63.5 20.3944 62.6046 19.499 61.5 19.499C58.1862 19.499 55.5 22.1852 55.5 25.499Z" stroke="#FF5500" stroke-width="3" stroke-linecap="round" stroke-linejoin="round"/>
<path d="M76.5 19.499C75.3954 19.499 74.5 20.3944 74.5 21.499V29.499C74.5 30.6036 75.3954 31.499 76.5 31.499C79.8138 31.499 82.5 28.8128 82.5 25.499C82.5 22.1852 79.8138 19.499 76.5 19.499Z" stroke="#FF5500" stroke-width="3" stroke-linecap="round" stroke-linejoin="round"/>
<path d="M131.901 15C131.901 21.892 126.293 27.5 119.401 27.5C112.509 27.5 106.901 21.892 106.901 15" stroke="#FF5500" stroke-width="3" stroke-linecap="round" stroke-linejoin="round"/>
<path d="M125.901 8C125.901 4.41014 122.991 1.5 119.401 1.5C115.812 1.5 112.901 4.41014 112.901 8V15C112.901 18.5899 115.812 21.5 119.401 21.5C122.991 21.5 125.901 18.5899 125.901 15V8Z" stroke="#FF5500" stroke-width="3" stroke-linecap="round" stroke-linejoin="round"/>
<path d="M119.401 27.5V34.5" stroke="#FF5500" stroke-width="3" stroke-linecap="round" stroke-linejoin="round"/>
<path d="M121.901 14.499H125.901" stroke="#FF5500" stroke-width="3" stroke-linecap="round" stroke-linejoin="round"/>
<path d="M121.901 8.49902H125.901" stroke="#FF5500" stroke-width="3" stroke-linecap="round" stroke-linejoin="round"/>
<path d="M112.901 34.5H125.901" stroke="#FF5500" stroke-width="3" stroke-linecap="round" stroke-linejoin="round"/>
<path d="M178.301 5.5H161.301C159.092 5.5 157.301 7.29086 157.301 9.5V26.5C157.301 28.7091 159.092 30.5 161.301 30.5H178.301C180.51 30.5 182.301 28.7091 182.301 26.5V9.5C182.301 7.29086 180.51 5.5 178.301 5.5Z" stroke="#FF5500" stroke-width="3" stroke-linecap="round" stroke-linejoin="round"/>
<path d="M176.301 11.5H163.301V18.5H176.301V11.5Z" fill="#FF5500" stroke="#FF5500" stroke-width="3" stroke-linecap="round" stroke-linejoin="round"/>
<path d="M163.301 24.5H169.301" stroke="#FF5500" stroke-width="3" stroke-linecap="round" stroke-linejoin="round"/>
<path d="M175.301 24.5H176.301" stroke="#FF5500" stroke-width="3" stroke-linecap="round" stroke-linejoin="round"/>
<path opacity="0.3" d="M232.702 18.5V9.5C232.702 7.291 230.911 5.5 228.702 5.5H211.702C209.493 5.5 207.702 7.291 207.702 9.5V18.5H232.702Z" fill="#FF5500"/>
<path d="M228.702 5.5H211.702C209.493 5.5 207.702 7.29086 207.702 9.5V26.5C207.702 28.7091 209.493 30.5 211.702 30.5H228.702C230.911 30.5 232.702 28.7091 232.702 26.5V9.5C232.702 7.29086 230.911 5.5 228.702 5.5Z" stroke="#FF5500" stroke-width="3" stroke-linecap="round" stroke-linejoin="round"/>
<path d="M232.702 18.5H207.702" stroke="#FF5500" stroke-width="3" stroke-linecap="round" stroke-linejoin="round"/>
<path d="M213.702 24.5H219.702" stroke="#FF5500" stroke-width="3" stroke-linecap="round" stroke-linejoin="round"/>
<path d="M225.702 24.5H226.702" stroke="#FF5500" stroke-width="3" stroke-linecap="round" stroke-linejoin="round"/>
<g clip-path="url(#clip0_9_5142)">
<path d="M270.601 3C271.429 3 272.101 2.32843 272.101 1.5C272.101 0.671573 271.429 0 270.601 0C269.772 0 269.101 0.671573 269.101 1.5C269.101 2.32843 269.772 3 270.601 3Z" fill="#FF5500"/>
<path d="M282.269 7.83105C283.097 7.83105 283.769 7.15948 283.769 6.33105C283.769 5.50263 283.097 4.83105 282.269 4.83105C281.44 4.83105 280.769 5.50263 280.769 6.33105C280.769 7.15948 281.44 7.83105 282.269 7.83105Z" fill="#FF5500"/>
<path d="M287.101 19.5C287.929 19.5 288.601 18.8284 288.601 18C288.601 17.1716 287.929 16.5 287.101 16.5C286.272 16.5 285.601 17.1716 285.601 18C285.601 18.8284 286.272 19.5 287.101 19.5Z" fill="#FF5500"/>
<path d="M282.269 31.168C283.097 31.168 283.769 30.4964 283.769 29.668C283.769 28.8395 283.097 28.168 282.269 28.168C281.44 28.168 280.769 28.8395 280.769 29.668C280.769 30.4964 281.44 31.168 282.269 31.168Z" fill="#FF5500"/>
<path d="M258.933 31.168C259.761 31.168 260.433 30.4964 260.433 29.668C260.433 28.8395 259.761 28.168 258.933 28.168C258.104 28.168 257.433 28.8395 257.433 29.668C257.433 30.4964 258.104 31.168 258.933 31.168Z" fill="#FF5500"/>
<path d="M254.101 19.5C254.929 19.5 255.601 18.8284 255.601 18C255.601 17.1716 254.929 16.5 254.101 16.5C253.272 16.5 252.601 17.1716 252.601 18C252.601 18.8284 253.272 19.5 254.101 19.5Z" fill="#FF5500"/>
<path d="M258.933 7.83105C259.761 7.83105 260.433 7.15948 260.433 6.33105C260.433 5.50263 259.761 4.83105 258.933 4.83105C258.104 4.83105 257.433 5.50263 257.433 6.33105C257.433 7.15948 258.104 7.83105 258.933 7.83105Z" fill="#FF5500"/>
<path d="M269.541 19.0591C268.955 18.4731 268.955 17.5231 269.541 16.9371C270.127 16.3511 271.077 16.3511 271.663 16.9371L280.069 25.3451C281.651 23.3131 282.601 20.7671 282.601 17.9971C282.601 11.3791 277.219 5.99707 270.601 5.99707C263.983 5.99707 258.601 11.3811 258.601 17.9991C258.601 24.6171 263.983 29.9991 270.601 29.9991C273.369 29.9991 275.915 29.0471 277.947 27.4671L269.541 19.0591Z" fill="#FF5500"/>
</g>
<path d="M333.5 9.49902H308.5C306.291 9.49902 304.5 11.2899 304.5 13.499V22.499C304.5 24.7082 306.291 26.499 308.5 26.499H333.5C335.709 26.499 337.5 24.7082 337.5 22.499V13.499C337.5 11.2899 335.709 9.49902 333.5 9.49902Z" stroke="#FF5500" stroke-width="3" stroke-linecap="round" stroke-linejoin="round"/>
<path d="M326.5 20.499H315.5" stroke="#FF5500" stroke-width="3" stroke-linecap="round" stroke-linejoin="round"/>
<path d="M311 13.999H310C309.448 13.999 309 14.4467 309 14.999V15.999C309 16.5513 309.448 16.999 310 16.999H311C311.552 16.999 312 16.5513 312 15.999V14.999C312 14.4467 311.552 13.999 311 13.999Z" fill="#FF5500"/>
<path d="M311 18.999H310C309.448 18.999 309 19.4467 309 19.999V20.999C309 21.5513 309.448 21.999 310 21.999H311C311.552 21.999 312 21.5513 312 20.999V19.999C312 19.4467 311.552 18.999 311 18.999Z" fill="#FF5500"/>
<path d="M316 13.999H315C314.448 13.999 314 14.4467 314 14.999V15.999C314 16.5513 314.448 16.999 315 16.999H316C316.552 16.999 317 16.5513 317 15.999V14.999C317 14.4467 316.552 13.999 316 13.999Z" fill="#FF5500"/>
<path d="M321.5 13.999H320.5C319.948 13.999 319.5 14.4467 319.5 14.999V15.999C319.5 16.5513 319.948 16.999 320.5 16.999H321.5C322.052 16.999 322.5 16.5513 322.5 15.999V14.999C322.5 14.4467 322.052 13.999 321.5 13.999Z" fill="#FF5500"/>
<path d="M332 13.999H331C330.448 13.999 330 14.4467 330 14.999V15.999C330 16.5513 330.448 16.999 331 16.999H332C332.552 16.999 333 16.5513 333 15.999V14.999C333 14.4467 332.552 13.999 332 13.999Z" fill="#FF5500"/>
<path d="M332 18.999H331C330.448 18.999 330 19.4467 330 19.999V20.999C330 21.5513 330.448 21.999 331 21.999H332C332.552 21.999 333 21.5513 333 20.999V19.999C333 19.4467 332.552 18.999 332 18.999Z" fill="#FF5500"/>
<path d="M327 13.999H326C325.448 13.999 325 14.4467 325 14.999V15.999C325 16.5513 325.448 16.999 326 16.999H327C327.552 16.999 328 16.5513 328 15.999V14.999C328 14.4467 327.552 13.999 327 13.999Z" fill="#FF5500"/>
<path d="M371.401 18.999C371.954 18.999 372.401 18.5513 372.401 17.999C372.401 17.4467 371.954 16.999 371.401 16.999C370.849 16.999 370.401 17.4467 370.401 17.999C370.401 18.5513 370.849 18.999 371.401 18.999Z" fill="#FF5500" stroke="#FF5500" stroke-width="3" stroke-linecap="round" stroke-linejoin="round"/>
<path d="M359.901 18.999C360.454 18.999 360.901 18.5513 360.901 17.999C360.901 17.4467 360.454 16.999 359.901 16.999C359.349 16.999 358.901 17.4467 358.901 17.999C358.901 18.5513 359.349 18.999 359.901 18.999Z" fill="#FF5500" stroke="#FF5500" stroke-width="3" stroke-linecap="round" stroke-linejoin="round"/>
<path d="M382.901 18.999C383.454 18.999 383.901 18.5513 383.901 17.999C383.901 17.4467 383.454 16.999 382.901 16.999C382.349 16.999 381.901 17.4467 381.901 17.999C381.901 18.5513 382.349 18.999 382.901 18.999Z" fill="#FF5500" stroke="#FF5500" stroke-width="3" stroke-linecap="round" stroke-linejoin="round"/>
<defs>
<clipPath id="clip0_9_5142">
<rect width="36" height="36" fill="white" transform="translate(252.6)"/>
</clipPath>
</defs>
</svg>
