<svg width="24" height="25" viewBox="0 0 24 25" fill="none" xmlns="http://www.w3.org/2000/svg">
<g clip-path="url(#clip0_65_914)">
<path d="M11.9999 10.0662C14.025 10.0662 15.6666 8.42462 15.6666 6.39958C15.6666 4.37454 14.025 2.73291 11.9999 2.73291C9.97488 2.73291 8.33325 4.37454 8.33325 6.39958C8.33325 8.42462 9.97488 10.0662 11.9999 10.0662Z" stroke="#FF5500" stroke-width="2" stroke-linecap="round" stroke-linejoin="round"/>
<path d="M18.3333 14.3994V16.0661" stroke="#FF5500" stroke-width="2" stroke-linecap="round" stroke-linejoin="round"/>
<path d="M21.3972 15.6689L20.2185 16.8476" stroke="#FF5500" stroke-width="2" stroke-linecap="round" stroke-linejoin="round"/>
<path d="M22.6667 18.7329H21" stroke="#FF5500" stroke-width="2" stroke-linecap="round" stroke-linejoin="round"/>
<path d="M21.3972 21.7968L20.2185 20.6182" stroke="#FF5500" stroke-width="2" stroke-linecap="round" stroke-linejoin="round"/>
<path d="M18.3333 23.0661V21.3994" stroke="#FF5500" stroke-width="2" stroke-linecap="round" stroke-linejoin="round"/>
<path d="M15.2693 21.7968L16.448 20.6182" stroke="#FF5500" stroke-width="2" stroke-linecap="round" stroke-linejoin="round"/>
<path d="M14 18.7329H15.6667" stroke="#FF5500" stroke-width="2" stroke-linecap="round" stroke-linejoin="round"/>
<path d="M15.2693 15.6689L16.448 16.8476" stroke="#FF5500" stroke-width="2" stroke-linecap="round" stroke-linejoin="round"/>
<path d="M12.796 13.4581C12.532 13.4327 12.2706 13.3994 12 13.3994C8.59865 13.3994 5.68132 15.4394 4.38798 18.3594C3.90132 19.4594 4.50398 20.7247 5.65065 21.0861C7.27465 21.5994 9.42531 22.0581 11.9626 22.0634" stroke="#FF5500" stroke-width="2" stroke-linecap="round" stroke-linejoin="round"/>
<path d="M18.3333 21.0661C19.622 21.0661 20.6667 20.0214 20.6667 18.7327C20.6667 17.4441 19.622 16.3994 18.3333 16.3994C17.0447 16.3994 16 17.4441 16 18.7327C16 20.0214 17.0447 21.0661 18.3333 21.0661Z" stroke="#FF5500" stroke-width="2" stroke-linecap="round" stroke-linejoin="round"/>
</g>
<defs>
<clipPath id="clip0_65_914">
<rect width="24" height="24" fill="white" transform="translate(0 0.399902)"/>
</clipPath>
</defs>
</svg>
